<?xml version="1.0" encoding="utf-8"?>
<!-- Generator: Adobe Illustrator 27.0.0, SVG Export Plug-In . SVG Version: 6.00 Build 0)  -->
<svg version="1.1" id="Layer_1" xmlns="http://www.w3.org/2000/svg" xmlns:xlink="http://www.w3.org/1999/xlink" x="0px" y="0px"
	 viewBox="0 0 231.6 231.6" style="enable-background:new 0 0 231.6 231.6;" xml:space="preserve">
<style type="text/css">
	.st0{fill:#2C2C2C;}
	.st1{fill:#AEAEAE;}
</style>
<g>
	<path class="st0" d="M116.1,205.4c-11.3-0.5-22.8-0.4-33.9-2.8c-9.6-2-18.9-5.3-27.5-10c-9.8-5.4-16.9-13.4-21.2-23.7
		c-2.3-5.4-2.6-11.2-2.5-17c0.5-14.9,4.4-29.2,9.4-43.1c0.5-1.4,0.7-2.6,0.2-4.2c-0.9-2.6-1-5.5-1.5-8.2
		c-1.8-11.8-0.2-23.4,3.3-34.7c1.9-6.2,5.2-11.8,8.5-17.3c2.3-3.8,4.8-7.4,7.4-11c1-1.4,2.4-2.6,3.7-3.8c1.7-1.5,3.7-1.9,5.6-0.6
		c1.7,1.1,3.6,2.1,4.9,3.5c6.7,7,12.6,14.4,16.6,23.3c1.3,2.9,2.4,5.9,3.7,8.8c0.1,0.3,0.7,0.7,0.9,0.6c4.9-1.6,10-2.2,15.1-2.5
		c9.3-0.6,18.5-0.3,27.6,2c0.8,0.2,1.8,0.8,2.4,0.6c0.6-0.3,0.7-1.4,1.1-2.2c2.2-5.2,4-10.7,7.5-15.3c3.9-5.3,8-10.3,12.3-15.3
		c1.2-1.5,3.1-2.4,4.8-3.5c2.1-1.3,4.2-1,5.8,0.6c2.2,2.2,4.4,4.4,6.2,7c4.7,6.9,9.1,14.1,12.1,21.9c4.2,11,6.1,22.4,4.9,34.2
		c-0.3,2.9-0.6,5.9-1.1,8.8c-0.2,1.5-0.9,2.9-1.3,4.4c-0.1,0.3-0.1,0.7,0,1c4.1,9.8,6.7,20.1,8.6,30.5c0.5,3,1.1,6,1.4,9
		c0.6,5.3,0.3,10.5-0.6,15.7c-1.8,10.4-7.5,18.5-15.5,25.2c-5.5,4.6-11.9,7.8-18.6,10.2c-6.4,2.3-12.7,4.7-19.5,5.5
		c-7.2,0.8-14.5,1.3-21.7,1.7c-3,0.2-6.1,0-9.1,0C116.1,205.1,116.1,205.3,116.1,205.4z M101.3,68c-2.6,0.4-5.1,0.8-7.7,1.2
		c-3.3,0.5-3.9,0.2-5.3-2.9c-1.2-2.6-2.5-5.3-3.8-7.9c-4.9-9.9-11.6-18.5-19.3-26.2c-0.2-0.2-1-0.2-1.2,0c-1.2,1.3-2.3,2.6-3.3,3.9
		c-4.7,6.3-8.2,13.3-11.2,20.5c-5.4,13-7.4,26.6-5.1,40.6c0.5,3.4,1.8,6.8,0.3,10.3c-0.8,1.8-0.9,3.9-1.5,5.8
		c-3.3,12.3-5.9,24.7-6.8,37.4c-0.7,9.7,2.4,18.4,8.5,25.9c2.8,3.5,6.2,6.6,10.1,8.9c0.2,0.1,0.4,0.3,0.6,0.4
		c8.9,5.2,18.4,9.1,28.6,11c7.1,1.3,14.4,1.8,21.7,2.4c3.8,0.4,7.7,0.5,11.5,0.5c4.4-0.1,8.9-0.4,13.3-0.7c9.6-0.7,19.1-1.8,28.2-5
		c6.5-2.2,12.7-5,18.6-8.6c0.3-0.2,0.7-0.4,1-0.6c11.1-7.8,17.4-18.3,17.6-32c0.1-4.6-0.7-9.2-1.3-13.7c-1.4-9.8-3.6-19.5-6.3-29.1
		c-0.3-1.2-0.3-2.5-0.8-3.6c-0.7-1.3-0.6-2.5-0.4-3.8c0.6-4.4,1.4-8.7,1.8-13.1c0.6-8.4-0.7-16.7-2.9-24.8
		c-2.3-8.5-6.4-16.2-10.9-23.7c-1.9-3.1-4.3-5.9-6.5-8.9c-0.4-0.5-0.7-0.8-1.4-0.2c-5.7,5.4-10.6,11.6-14.7,18.3
		c-3.2,5-5.6,10.5-8.3,15.8c-1.6,3.1-2,3.5-5.5,2.9c-2.5-0.4-5-0.8-7.6-1.2C121.1,66.6,111.2,66.6,101.3,68z"/>
	<path class="st1" d="M131,68c2.5,0.4,5,0.8,7.6,1.2c3.4,0.5,3.9,0.2,5.5-2.9c2.7-5.3,5.1-10.8,8.3-15.8c4.2-6.6,9-12.8,14.7-18.3
		c0.7-0.7,1-0.3,1.4,0.2c2.2,2.9,4.6,5.8,6.5,8.9c4.5,7.5,8.6,15.2,10.9,23.7c2.2,8.1,3.6,16.4,2.9,24.8c-0.3,4.4-1.1,8.7-1.8,13.1
		c-0.2,1.3-0.2,2.5,0.4,3.8c0.5,1.1,0.5,2.4,0.8,3.6c2.7,9.6,4.8,19.2,6.3,29.1c0.7,4.5,1.4,9.1,1.3,13.7
		c-0.2,13.7-6.5,24.2-17.6,32c-0.3,0.2-0.7,0.4-1,0.6c-0.7-1.7-1-3.6-2-5.1c-3.3-5-8.1-8-13.6-10.2c-5.2-2.1-10.4-4.5-15.5-6.8
		c-0.6-0.3-1.3-0.7-1.9-1c-0.2,0.6-0.4,1.2-0.5,1.9c0,0,0,0.1-0.1,0.1c0-0.5,0-1,0-1.5c0.1-2.6-0.9-3.5-3.4-3.3
		c-0.9-0.8-1.8-1.7-2.7-2.5c-3.3-3.1-5.5-7.1-7.8-10.9c-0.2-0.4-0.5-0.7-0.8-1.1c-0.2-0.5-0.5-1-0.7-1.5c-0.1-0.4-0.1-0.8-0.2-1.1
		c-4-11.8-5-24-3.5-36.3c0.6-4.9,1.6-9.9,2.5-14.8c1.4-7.4,3-14.8,4.5-22.2C131.8,68.9,131.2,68.4,131,68z M179.4,87.8
		c-0.4-3.4-0.6-6.5-1-9.6c-1.6-10.6-5.3-20.4-10.8-29.5c-1.2-2-3.6-2.5-5.2-0.9c-2.9,2.9-5.5,6-7.1,9.9s-2.7,8-2.7,12.3
		c0,4,0.1,8.1,3.1,11.1c2.3,2.4,4.9,4.6,7.5,6.7c3.1,2.5,6.3,4.9,9.6,7.1c2.4,1.7,5,0.6,5.8-2.3C179,91,179.2,89.3,179.4,87.8z
		 M141.9,131.2c0.3,4,1.1,7.8,3.6,11c2.1,2.7,5.2,3.5,8.3,2.2c2.2-0.9,3.4-2.7,4.2-4.8c2-5.4,1.9-10.8-0.4-16.1
		c-0.6-1.3-1.5-2.5-2.5-3.5c-2.6-2.6-6.5-2.6-9,0.1c-1.1,1.1-2,2.5-2.5,4C142.7,126.4,142.4,128.8,141.9,131.2z"/>
	<path class="st1" d="M54.9,185.6c-4-2.3-7.3-5.3-10.1-8.9c-6.1-7.6-9.2-16.3-8.5-25.9c0.9-12.7,3.5-25.1,6.8-37.4
		c0.5-1.9,0.7-4,1.5-5.8c1.6-3.5,0.3-6.9-0.3-10.3c-2.3-14.1-0.4-27.6,5.1-40.6c3-7.2,6.5-14.2,11.2-20.5c1-1.4,2.2-2.7,3.3-3.9
		c0.2-0.2,1-0.2,1.2,0c7.8,7.8,14.5,16.3,19.3,26.2c1.3,2.6,2.5,5.3,3.8,7.9c1.4,3,2,3.4,5.3,2.9c2.6-0.4,5.1-0.8,7.7-1.2
		c-0.3,0.4-0.8,0.8-0.7,1.1c1,4.8,2.3,9.6,3.1,14.5c1.6,9.6,4,19.1,4.5,28.8c0.4,9-0.6,17.8-2.9,26.4c-0.4,1.6-0.9,3.1-1.4,4.7
		c-0.2,0.5-0.4,1-0.6,1.5c-0.3,0.4-0.6,0.7-0.8,1.1c-2.7,4.7-5.4,9.4-9.9,12.7c-0.3,0.2-0.4,0.5-0.6,0.8c-2.2-0.4-3.4,0.6-3.4,2.9
		c0,0.6,0,1.3,0.1,1.9c-0.1-0.4-0.2-0.8-0.3-1.2c0-1-0.4-0.9-1.1-0.5c-4.9,2.3-9.8,4.8-14.9,6.8c-5,2-9.8,4.2-13.5,8.4
		C56.9,180.2,55,182.5,54.9,185.6z M52.9,88c0.2,1.2,0.3,2.9,0.7,4.5c0.8,3.2,3.4,4.3,6,2.3c5.3-3.9,10.4-8,15.6-12.2
		c2.8-2.3,4.1-5.4,4.3-8.9c0.1-1.8,0.1-3.6,0-5.4c-0.4-8-3.8-14.7-9.3-20.3c-1.9-1.9-4.4-1.5-5.6,0.9c-1.9,3.7-3.9,7.3-5.6,11.1
		C55.1,68.8,53.5,78,52.9,88z M90.1,131.4c0-3.7-0.7-7.3-2.9-10.3c-2.8-3.7-7.3-3.9-10.4-0.6c-0.5,0.6-1,1.2-1.3,1.8
		c-3.1,6.1-3.3,12.3-0.4,18.6c0.8,1.7,2,3,3.8,3.6c3.4,1.3,6.8,0,8.9-3.5C89.4,138,90.1,134.8,90.1,131.4z"/>
	<path class="st0" d="M103.8,143.6c1.1-1.4,2.4-2.4,4.2-2.8c5.4-1.3,10.8-1.3,16.2,0c1.8,0.4,3.1,1.4,4.1,2.8c0.2,0.5,0.5,1,0.7,1.5
		c0.4,2.5-0.6,4.7-2.1,6.7c-2,2.6-4.3,4.7-6.9,6.7c-0.4,0.3-0.9,0.9-0.8,1.2c0.3,1.2,0.5,2.6,1.2,3.6c2,2.4,4.4,4.4,7.5,5.3
		c4.3,1.3,8.2-0.6,9.6-4.9c0.5-1.5,1.1-3,2.6-3.9c2.5-0.2,3.5,0.7,3.4,3.3c0,0.5,0,1,0,1.5c-2,6.6-6.4,10.6-12.5,10.9
		c-4.5,0.2-8.6-1.6-12.1-4.5c-0.8-0.7-1.5-1.4-2.2-2.2c-0.6-0.6-1-0.6-1.5,0c-2.6,3.1-6,5-9.9,6.1c-6.8,2-14.1-1.7-16.3-8.5
		c-0.2-0.6-0.4-1.2-0.6-1.8c0-0.6,0-1.3-0.1-1.9c0-2.3,1.2-3.3,3.4-2.9c1.7,0.8,2.3,2.4,2.7,4c0.6,2.4,2.2,3.7,4.4,4.6
		c3.1,1.3,5.9,0.1,8.4-1.4c2.4-1.5,4.8-3.2,5.4-6.4c0.2-1,0-1.7-0.9-2.3c-3.1-2.1-5.7-4.7-7.6-7.9c-1-1.6-1.9-3.3-1.2-5.3
		C103.4,144.6,103.6,144.1,103.8,143.6z"/>
	<path class="st0" d="M141.9,131.2c0.5-2.4,0.9-4.8,1.6-7.1c0.5-1.5,1.4-2.9,2.5-4c2.5-2.7,6.4-2.7,9-0.1c1,1,1.9,2.2,2.5,3.5
		c2.3,5.3,2.5,10.7,0.4,16.1c-0.8,2.1-2,3.9-4.2,4.8c-3,1.3-6.2,0.4-8.3-2.2C143,139,142.2,135.2,141.9,131.2z"/>
	<path class="st0" d="M90.1,131.4c0,3.4-0.6,6.7-2.4,9.6c-2.1,3.5-5.4,4.8-8.9,3.5c-1.8-0.7-3-2-3.8-3.6c-2.9-6.2-2.7-12.4,0.4-18.6
		c0.3-0.7,0.8-1.3,1.3-1.8c3.1-3.4,7.7-3.2,10.4,0.6C89.4,124.1,90.1,127.6,90.1,131.4z"/>
</g>
<path d="M115.8,0C85.1,0,55.7,12.2,33.9,33.9C12.2,55.6,0,85.1,0,115.8s12.2,60.1,33.9,81.9c21.7,21.7,51.2,33.9,81.9,33.9
	s60.1-12.2,81.9-33.9c21.7-21.7,33.9-51.2,33.9-81.9S219.4,55.7,197.7,34C176,12.2,146.5,0,115.8,0L115.8,0z M10.5,115.7
	c0-27.5,10.7-53.9,29.9-73.5c19.2-19.7,45.3-31.1,72.8-31.8c27.5-0.7,54.1,9.4,74.2,28.1L38.6,187.3
	C20.5,167.9,10.4,142.3,10.5,115.7L10.5,115.7z M115.8,221.1L115.8,221.1c-25.7,0-50.6-9.4-69.8-26.5L194.6,46
	c18,20.4,27.5,46.9,26.4,74.1s-12.7,52.9-32.3,71.7C169.2,210.6,143,221.1,115.8,221.1L115.8,221.1z"/>
</svg>
