<?xml version="1.0" encoding="UTF-8" standalone="no"?>
<svg
   height="48"
   width="48"
   version="1.1"
   id="svg4"
   sodipodi:docname="completed-alt.svg"
   inkscape:version="1.1.2 (0a00cf5339, 2022-02-04)"
   xmlns:inkscape="http://www.inkscape.org/namespaces/inkscape"
   xmlns:sodipodi="http://sodipodi.sourceforge.net/DTD/sodipodi-0.dtd"
   xmlns="http://www.w3.org/2000/svg"
   xmlns:svg="http://www.w3.org/2000/svg">
  <defs
     id="defs8" />
  <sodipodi:namedview
     id="namedview6"
     pagecolor="#505050"
     bordercolor="#ffffff"
     borderopacity="1"
     inkscape:pageshadow="0"
     inkscape:pageopacity="0"
     inkscape:pagecheckerboard="1"
     showgrid="false"
     inkscape:zoom="3.7447918"
     inkscape:cx="116.02781"
     inkscape:cy="2.4033379"
     inkscape:window-width="2560"
     inkscape:window-height="1403"
     inkscape:window-x="1440"
     inkscape:window-y="503"
     inkscape:window-maximized="1"
     inkscape:current-layer="svg4" />
  <path
     d="M12.65 41.25q-4.85 0-8.325-3.4Q.85 34.45.85 29.55q0-4.2 2.55-7.525T10.05 18q1.1-4.55 4.45-7.55t7.75-3.55v18.6l-3.85-3.95-2.55 2.55 8.2 8.25 8.2-8.25-2.55-2.55-3.85 3.95V6.9q5.15.65 8.725 4.575Q38.15 15.4 38.5 20.85v1.2q3.75.35 6.2 3.025t2.45 6.575q0 4-2.8 6.8t-6.8 2.8Z"
     id="path2" />
  <path
     style="fill:#37c837;stroke-width:0.0667594;fill-opacity:1"
     d="M 11.215577,41.14497 C 9.4258475,40.916496 7.7043845,40.302035 6.3419955,39.405388 4.023087,37.879213 2.2758976,35.687569 1.4787694,33.30504 1.108344,32.19788 0.95891949,31.30754 0.91892651,29.969241 0.86758718,28.251254 1.0182224,27.152631 1.5085466,25.668985 2.1124863,23.841555 3.0377215,22.35243 4.4343441,20.96004 5.9491326,19.449843 7.4191476,18.6295 9.448338,18.161975 l 0.636099,-0.146557 0.153441,-0.579224 c 1.203855,-4.544419 4.792363,-8.3756883 9.231954,-9.856491 0.828777,-0.2764341 2.628339,-0.6915462 2.697615,-0.6222695 0.01679,0.016787 0.02291,4.1650865 0.0136,9.2184425 l -0.01693,9.187919 -1.869263,-1.928045 -1.869263,-1.928046 -1.285118,1.278885 c -0.706815,0.703388 -1.285118,1.301346 -1.285118,1.328797 0,0.07507 8.159181,8.269709 8.212479,8.248167 0.02535,-0.01025 1.888362,-1.875612 4.140028,-4.145257 l 4.093936,-4.126627 -1.296935,-1.300281 -1.296935,-1.300281 -1.916073,1.95542 -1.916072,1.95542 -0.0033,-9.233576 -0.0033,-9.2335757 0.317107,0.043996 c 2.331933,0.3235392 4.844054,1.4300843 6.710522,2.9558678 0.649249,0.5307419 1.702111,1.5910939 2.23139,2.2472619 2.05606,2.54898 3.188436,5.575728 3.335347,8.915112 l 0.04263,0.969077 0.737477,0.120138 c 1.924212,0.313462 3.594876,1.143583 4.963077,2.466056 1.434814,1.386861 2.275186,2.902593 2.706618,4.881778 0.1259,0.57757 0.147135,0.880882 0.147704,2.109868 6.01e-4,1.323628 -0.01317,1.493644 -0.177107,2.1847 -0.447308,1.88557 -1.283421,3.330495 -2.737802,4.731315 -1.130413,1.088783 -2.304184,1.795536 -3.69004,2.221853 -1.398649,0.430252 -0.578865,0.409162 -15.488178,0.398453 -7.453686,-0.0054 -13.642281,-0.02124 -13.752434,-0.0353 z"
     id="path84" />
</svg>
