<?xml version="1.0" encoding="UTF-8" standalone="no"?>
<svg
   height="48"
   width="48"
   version="1.1"
   id="svg4"
   sodipodi:docname="failed-alt.svg"
   inkscape:version="1.1.2 (0a00cf5339, 2022-02-04)"
   xmlns:inkscape="http://www.inkscape.org/namespaces/inkscape"
   xmlns:sodipodi="http://sodipodi.sourceforge.net/DTD/sodipodi-0.dtd"
   xmlns="http://www.w3.org/2000/svg"
   xmlns:svg="http://www.w3.org/2000/svg">
  <defs
     id="defs8" />
  <sodipodi:namedview
     id="namedview6"
     pagecolor="#505050"
     bordercolor="#ffffff"
     borderopacity="1"
     inkscape:pageshadow="0"
     inkscape:pageopacity="0"
     inkscape:pagecheckerboard="1"
     showgrid="false"
     inkscape:zoom="7.4895835"
     inkscape:cx="57.212794"
     inkscape:cy="38.586925"
     inkscape:window-width="2560"
     inkscape:window-height="1403"
     inkscape:window-x="1440"
     inkscape:window-y="503"
     inkscape:window-maximized="1"
     inkscape:current-layer="svg4" />
  <path
     d="M24 35.25q1.2 0 1.975-.75.775-.75.775-1.95t-.775-2q-.775-.8-1.975-.8-1.2 0-1.975.8-.775.8-.775 2t.775 1.95q.775.75 1.975.75Zm-2.2-8.85h4.7V12.9h-4.7ZM24 45.25q-4.4 0-8.275-1.65T8.95 39.05q-2.9-2.9-4.55-6.75T2.75 24q0-4.45 1.65-8.325 1.65-3.875 4.55-6.75t6.75-4.55Q19.55 2.7 24 2.7q4.45 0 8.325 1.675 3.875 1.675 6.75 4.55t4.55 6.75Q45.3 19.55 45.3 24q0 4.45-1.675 8.3-1.675 3.85-4.55 6.725-2.875 2.875-6.75 4.55Q28.45 45.25 24 45.25Z"
     id="path2" />
  <path
     style="fill:#ef1a1a;stroke-width:0.0667594;fill-opacity:1"
     d="M 22.164117,45.153581 C 19.358669,44.860489 17.160325,44.258449 14.861546,43.153696 11.400664,41.490457 8.6007815,39.102016 6.4950906,36.01669 4.4706521,33.050417 3.3315573,29.987268 2.8953437,26.336579 2.7856887,25.418872 2.7840504,22.569126 2.8926572,21.663421 3.374191,17.647764 4.6799551,14.358942 7.0672801,11.148818 7.8575223,10.086216 9.6475821,8.2497786 10.709361,7.4123766 14.836316,4.1575353 19.498707,2.6033273 24.667594,2.7593991 c 2.017161,0.060907 3.660047,0.3170906 5.405723,0.8429418 6.591613,1.9855967 11.838391,7.0281961 14.061208,13.5140161 0.778314,2.270996 1.107662,4.317751 1.107662,6.883643 0,3.423588 -0.637598,6.24033 -2.085891,9.214924 -3.094408,6.355488 -9.069328,10.738808 -16.070353,11.789533 -0.719464,0.107978 -1.317751,0.141757 -2.785526,0.157268 -1.028094,0.01087 -1.98943,0.0072 -2.1363,-0.0081 z M 25.268619,35.0087 c 1.381907,-0.651287 1.913329,-2.340811 1.198443,-3.810149 -0.229643,-0.471994 -0.755524,-0.992599 -1.226094,-1.213794 -1.08098,-0.50812 -2.457908,-0.267006 -3.248407,0.568831 -1.026658,1.085539 -1.034171,2.911647 -0.01617,3.929649 0.58118,0.581181 1.117949,0.769956 2.123746,0.7469 0.661338,-0.01516 0.777518,-0.03718 1.16848,-0.221437 z M 26.536857,19.66064 V 12.884562 H 24.166898 21.79694 v 6.776078 6.776078 h 2.369958 2.369959 z"
     id="path121" />
</svg>
