<?xml version="1.0" encoding="UTF-8" standalone="no"?>
<svg
   height="48"
   width="48"
   version="1.1"
   id="svg4"
   sodipodi:docname="approve-alt.svg"
   inkscape:version="1.1.2 (0a00cf5339, 2022-02-04)"
   xmlns:inkscape="http://www.inkscape.org/namespaces/inkscape"
   xmlns:sodipodi="http://sodipodi.sourceforge.net/DTD/sodipodi-0.dtd"
   xmlns="http://www.w3.org/2000/svg"
   xmlns:svg="http://www.w3.org/2000/svg">
  <defs
     id="defs8" />
  <sodipodi:namedview
     id="namedview6"
     pagecolor="#505050"
     bordercolor="#ffffff"
     borderopacity="1"
     inkscape:pageshadow="0"
     inkscape:pageopacity="0"
     inkscape:pagecheckerboard="1"
     showgrid="false"
     inkscape:zoom="3.7447918"
     inkscape:cx="129.37969"
     inkscape:cy="-9.8803892"
     inkscape:window-width="2560"
     inkscape:window-height="1403"
     inkscape:window-x="1440"
     inkscape:window-y="503"
     inkscape:window-maximized="1"
     inkscape:current-layer="svg4" />
  <path
     d="M18 34.6h11.5q.7 0 1.175-.3.475-.3.825-.9l3.9-9q.1-.25.175-.75.075-.5.075-.75v-1.2q0-.7-.325-1.025Q35 20.35 34.3 20.35H23.6L25 13.9q.1-.6-.05-1.15-.15-.55-.6-1l-.7-.75-8.05 8.7-.4.8q-.2.4-.2.85V31.6q0 1.15.9 2.075.9.925 2.1.925Zm6 10.65q-4.4 0-8.275-1.65T8.95 39.05q-2.9-2.9-4.55-6.775Q2.75 28.4 2.75 24q0-4.45 1.65-8.325 1.65-3.875 4.55-6.75t6.775-4.55Q19.6 2.7 24 2.7q4.45 0 8.325 1.675 3.875 1.675 6.75 4.55t4.55 6.75Q45.3 19.55 45.3 24q0 4.4-1.675 8.275t-4.55 6.775q-2.875 2.9-6.75 4.55T24 45.25Z"
     id="path2" />
  <path
     style="fill:#0066ff;stroke-width:0.0667594;fill-opacity:1"
     d="M 22.164117,45.149672 C 16.408976,44.632666 11.102556,41.822811 7.5171477,37.393807 4.9981491,34.282125 3.4269967,30.575392 2.9269873,26.564496 2.7685533,25.293596 2.7694891,22.64869 2.9288159,21.396384 3.5429416,16.569362 5.5272094,12.467907 8.8757184,9.1042155 10.097624,7.87677 10.909931,7.1989397 12.161826,6.362122 c 2.819562,-1.8847106 5.772351,-3.0053684 9.134419,-3.4667428 1.216204,-0.1668989 4.2536,-0.1686254 5.44089,-0.00309 2.410003,0.3360041 4.459313,0.95327 6.559179,1.9756685 5.095072,2.4807277 9.004999,6.8993873 10.838211,12.2484023 0.782299,2.282625 1.108645,4.321332 1.107241,6.917023 -8.47e-4,1.567848 -0.112241,2.76668 -0.384597,4.139082 -0.574336,2.894086 -1.889928,5.874559 -3.670372,8.315231 -3.578563,4.905569 -8.896195,7.984185 -14.86501,8.606023 -0.890815,0.09281 -3.375255,0.126243 -4.15767,0.05596 z m 8.252956,-10.677616 c 0.357307,-0.165213 0.799729,-0.545598 0.986844,-0.848466 0.07153,-0.115784 1.021819,-2.268374 2.111748,-4.783534 1.735094,-4.003969 1.9932,-4.643631 2.074203,-5.140473 0.110523,-0.6779 0.121773,-2.196969 0.01901,-2.567104 -0.107336,-0.386613 -0.423928,-0.670976 -0.848364,-0.762001 -0.246117,-0.05278 -1.977344,-0.07562 -5.731813,-0.07562 h -5.37919 l 0.03769,-0.183588 c 0.02073,-0.100974 0.342208,-1.580529 0.714399,-3.2879 0.592395,-2.717517 0.67321,-3.163976 0.648609,-3.58316 -0.03802,-0.647758 -0.256069,-1.071477 -0.900641,-1.750126 l -0.516745,-0.544063 -4.038943,4.372378 c -3.824993,4.140766 -4.053088,4.401639 -4.30598,4.924766 l -0.267038,0.552388 v 5.774687 5.774688 l 0.227126,0.467315 c 0.270632,0.556833 0.94945,1.263715 1.442967,1.502623 0.67742,0.327934 0.602281,0.324682 7.208906,0.311897 6.188341,-0.01198 6.209631,-0.01248 6.517212,-0.154703 z"
     id="path84" />
</svg>
