<?xml version="1.0" encoding="UTF-8" standalone="no"?>
<svg
   height="48"
   width="48"
   version="1.1"
   id="svg4"
   sodipodi:docname="approved-alt.svg"
   inkscape:version="1.1.2 (0a00cf5339, 2022-02-04)"
   xmlns:inkscape="http://www.inkscape.org/namespaces/inkscape"
   xmlns:sodipodi="http://sodipodi.sourceforge.net/DTD/sodipodi-0.dtd"
   xmlns="http://www.w3.org/2000/svg"
   xmlns:svg="http://www.w3.org/2000/svg">
  <defs
     id="defs8" />
  <sodipodi:namedview
     id="namedview6"
     pagecolor="#505050"
     bordercolor="#ffffff"
     borderopacity="1"
     inkscape:pageshadow="0"
     inkscape:pageopacity="0"
     inkscape:pagecheckerboard="1"
     showgrid="false"
     inkscape:zoom="3.7447918"
     inkscape:cx="135.52155"
     inkscape:cy="61.151598"
     inkscape:window-width="2560"
     inkscape:window-height="1403"
     inkscape:window-x="1440"
     inkscape:window-y="503"
     inkscape:window-maximized="1"
     inkscape:current-layer="svg4" />
  <path
     d="m16.8 46.6-4.1-7-8.15-1.7.95-7.9-5.15-6 5.15-5.95-.95-7.95 8.15-1.65 4.1-7.05L24 4.7l7.25-3.3 4.1 7.05 8.1 1.65-.95 7.95L47.65 24l-5.15 6 .95 7.9-8.1 1.7-4.1 7L24 43.3Zm5.05-15.55L33.6 19.4l-2.7-2.45-9.05 9-4.7-5-2.75 2.7Z"
     id="path2" />
  <path
     style="fill:#0066ff;stroke-width:0.0667594;fill-opacity:1"
     d="M 14.783715,43.076495 C 13.67298,41.176356 12.7544,39.609852 12.742426,39.595376 c -0.01197,-0.01448 -1.84748,-0.407863 -4.0789,-0.874191 l -4.0571282,-0.847869 0.016121,-0.19396 C 4.6313861,37.572678 4.8357955,35.837089 5.0767625,33.822492 5.3177294,31.807894 5.5057459,30.104001 5.494577,30.036063 5.483408,29.968124 4.3477051,28.599603 2.9707928,26.994904 1.5938804,25.390204 0.45764549,24.053404 0.44582633,24.024236 0.43400716,23.995068 1.5738726,22.643504 2.9788606,21.020761 L 5.5333842,18.070319 5.0790714,14.225702 C 4.8291993,12.111162 4.6206273,10.324016 4.6155781,10.254265 4.6072496,10.139214 4.9803154,10.051587 8.6359617,9.3099391 10.965472,8.8373341 12.700896,8.454274 12.749363,8.4019881 c 0.04611,-0.049744 0.962774,-1.6075514 2.03703,-3.4617934 1.074256,-1.854242 1.975782,-3.3961176 2.003393,-3.4263903 0.02761,-0.030273 1.66113,0.6829974 3.630047,1.5850445 l 3.579847,1.6400857 3.609399,-1.6420084 c 1.985169,-0.9031046 3.620536,-1.6308713 3.634148,-1.6172592 0.01361,0.013612 0.932089,1.5863948 2.041059,3.4950724 1.108969,1.9086778 2.021961,3.4775806 2.028871,3.4864516 0.0069,0.00887 1.827836,0.3871944 4.046504,0.8407197 3.663825,0.7489353 4.033099,0.8362713 4.024761,0.9518833 -0.005,0.07001 -0.213621,1.857368 -0.463494,3.971908 l -0.454312,3.844617 2.554523,2.950442 c 1.404988,1.622743 2.544854,2.974307 2.533034,3.003475 -0.01182,0.02917 -1.148053,1.365968 -2.524966,2.970668 -1.376912,1.604699 -2.512615,2.97322 -2.523784,3.041159 -0.01117,0.06794 0.176847,1.771831 0.417815,3.786429 0.240966,2.014597 0.445376,3.750809 0.454243,3.858248 l 0.01612,0.195344 -4.023378,0.846115 c -2.212859,0.465364 -4.03528,0.858127 -4.049826,0.872807 -0.01454,0.01468 -0.932553,1.573578 -2.040017,3.464217 -1.107463,1.890639 -2.024445,3.448401 -2.037736,3.461693 -0.01329,0.01329 -1.648397,-0.714738 -3.633566,-1.617842 l -3.609399,-1.642009 -3.568995,1.635114 c -1.962948,0.899313 -3.58215,1.635114 -3.598225,1.635114 -0.01608,0 -0.938011,-1.554659 -2.048744,-3.454798 z M 27.742851,25.261983 c 3.210417,-3.179622 5.846325,-5.805843 5.857574,-5.836046 0.02025,-0.05438 -2.533862,-2.415009 -2.659492,-2.458018 -0.0359,-0.01229 -2.097412,1.988333 -4.581139,4.44583 l -4.515867,4.468177 -2.168688,-2.309531 c -1.192778,-1.270241 -2.2473,-2.389873 -2.343382,-2.48807 l -0.174694,-0.17854 -1.401947,1.360197 -1.401948,1.360196 3.704921,3.708469 c 2.037706,2.039657 3.73701,3.708468 3.776231,3.708468 0.03922,0 2.698015,-2.601509 5.908431,-5.781132 z"
     id="path65" />
</svg>
