<?xml version="1.0" encoding="utf-8"?>
<!-- Generator: Adobe Illustrator 27.0.0, SVG Export Plug-In . SVG Version: 6.00 Build 0)  -->
<svg version="1.1" id="Layer_1" xmlns="http://www.w3.org/2000/svg" xmlns:xlink="http://www.w3.org/1999/xlink" x="0px" y="0px"
	 viewBox="0 0 208.9 197.9" style="enable-background:new 0 0 208.9 197.9;" xml:space="preserve">
<style type="text/css">
	.st0{fill:#282E36;}
	.st1{fill:#DDAF8C;}
	.st2{fill:#F8F2EE;}
	.st3{fill:#F9F2EE;}
	.st4{fill:#F9F3EF;}
	.st5{fill:#272D35;}
	.st6{fill:#262C34;}
	.st7{fill:#F7F1ED;}
	.st8{fill:#FF9900;stroke:#272D35;stroke-width:2;stroke-miterlimit:10;}
</style>
<g>
	<path class="st0" d="M62.2,37c15.3-3.8,30.6-3.9,46,0c1.2-2.9,2.4-6.1,3.8-9.1c3.5-8,8.8-14.8,14.5-21.3c1.8-2.1,3.8-3.9,6.1-5.3
		c3.1-1.9,5-1.9,7.5,0.7s4.9,5.3,6.8,8.4c3.4,5.4,6.5,11.1,9.5,16.8c3.2,6.2,4.5,13,5.7,19.9c1.3,7.2,1,14.5,0.1,21.7
		c-0.2,1.5-0.3,3-0.6,4.4c-0.4,1.7-0.9,3.4-1.4,5.4c3.7,9.3,6.5,19.2,8.4,29.4c0.5,2.9,1,5.8,1.4,8.6c0.8,5.8,0.6,11.6-0.4,17.4
		c-1.6,9.9-7.1,17.6-14.3,24.2c-4.9,4.4-10.6,7.5-16.7,10c-7.2,2.9-14.5,5.6-22.2,6.7c-5.5,0.8-11,1.2-16.5,1.6
		c-4.4,0.3-8.9,0.5-13.3,0.6c-4.4,0-8.8-0.1-13.2-0.4c-6.1-0.4-12.1-0.8-18.2-1.6c-3.5-0.4-6.9-1.3-10.3-2.3c-6.9-2-13.6-4.3-20-7.8
		c-8.3-4.5-15-10.6-19.8-18.9C0.9,139-0.2,131.4,0,123.5c0.5-14.8,4.3-28.9,9.3-42.7c0.6-1.6,0.8-2.8,0.2-4.5
		c-0.9-2.6-1-5.4-1.4-8.1c-1.8-11.6-0.4-22.9,3.2-34c1.4-4.3,3.4-8.4,5.5-12.3c3-5.8,6.2-11.6,10.5-16.6c1.2-1.4,2.4-2.7,3.8-3.8
		c1.7-1.5,3.7-1.9,5.6-0.6c1.9,1.2,3.9,2.4,5.4,4c5.1,5.3,9.8,11,13.4,17.5c1.6,2.9,2.9,6,4.3,9.1C60.7,33.2,61.5,35.2,62.2,37z
		 M101.1,39.8c-0.2,0-0.5,0-0.7,0c-5.3-0.5-10.5-1.3-15.8-1.3c-5.1,0-10.1,0.9-15.2,1.4c-0.4,0-0.9,0-1.3,0.1
		c-2.2,0.4-4.4,0.7-6.6,1.1c-1.6,0.3-2.7-0.4-3.4-1.8c-1.1-2.2-2.3-4.5-3.4-6.7c-1-2-1.8-4-2.9-5.9c-3.1-5.9-7.3-11.1-11.5-16.2
		c-2-2.5-4.3-4.8-6.6-7.3c-1.4,1.6-2.6,3-3.8,4.5c-4.8,6.4-8.3,13.6-11.5,20.8c-3.9,9-5.6,18.5-5.9,28.2c-0.2,6,0.9,11.9,1.8,17.7
		c0.1,0.9,0.2,1.9,0.1,2.8c-0.2,1.3-0.8,2.6-1.1,3.9c-2.4,8.7-4.5,17.5-5.9,26.4c-1,6.7-2.5,13.3-1.7,20.1c0.5,4.3,0.9,8.6,3.2,12.5
		c0.8,1.4,1.6,2.8,2.4,4.2c2,3.6,4.7,6.6,7.9,9.3c1.5,1.3,3.3,2.4,4.9,3.6c0.3,0.2,0.5,0.5,0.9,0.6c2.9,1.5,5.7,3.2,8.6,4.5
		c8.3,3.6,16.8,6.3,25.8,7.4c9.7,1.2,19.4,2.1,29.1,1.8c7.4-0.3,14.8-1.1,22.2-1.7c9.5-0.8,18.4-3.8,27.1-7.7c3.1-1.4,6-3.2,8.9-4.8
		c0.2-0.1,0.5-0.2,0.6-0.3c4.6-3.1,8.4-6.8,11.5-11.4c5.1-7.6,7.1-16,6.1-25.1c-0.6-5.7-1.4-11.4-2.5-17c-1.5-7.5-3.4-15-5.2-22.4
		c-0.2-0.9-0.1-2-0.6-2.7c-0.9-1.3-0.7-2.6-0.5-3.9c0.8-5.5,1.9-11,1.9-16.7c0-5.4-0.8-10.8-1.9-16C153.5,28.9,147.5,17.6,140,7
		c-0.9-1.3-2.1-2.5-3.2-3.7c-6.2,5.8-11.3,12.3-15.7,19.3c-3.1,4.9-5.5,10.3-8.1,15.5c-1.5,3-2.1,3.4-5.4,2.9
		C105.5,40.5,103.3,40.2,101.1,39.8z"/>
	<path class="st1" d="M23.9,157.1c-1.6-1.2-3.4-2.3-4.9-3.6c-3.1-2.6-5.9-5.7-7.9-9.3c-0.8-1.4-1.6-2.8-2.4-4.2
		c-2.2-3.9-2.7-8.2-3.2-12.5c-0.7-6.8,0.7-13.5,1.7-20.1c1.4-8.9,3.6-17.7,5.9-26.4c0.3-1.3,0.9-2.5,1.1-3.9
		c0.2-0.9,0.1-1.9-0.1-2.8c-0.9-5.9-2-11.7-1.8-17.7c0.4-9.8,2-19.2,5.9-28.2c3.2-7.3,6.7-14.4,11.5-20.8c1.1-1.5,2.4-2.9,3.8-4.5
		c2.3,2.5,4.6,4.8,6.6,7.3c4.2,5.2,8.4,10.3,11.5,16.2c1,1.9,1.9,4,2.9,5.9c1.1,2.3,2.2,4.5,3.4,6.7c0.7,1.4,1.8,2.1,3.4,1.8
		c2.2-0.4,4.4-0.7,6.6-1.1c0.4-0.1,0.9-0.1,1.3-0.1c0.6,2.6,1.4,5.1,1.9,7.7c1.2,5.9,2.1,11.9,3.3,17.9c1.3,6.7,2.5,13.5,2.7,20.4
		c0.1,3.5-0.1,7-0.5,10.5c-0.5,4.2-1.3,8.3-2,12.5c-0.4,1.9-1,3.8-1.5,5.8l0,0c-0.1,0.2-0.2,0.3-0.3,0.5l0,0c0,0.1-0.1,0.2-0.1,0.2
		c-0.2,0.4-0.4,0.8-0.5,1.2c-0.1,0.2-0.2,0.5-0.4,0.7l0,0c-0.9,1.4-1.8,2.8-2.7,4.3c-1.9,3-3.9,6-6.7,8.2c-0.6,0.5-1.1,1.1-1.6,1.7
		c-2.1-0.3-3.1,0.4-3.5,2.6c-0.3,0.1-0.5,0.2-0.8,0.3c-3.7,1.8-7.4,3.7-11.2,5.5c-3.9,1.8-8.1,3.2-11.9,5.3
		C28.9,147.7,25,151.4,23.9,157.1z M21.9,59.1c0.3,1.8,0.5,3.7,1,5.5c0.7,2.5,3.2,3.4,5.4,2.1c1.1-0.6,2.2-1.3,3.2-2.1
		c3.8-3,7.5-6.1,11.3-9c4.1-3.1,5.9-7.2,5.9-12.2c0.1-4.5-0.7-8.9-2.3-13.1c-1.6-4.3-4.4-7.8-7.5-11c-1.5-1.5-4-1.1-5,0.8
		c-0.6,1-1.1,2.2-1.7,3.2c-3.7,6.2-6.3,12.8-7.9,19.8C23.1,48.4,22.2,53.7,21.9,59.1z M59.2,104.1c0-4.4-0.6-7.6-2.3-10.5
		c-3-5.1-8.6-5.2-12-0.4c-1.4,2-2.1,4.4-2.5,6.8c-0.6,4.2-0.4,8.4,1.6,12.3c0.8,1.6,1.9,3,3.6,3.7c3.2,1.4,6.5,0.4,8.7-2.5
		C58.4,110.3,59.1,106.7,59.2,104.1z"/>
	<path class="st1" d="M101.1,39.8c2.2,0.3,4.4,0.7,6.6,1c3.3,0.5,3.9,0.2,5.4-2.9c2.6-5.2,5-10.6,8.1-15.5c4.4-7,9.4-13.5,15.7-19.3
		c1.1,1.2,2.3,2.4,3.2,3.7c7.5,10.6,13.5,21.9,16.1,34.8c1.1,5.3,1.9,10.6,1.9,16c0,5.6-1.1,11.1-1.9,16.7c-0.2,1.4-0.4,2.6,0.5,3.9
		c0.5,0.7,0.4,1.8,0.6,2.7c1.7,7.5,3.7,14.9,5.2,22.4c1.1,5.6,1.9,11.3,2.5,17c1,9-1,17.4-6.1,25.1c-3.1,4.6-6.9,8.3-11.5,11.4
		c-0.2,0.1-0.4,0.2-0.6,0.3c-0.4-3.1-2.2-5.5-4.2-7.8c-3.6-3.9-8.1-6.2-13-8c-5.3-2-10.6-4-15.4-7.1c-0.3-0.2-0.6-0.3-0.9-0.4
		c-0.5-2.2-1.5-2.9-3.5-2.6c-0.1-0.2-0.2-0.5-0.4-0.6c-3.4-2.6-6-5.9-8.1-9.6c-0.9-1.6-2-3.2-2.9-4.7c-0.2-0.4-0.4-0.8-0.6-1.2
		c0-0.3,0-0.5-0.1-0.8c-2.8-7.3-3.7-14.9-4.2-22.6c-0.2-3.4,0.1-6.9,0.2-10.3c0.1-1.8,0.2-3.7,0.5-5.5c1.5-8.5,3-16.9,4.6-25.4
		C99.2,47.1,100.2,43.5,101.1,39.8z M148.6,58.8c-0.6-4.1-1.3-8.5-2-12.9c-1.5-9.3-5.4-17.7-10.1-25.8c-1.1-1.8-3.5-2.2-5-0.7
		c-2.7,2.7-5.2,5.6-6.7,9.1c-2.4,5.4-3.5,11-2.9,16.9c0.4,4.1,2.2,7.3,5.3,9.9c2.1,1.8,4.2,3.6,6.4,5.2c2.7,2.1,5.5,4.2,8.3,6.1
		c2.4,1.6,5,0.6,5.8-2.1C148.1,62.8,148.3,61,148.6,58.8z M111.3,104.1c0,2.5,0.7,5.9,2.7,8.9c3.4,5.1,9.6,4.8,12.5-0.5
		c1.1-2.1,1.7-4.4,1.9-6.8c0.3-4.4-0.2-8.7-2.8-12.5c-1.3-2-3.1-3.3-5.6-3.5c-3-0.1-4.9,1.5-6.4,3.9
		C111.8,96.5,111.3,99.7,111.3,104.1z"/>
	<path class="st2" d="M113,133.9c0.3,0.1,0.6,0.2,0.9,0.4c4.8,3.1,10.1,5.2,15.4,7.1c4.9,1.8,9.4,4.1,13,8c2,2.2,3.8,4.6,4.2,7.8
		c-3,1.6-5.9,3.4-8.9,4.8c-8.6,3.9-17.6,6.9-27.1,7.7c-7.4,0.6-14.8,1.4-22.2,1.7c-9.8,0.4-19.5-0.6-29.1-1.8
		c-9-1.1-17.5-3.8-25.8-7.4c-3-1.3-5.8-2.9-8.6-4.5c-0.3-0.2-0.6-0.4-0.9-0.6c1.1-5.7,5-9.4,9.7-12.1c3.7-2.2,7.9-3.5,11.9-5.3
		c3.8-1.7,7.4-3.6,11.2-5.5c0.2-0.1,0.5-0.2,0.8-0.3c0.3,8.1,6.4,12.7,12.7,13.1c4.6,0.3,8.8-1.6,12.4-4.7c1-0.8,1.8-1.8,2.8-2.9
		c1,1.1,1.8,2.1,2.8,2.9c3.5,3.1,7.7,4.9,12.4,4.7C106.6,146.6,112.7,142,113,133.9z"/>
	<path class="st3" d="M101.1,39.8c-0.9,3.6-1.8,7.3-2.5,10.9C97,59.1,95.5,67.6,94,76.1c-0.3,1.8-0.4,3.6-0.5,5.5
		c-0.1,3.4-0.5,6.9-0.2,10.3c0.5,7.7,1.5,15.3,4.2,22.6c0.1,0.2,0,0.5,0.1,0.8c-1.1-1.6-2.7-2.7-4.6-2.9c-3-0.4-5.9-0.8-8.9-0.8
		c-3.7,0-7.5,0.1-10.5,2.9h-0.2c0.5-1.9,1.2-3.8,1.5-5.8c0.8-4.1,1.6-8.3,2-12.5c0.4-3.5,0.5-7,0.5-10.5c-0.1-6.9-1.3-13.6-2.7-20.4
		c-1.2-5.9-2.1-11.9-3.3-17.9c-0.5-2.6-1.3-5.1-1.9-7.7c5.1-0.5,10.1-1.4,15.2-1.4c5.3,0,10.5,0.9,15.8,1.3
		C100.6,39.8,100.8,39.8,101.1,39.8z"/>
	<path class="st4" d="M21.9,59.1c0.4-5.4,1.3-10.7,2.5-16c1.6-7,4.2-13.6,7.9-19.8c0.6-1,1.1-2.2,1.7-3.2c1.1-1.8,3.6-2.3,5-0.8
		c3.1,3.2,5.9,6.7,7.5,11c1.6,4.2,2.4,8.6,2.3,13.1c-0.1,5-1.9,9.1-5.9,12.2c-3.8,2.9-7.5,6-11.3,9c-1,0.8-2.1,1.5-3.2,2.1
		c-2.3,1.3-4.7,0.4-5.4-2.1C22.3,62.8,22.2,60.9,21.9,59.1z"/>
	<path class="st5" d="M73.2,114.5c0.1,0,0.2,0,0.2,0c3-2.8,6.8-2.9,10.5-2.9c3,0,5.9,0.4,8.9,0.8c1.9,0.2,3.4,1.3,4.6,2.9
		c0.2,0.4,0.4,0.8,0.6,1.2c0.4,2.1,0,4-1.2,5.8c-2.1,3.1-4.7,5.6-7.7,7.8c-0.3,0.2-0.8,0.8-0.7,1.1c0.3,1.3,0.6,2.7,1.3,3.8
		c0.8,1.2,2,2.2,3.2,3.1c2.2,1.5,4.6,2.9,7.4,2.5c3.2-0.4,5.6-1.9,6.5-5.3c0.4-1.6,1.1-3,2.6-3.8c2.1-0.3,3.1,0.4,3.5,2.6
		c-0.3,8.1-6.4,12.7-12.7,13.1c-4.6,0.3-8.8-1.6-12.4-4.7c-1-0.8-1.8-1.8-2.8-2.9c-1,1.1-1.8,2.1-2.8,2.9c-3.5,3.1-7.7,4.9-12.4,4.7
		c-6.3-0.4-12.3-5-12.7-13.1c0.5-2.2,1.5-2.9,3.5-2.6c1.7,0.8,2.3,2.4,2.7,4c0.6,2.4,2.2,3.7,4.4,4.7c3,1.3,5.7,0.2,8.2-1.3
		c2.6-1.6,5.1-3.3,5.7-6.7c0.2-1,0-1.5-0.8-2.1c-2.9-2-5.4-4.5-7.4-7.4c-1.1-1.6-1.9-3.3-1.7-5.3l0,0c0.1-0.2,0.2-0.5,0.4-0.7
		c0.2-0.4,0.4-0.8,0.5-1.2c0-0.1,0.1-0.2,0.1-0.2l0,0C73.1,114.8,73.2,114.6,73.2,114.5L73.2,114.5z"/>
	<path class="st6" d="M59.2,104.1c-0.1,2.6-0.7,6.2-3,9.4c-2.2,3-5.5,3.9-8.7,2.5c-1.7-0.7-2.8-2.1-3.6-3.7c-1.9-3.9-2.2-8-1.6-12.3
		c0.4-2.4,1.1-4.7,2.5-6.8c3.4-4.8,9-4.6,12,0.4C58.6,96.5,59.1,99.7,59.2,104.1z"/>
	<path class="st7" d="M72,117.1c-0.2,2,0.6,3.7,1.7,5.3c2,2.9,4.5,5.4,7.4,7.4c0.8,0.6,1,1.2,0.8,2.1c-0.6,3.4-3.1,5.1-5.7,6.7
		c-2.4,1.5-5.2,2.5-8.2,1.3c-2.2-0.9-3.8-2.3-4.4-4.7c-0.4-1.6-1.1-3.2-2.7-4c0.5-0.6,1-1.2,1.6-1.7c2.8-2.2,4.8-5.2,6.7-8.2
		C70.2,120,71.1,118.5,72,117.1z"/>
	<path class="st7" d="M72.4,116.4c-0.1,0.2-0.2,0.5-0.4,0.7C72.1,116.9,72.3,116.6,72.4,116.4z"/>
	<path class="st3" d="M73.2,114.5c-0.1,0.2-0.2,0.3-0.3,0.5C73.1,114.8,73.2,114.6,73.2,114.5z"/>
	<path class="st3" d="M73,115c0,0.1-0.1,0.2-0.1,0.2C72.9,115.1,73,115,73,115z"/>
	<path class="st4" d="M148.6,58.8c-0.4,2.2-0.5,4-1,5.7c-0.7,2.7-3.4,3.7-5.8,2.1c-2.8-1.9-5.6-4-8.3-6.1c-2.2-1.7-4.3-3.5-6.4-5.2
		c-3.1-2.6-5-5.8-5.3-9.9c-0.5-5.9,0.5-11.5,2.9-16.9c1.6-3.5,4-6.4,6.7-9.1c1.5-1.5,4-1.1,5,0.7c4.7,8.1,8.6,16.5,10.1,25.8
		C147.4,50.3,148,54.7,148.6,58.8z"/>
	<path class="st6" d="M111.3,104.1c0-4.4,0.6-7.6,2.3-10.4c1.5-2.4,3.4-4,6.4-3.9c2.5,0.1,4.3,1.5,5.6,3.5c2.6,3.8,3.1,8.1,2.8,12.5
		c-0.2,2.4-0.7,4.7-1.9,6.8c-2.9,5.3-9.1,5.6-12.5,0.5C111.9,110,111.3,106.5,111.3,104.1z"/>
	<path class="st7" d="M109.5,131.3c-1.6,0.8-2.3,2.3-2.6,3.8c-0.8,3.4-3.3,4.9-6.5,5.3c-2.8,0.4-5.2-1-7.4-2.5
		c-1.2-0.8-2.4-1.9-3.2-3.1c-0.7-1.1-1-2.5-1.3-3.8c-0.1-0.3,0.4-0.8,0.7-1.1c3-2.2,5.6-4.7,7.7-7.8c1.2-1.8,1.6-3.7,1.2-5.8
		c1,1.6,2,3.1,2.9,4.7c2.2,3.7,4.7,7,8.1,9.6C109.3,130.8,109.4,131.1,109.5,131.3z"/>
	<circle class="st8" cx="167.2" cy="158.2" r="36.7"/>
	<g>
		<path class="st0" d="M143.7,158.9c0-3.5,2.4-5.9,5.7-5.9c3.3,0,5.6,2.5,5.6,5.9s-2.2,5.9-5.7,5.9
			C146,164.8,143.7,162.3,143.7,158.9z"/>
		<path class="st0" d="M163.2,158.9c0-3.5,2.4-5.9,5.7-5.9c3.3,0,5.6,2.5,5.6,5.9s-2.2,5.9-5.7,5.9
			C165.5,164.8,163.2,162.3,163.2,158.9z"/>
		<path class="st0" d="M182.8,158.9c0-3.5,2.4-5.9,5.7-5.9c3.3,0,5.6,2.5,5.6,5.9s-2.2,5.9-5.7,5.9
			C185,164.8,182.8,162.3,182.8,158.9z"/>
	</g>
</g>
</svg>
