<?xml version="1.0" encoding="UTF-8" standalone="no"?>
<svg
   height="48"
   width="48"
   version="1.1"
   id="svg4"
   sodipodi:docname="assigned-alt.svg"
   inkscape:version="1.1.2 (0a00cf5339, 2022-02-04)"
   xmlns:inkscape="http://www.inkscape.org/namespaces/inkscape"
   xmlns:sodipodi="http://sodipodi.sourceforge.net/DTD/sodipodi-0.dtd"
   xmlns="http://www.w3.org/2000/svg"
   xmlns:svg="http://www.w3.org/2000/svg">
  <defs
     id="defs8" />
  <sodipodi:namedview
     id="namedview6"
     pagecolor="#505050"
     bordercolor="#ffffff"
     borderopacity="1"
     inkscape:pageshadow="0"
     inkscape:pageopacity="0"
     inkscape:pagecheckerboard="1"
     showgrid="false"
     inkscape:zoom="7.4895835"
     inkscape:cx="50.803893"
     inkscape:cy="40.723226"
     inkscape:window-width="2560"
     inkscape:window-height="1403"
     inkscape:window-x="1440"
     inkscape:window-y="503"
     inkscape:window-maximized="1"
     inkscape:current-layer="svg4" />
  <path
     d="M9.45 43.4q-1.95 0-3.325-1.4-1.375-1.4-1.375-3.35V9.55q0-1.95 1.375-3.325Q7.5 4.85 9.45 4.85h9q.55-1.8 2.05-2.9Q22 .85 24 .85t3.5 1.1q1.5 1.1 2.05 2.9h9q1.95 0 3.35 1.375Q43.3 7.6 43.3 9.55v29.1q0 1.95-1.4 3.35-1.4 1.4-3.35 1.4Zm5-9.75h13.1v-3h-13.1Zm0-8.05h19.1v-3h-19.1Zm0-8.05h19.1v-3h-19.1Zm9.55-9q.85 0 1.45-.6t.6-1.45q0-.8-.6-1.425T24 4.45q-.85 0-1.45.6t-.6 1.45q0 .85.6 1.45t1.45.6Z"
     id="path2" />
  <path
     style="fill:#ffcc00;stroke-width:0.0667594;fill-opacity:1"
     d="M 8.810222,43.324667 C 6.8743706,43.068463 5.217666,41.470286 4.8678374,39.521558 4.7340127,38.776084 4.7347851,9.4177402 4.8686488,8.6787204 5.1850853,6.9317736 6.5317357,5.4991133 8.3319972,4.9941697 8.529047,4.9389005 10.07313,4.9044512 13.545677,4.8778501 l 4.933715,-0.037794 0.183692,-0.4535509 c 0.661331,-1.6328894 2.062373,-2.8483629 3.83483,-3.3269075 0.764291,-0.2063505 2.239881,-0.2063505 3.004172,0 1.772457,0.4785446 3.173499,1.6940181 3.83483,3.3269075 l 0.183692,0.4535509 4.933715,0.035716 c 5.302287,0.038384 5.139443,0.027745 5.985636,0.3910455 0.358397,0.1538728 0.963978,0.5588422 1.328209,0.8882128 0.626172,0.5662404 1.125015,1.3881242 1.369677,2.2566532 0.116856,0.4148281 0.122238,1.1056616 0.122238,15.6884564 v 15.25452 l -0.153939,0.531731 c -0.458007,1.582021 -1.6893,2.82595 -3.284644,3.318353 l -0.50022,0.154393 -15.054242,0.0094 c -8.279834,0.0052 -15.2354006,-0.01457 -15.456816,-0.04387 z M 27.58957,32.161335 27.60751,30.642559 h -6.610433 -6.610433 v 1.49096 c 0,0.820028 0.02017,1.511134 0.04483,1.535791 0.02466,0.02466 2.991278,0.03717 6.592489,0.02782 l 6.547658,-0.01702 z m 6.023782,-8.061196 V 22.564673 H 24 14.386648 v 1.535466 1.535466 H 24 33.613352 Z m -0.01544,-8.061196 -0.01794,-1.518776 H 24 14.420028 l -0.01794,1.518776 -0.01794,1.518776 H 24 33.615859 Z M 24.745737,8.4354272 c 0.402995,-0.1262867 0.881941,-0.5508965 1.109382,-0.9835207 0.156544,-0.2977698 0.179831,-0.4197849 0.179949,-0.9428662 1.33e-4,-0.4979486 -0.026,-0.6499346 -0.152485,-0.88757 C 25.647646,5.1800866 25.293918,4.8290354 24.87859,4.6250758 24.371831,4.3762166 23.672657,4.3663231 23.147475,4.6005803 c -0.459254,0.20485 -0.966906,0.755967 -1.119483,1.2153305 -0.15185,0.4571792 -0.108115,1.1842478 0.09508,1.5806996 0.511759,0.9984728 1.501015,1.3903097 2.622662,1.0388168 z"
     id="path84" />
</svg>
