<?xml version="1.0" encoding="UTF-8" standalone="no"?>
<svg
   height="48"
   width="48"
   version="1.1"
   id="svg4"
   sodipodi:docname="cancel-alt.svg"
   inkscape:version="1.1.2 (0a00cf5339, 2022-02-04)"
   xmlns:inkscape="http://www.inkscape.org/namespaces/inkscape"
   xmlns:sodipodi="http://sodipodi.sourceforge.net/DTD/sodipodi-0.dtd"
   xmlns="http://www.w3.org/2000/svg"
   xmlns:svg="http://www.w3.org/2000/svg">
  <defs
     id="defs8" />
  <sodipodi:namedview
     id="namedview6"
     pagecolor="#505050"
     bordercolor="#ffffff"
     borderopacity="1"
     inkscape:pageshadow="0"
     inkscape:pageopacity="0"
     inkscape:pagecheckerboard="1"
     showgrid="false"
     inkscape:zoom="3.7447918"
     inkscape:cx="149.40751"
     inkscape:cy="72.90125"
     inkscape:window-width="2560"
     inkscape:window-height="1403"
     inkscape:window-x="1440"
     inkscape:window-y="503"
     inkscape:window-maximized="1"
     inkscape:current-layer="svg4" />
  <path
     d="m16.9 33.6 7.1-7.1 7.1 7.1 2.5-2.5-7.1-7.1 7.1-7.1-2.5-2.5-7.1 7.1-7.1-7.1-2.5 2.5 7.1 7.1-7.1 7.1ZM24 45.25q-4.4 0-8.275-1.65T8.95 39.05q-2.9-2.9-4.55-6.775Q2.75 28.4 2.75 24q0-4.45 1.65-8.325 1.65-3.875 4.55-6.75t6.775-4.55Q19.6 2.7 24 2.7q4.45 0 8.325 1.675 3.875 1.675 6.75 4.55t4.55 6.75Q45.3 19.55 45.3 24q0 4.4-1.675 8.275t-4.55 6.775q-2.875 2.9-6.75 4.55T24 45.25Z"
     id="path2" />
  <path
     style="fill:#ef1a1a;stroke-width:0.0667594;fill-opacity:1"
     d="M 22.164117,45.149672 C 16.408976,44.632666 11.102556,41.822811 7.5171477,37.393807 4.9981491,34.282125 3.4269967,30.575392 2.9269873,26.564496 2.7916781,25.479095 2.7716129,22.661053 2.8920902,21.663421 3.3783562,17.636819 4.6799474,14.358952 7.0672801,11.148818 7.8529009,10.092431 9.6461688,8.2508215 10.69278,7.4255862 13.375297,5.3104657 16.466381,3.8439094 19.644082,3.1786659 21.205507,2.8517856 22.028637,2.7762941 24.03338,2.7761114 c 2.005625,-1.828e-4 2.730279,0.066699 4.370952,0.4034184 4.202298,0.8624469 8.370681,3.2421323 11.269824,6.4338221 3.135752,3.4521751 5.01659,7.6471771 5.492469,12.2503481 0.112253,1.085824 0.09428,3.434416 -0.03474,4.539638 -0.426086,3.649919 -1.784756,7.122928 -3.945086,10.084355 -3.578563,4.905569 -8.896195,7.984185 -14.86501,8.606023 -0.890815,0.09281 -3.375255,0.126243 -4.15767,0.05596 z m 5.391266,-15.05743 3.555383,3.554917 1.267536,-1.268854 1.267536,-1.268855 -3.554414,-3.55488 -3.554414,-3.55488 3.554492,-3.554492 3.554492,-3.554492 L 32.37838,15.621774 31.110766,14.352841 27.555383,17.907758 24,21.462675 l -3.555383,-3.554917 -3.555383,-3.554917 -1.267614,1.268933 -1.267614,1.268932 3.554492,3.554492 3.554492,3.554492 -3.554414,3.55488 -3.554414,3.55488 1.267536,1.268855 1.267536,1.268854 3.555383,-3.554917 L 24,26.537325 Z"
     id="path84" />
</svg>
