<?xml version="1.0" encoding="utf-8"?>
<!-- Generator: Adobe Illustrator 27.0.0, SVG Export Plug-In . SVG Version: 6.00 Build 0)  -->
<svg version="1.1" id="Layer_1" xmlns="http://www.w3.org/2000/svg" xmlns:xlink="http://www.w3.org/1999/xlink" x="0px" y="0px"
	 viewBox="0 0 170.4 177" style="enable-background:new 0 0 170.4 177;" xml:space="preserve">
<style type="text/css">
	.st0{fill:#282D35;}
	.st1{fill:#A51500;}
	.st2{fill:#FCD9D9;}
	.st3{fill:#262B33;}
	.st4{fill-rule:evenodd;clip-rule:evenodd;}
</style>
<g>
	<path class="st0" d="M62.2,37.1c15.4-3.9,30.6-3.9,46,0c0.9-2.1,1.8-4.4,2.7-6.7c1.8-4.6,4.2-9,7-13.1c3.1-4.4,6.5-8.6,10.2-12.5
		c1.6-1.7,3.5-2.9,5.5-4c2.1-1.2,4-0.8,5.8,0.7c2.4,1.9,4.3,4.3,6,6.8c4.9,7.3,9.5,14.8,12.6,23c2.8,7.3,4.3,15.1,4.8,22.9
		c0.4,6.8-0.6,13.4-1.4,20.1c-0.2,1.3-0.5,2.5-1.3,3.6c-0.3,0.3-0.2,0.6-0.1,1c3.9,9,6.3,18.5,8.2,28c0.6,3.3,1.2,6.5,1.6,9.8
		c0.9,5.8,0.5,11.7-0.3,17.5c-1.3,8.5-5.8,15.2-11.4,21.4c-5.4,5.9-12.3,9.8-19.7,12.8c-7.2,2.9-14.5,5.5-22.2,6.7
		c-5.4,0.8-10.9,1.4-16.3,1.6c-4.5,0.2-8.9,0.5-13.4,0.5c-4.4,0-8.7-0.2-13.1-0.4c-5.9-0.2-11.7-0.9-17.6-1.5
		c-4.8-0.5-9.4-1.9-14-3.3c-6-1.9-11.8-4-17.3-7c-8.2-4.5-14.7-10.5-19.5-18.7c-4-7.3-5.2-14.9-5-22.8c0.5-14.9,4.4-29.1,9.4-43
		c0.5-1.5,1-2.6,0.1-4.2c-1-1.7-0.8-3.8-1.1-5.7c-1.1-7.7-1.4-15.3-0.3-23c1.6-11.4,5.8-21.9,11.8-31.7c2.3-3.8,4.6-7.6,7.4-11
		c1.6-1.8,3.1-3.7,5.4-4.6C34-0.2,35-0.1,36.1,0.5c2,1,4,2.2,5.5,3.8C48.3,11.4,54.4,19,58.3,28C59.7,31,60.9,34.1,62.2,37.1z
		 M23.9,157.2c1.9,1.4,4.1,2.3,6.2,3.4c7.8,4,16.1,6.9,24.8,8.4c6.4,1.1,12.9,1.8,19.4,2.1c3.7,0.2,7.4,0.5,11.1,0.5
		c3.4,0,6.9-0.2,10.3-0.5c4.3-0.3,8.7-0.6,13-1.1c8-0.9,15.6-2.7,23.1-5.6c5.1-1.9,9.9-4.4,14.6-7.2c2.1-1.1,3.9-2.6,5.7-4.2
		c4.1-3.5,7-8,9.4-12.7c3-5.9,3.7-12.3,3.3-18.8c-0.4-6.2-1.5-12.3-2.6-18.4c-1.3-7.5-3.4-14.9-5.1-22.3c-0.4-1.9-1.6-3.7-1.2-5.8
		c0.3-1.7,0.4-3.5,0.8-5.2c1.2-6,1.5-12.1,0.9-18.2c-0.6-5.8-1.6-11.5-3.3-17c-2-6.4-5.1-12.2-8.2-18.1c-1.9-3.5-4-6.9-6.5-10
		c-0.9-1.1-1.7-2.3-2.9-3.2c-3.6,3.2-6.6,6.8-9.5,10.6c-3.7,4.8-7.2,9.6-9.9,15c-1.5,3.1-2.8,6.2-4.4,9.2c-1.5,2.9-2.1,3.3-5.3,2.8
		c-2.2-0.3-4.4-0.9-6.6-1c-1.4-0.2-2.7-0.5-4.1-0.6c-4.4-0.4-8.8-0.9-13.2-0.8c-2.5,0.1-4.9,0.3-7.4,0.5c-2.4,0.1-4.8,0.4-7.1,0.9
		c-0.5,0.1-1,0.1-1.4,0.2c-2.4,0.3-4.7,1-7.1,1.1c-1,0.1-1.8-0.3-2.3-1.2c-1.4-2.3-2.7-4.6-3.7-7.1c-1.9-4.6-4.3-8.9-7.1-12.9
		s-5.8-7.9-9-11.5c-1.6-1.8-3.4-3.3-5.2-5c-2,2-3.8,4.3-5.4,6.7c-3.8,5.6-6.7,11.6-9.5,17.8c-3.7,8.2-5.3,16.9-6,25.8
		c-0.6,7,0.5,13.9,1.8,20.8c0.2,0.9,0.4,2,0,2.8c-0.7,1.3-0.8,2.7-1.1,4.1c-2.2,8.2-4.3,16.4-5.6,24.7c-1.1,7.1-2.7,14.2-2,21.5
		c0.3,3.2,0.6,6.4,1.8,9.4c1.8,4.4,4.1,8.6,7.2,12.2C17.2,152.4,20.3,155.2,23.9,157.2z"/>
	<path class="st1" d="M101.1,39.9c2.2,0.1,4.4,0.7,6.6,1c3.3,0.5,3.9,0.1,5.3-2.8c1.5-3,2.9-6.1,4.4-9.2c2.6-5.4,6.2-10.2,9.9-15
		c2.9-3.7,5.9-7.3,9.5-10.6c1.2,0.9,2,2.1,2.9,3.2c2.5,3.1,4.7,6.5,6.5,10c3.1,5.9,6.2,11.7,8.2,18.1c1.7,5.5,2.7,11.3,3.3,17
		c0.6,6.1,0.4,12.2-0.9,18.2c-0.4,1.7-0.5,3.5-0.8,5.2c-0.4,2.1,0.8,3.9,1.2,5.8c1.8,7.4,3.8,14.8,5.1,22.3
		c1.1,6.1,2.2,12.2,2.6,18.4c0.4,6.5-0.3,12.9-3.3,18.8c-2.4,4.8-5.3,9.2-9.4,12.7c-1.8,1.5-3.6,3.1-5.7,4.2c-0.2-2-0.9-3.7-2.1-5.3
		c-3.3-4.7-7.8-7.8-13.1-9.8c-4.4-1.7-8.8-3.3-13-5.4c-5.4-2.7-10.2-6.2-14-10.8c-2.2-2.7-3.9-5.7-5.6-8.8c-0.3-0.7-0.6-1.5-0.9-2.2
		c-1.8-4.4-2.7-9-3.5-13.7c-1.4-8.4-1.4-16.8-0.2-25.2c1-7,2.4-13.9,3.7-20.9C98.6,50.1,99.3,44.9,101.1,39.9z M148.4,59.1
		c-0.1-1.3-0.2-2.5-0.3-3.8c-0.5-6.6-1.9-13-3.9-19.2c-1.8-5.7-4.8-10.9-7.6-16.1c-0.7-1.3-2.6-1.8-4-1.3c-0.6,0.2-1,0.6-1.5,1
		c-3.2,3.5-6,7.2-7.5,11.8c-1.3,3.9-1.9,7.9-1.8,12c0.1,4.6,1.5,8.5,5.2,11.5c3.2,2.6,6.4,5.3,9.7,7.9c1.7,1.4,3.5,2.6,5.4,3.7
		c2.4,1.4,4.9,0.4,5.7-2.3C148.1,62.7,148.4,61,148.4,59.1z"/>
	<path class="st1" d="M23.9,157.2c-3.6-2-6.6-4.8-9.4-8c-3.1-3.6-5.4-7.8-7.2-12.2c-1.2-3-1.5-6.2-1.8-9.4c-0.7-7.3,0.8-14.4,2-21.5
		c1.3-8.4,3.4-16.6,5.6-24.7c0.4-1.4,0.4-2.8,1.1-4.1c0.4-0.8,0.2-1.9,0-2.8c-1.2-6.9-2.4-13.8-1.8-20.8c0.8-8.9,2.3-17.6,6-25.8
		c2.8-6.1,5.7-12.2,9.5-17.8c1.6-2.4,3.4-4.7,5.4-6.7c1.8,1.7,3.7,3.2,5.2,5c3.2,3.7,6.1,7.6,9,11.5c2.9,4,5.2,8.3,7.1,12.9
		c1,2.5,2.3,4.8,3.7,7.1c0.5,0.9,1.3,1.2,2.3,1.2c2.4-0.1,4.7-0.8,7.1-1.1c0.5-0.1,0.9-0.1,1.4-0.2c0.3,0.9,0.6,1.8,0.8,2.8
		c1.6,6.1,2.6,12.4,3.7,18.7c1.1,6.4,2.6,12.8,3.1,19.4c0.8,9.5,0,18.9-2.2,28.2c-0.5,2.2-1.3,4.4-2,6.6c-0.1,0.2-0.2,0.3-0.2,0.5
		c-0.1,0.2-0.2,0.3-0.2,0.5c-0.2,0.4-0.4,0.7-0.7,1.2c-0.2,0.3-0.4,0.5-0.5,0.8c-3.5,6.8-8.5,12.1-15,16.1
		c-4.7,2.9-9.8,4.9-14.9,6.8c-4.8,1.8-9.3,4-12.9,7.8C26.1,151.5,24.1,153.9,23.9,157.2z M22.1,59.1c0,0.8-0.1,1.7,0,2.5
		s0.3,1.6,0.4,2.4c0.8,3.4,3.3,4.4,6.2,2.5c5.5-3.5,10.4-7.8,15.3-12c2.1-1.8,3.6-4,4.1-6.8c0.3-1.5,0.5-3,0.5-4.5
		c0.1-5.1-0.9-10-3.1-14.7c-1.6-3.5-4-6.4-6.7-9.1c-1.6-1.6-4.1-1.2-5.1,0.7c-1.9,3.8-4.1,7.4-5.8,11.3
		C24.3,40.3,22.6,49.6,22.1,59.1z"/>
	<path class="st2" d="M23.9,157.2c0.2-3.3,2.2-5.8,4.4-8.1c3.5-3.8,8.1-6,12.9-7.8c5.1-1.9,10.2-3.9,14.9-6.8
		c6.5-4,11.5-9.3,15-16.1c0.1-0.3,0.3-0.5,0.5-0.8c0.1,0.1,0.1,0.2,0.2,0.2c0,2.3,1.2,4.1,2.6,5.8c2.7,3.2,5.5,6.1,8.9,8.5
		c1.2,0.8,2.3,0.9,3.4,0.1c3.7-2.8,7.2-5.8,10-9.6c1.2-1.6,2-3.4,1.6-5.4c0.1,0,0.2,0,0.3,0c1.7,3,3.4,6.1,5.6,8.8
		c3.9,4.6,8.7,8.1,14,10.8c4.2,2.1,8.6,3.8,13,5.4c5.3,2,9.8,5.1,13.1,9.8c1.1,1.6,1.9,3.3,2.1,5.3c-4.7,2.8-9.5,5.2-14.6,7.2
		c-7.5,2.8-15.2,4.7-23.1,5.6c-4.3,0.5-8.7,0.8-13,1.1c-3.4,0.2-6.9,0.5-10.3,0.5c-3.7,0-7.4-0.3-11.1-0.5c-6.5-0.3-13-1-19.4-2.1
		c-8.7-1.5-16.9-4.3-24.8-8.4C28,159.6,25.8,158.6,23.9,157.2z"/>
	<path class="st2" d="M98.5,117.2c-0.1,0-0.2,0-0.3,0c-0.7-2.6-2.5-4.1-5-4.7c-4.8-1.2-9.5-1.1-14.3-0.4c-2.5,0.4-4.6,1.3-6.2,3.4
		l0,0c0.7-2.2,1.5-4.4,2-6.6c2.2-9.3,3-18.6,2.2-28.2c-0.6-6.5-2-12.9-3.1-19.4c-1.1-6.3-2.1-12.5-3.7-18.7
		c-0.2-0.9-0.6-1.8-0.8-2.8c2.3-0.5,4.7-0.7,7.1-0.9c2.5-0.1,4.9-0.4,7.4-0.5c4.4-0.1,8.8,0.4,13.2,0.8c1.4,0.1,2.8,0.4,4.1,0.6
		c-1.7,5-2.5,10.2-3.4,15.4C96.4,62.1,95,69.1,94,76.1c-1.2,8.4-1.2,16.8,0.2,25.2c0.8,4.7,1.7,9.3,3.5,13.7
		C97.9,115.7,98.2,116.4,98.5,117.2z"/>
	<path class="st2" d="M148.4,59.1c0,1.8-0.2,3.6-0.7,5.3c-0.8,2.7-3.2,3.7-5.7,2.3c-1.9-1.1-3.7-2.4-5.4-3.7
		c-3.2-2.6-6.4-5.3-9.7-7.9c-3.7-3-5.2-6.9-5.2-11.5c-0.1-4.1,0.5-8.1,1.8-12c1.5-4.6,4.4-8.3,7.5-11.8c0.4-0.5,0.9-0.8,1.5-1
		c1.4-0.6,3.3,0,4,1.3c2.8,5.2,5.8,10.4,7.6,16.1c2,6.3,3.4,12.6,3.9,19.2C148.2,56.6,148.3,57.9,148.4,59.1z"/>
	<path class="st2" d="M22.1,59.1c0.5-9.5,2.2-18.8,5.9-27.6c1.6-3.9,3.9-7.5,5.8-11.3c1-1.9,3.5-2.3,5.1-0.7
		c2.7,2.7,5.1,5.6,6.7,9.1c2.1,4.6,3.2,9.5,3.1,14.7c0,1.5-0.2,3-0.5,4.5c-0.5,2.8-2,5-4.1,6.8c-4.9,4.2-9.8,8.5-15.3,12
		c-2.9,1.9-5.4,0.9-6.2-2.5c-0.2-0.8-0.4-1.6-0.4-2.4C22,60.8,22.1,59.9,22.1,59.1z"/>
	<g>
		<path class="st2" d="M71.7,117.9c0.3-0.4,0.3-0.9,0.5-1.4c-0.4,0.5-0.5,0.7-0.6,1.2C71.6,117.7,71.7,117.8,71.7,117.9z"/>
		<path class="st2" d="M72.7,115.5L72.7,115.5c-0.1,0.2-0.2,0.3-0.3,0.5l0,0C72.5,115.8,72.6,115.6,72.7,115.5z"/>
		<path class="st2" d="M72.2,116.4C72.2,116.5,72.2,116.5,72.2,116.4C72.2,116.5,72.2,116.5,72.2,116.4c0.1-0.1,0.2-0.3,0.3-0.5l0,0
			C72.3,116.1,72.3,116.3,72.2,116.4z"/>
	</g>
	<path class="st3" d="M72.2,116.4c0.1-0.2,0.2-0.3,0.2-0.5c0.1-0.2,0.2-0.3,0.2-0.5c1.5-2.1,3.7-3.1,6.2-3.4
		c4.8-0.7,9.6-0.8,14.3,0.4c2.6,0.6,4.3,2.1,5,4.7c0.4,2.1-0.5,3.8-1.6,5.4c-2.7,3.8-6.2,6.9-10,9.6c-1.1,0.8-2.3,0.7-3.4-0.1
		c-3.4-2.4-6.3-5.3-8.9-8.5c-1.4-1.6-2.6-3.4-2.6-5.8C71.9,117.2,72,116.9,72.2,116.4z"/>
</g>
<path class="st4" d="M44.5,88.6l10.4-10.4c4.7-4.7,12,2.5,7.2,7.3L51.8,95.8l10.3,10.4c4.8,4.7-2.5,12-7.2,7.2l-10.4-10.3
	l-10.3,10.3c-4.7,4.8-12-2.5-7.3-7.2l10.4-10.4L26.9,85.5c-4.7-4.7,2.5-12,7.3-7.3L44.5,88.6z"/>
<path class="st4" d="M126.8,89.5l10.4-10.4c4.7-4.7,12,2.5,7.2,7.3L134,96.8l10.3,10.4c4.8,4.7-2.5,12-7.2,7.2l-10.4-10.3
	l-10.3,10.3c-4.7,4.8-12-2.5-7.3-7.2l10.4-10.4l-10.4-10.3c-4.7-4.7,2.5-12,7.3-7.3L126.8,89.5z"/>
</svg>
