<?xml version="1.0" encoding="UTF-8" standalone="no"?>
<svg
   height="48"
   width="48"
   version="1.1"
   id="svg4"
   sodipodi:docname="change_circle_FILL1_wght700_GRAD0_opsz48.svg"
   inkscape:version="1.1.2 (0a00cf5339, 2022-02-04)"
   xmlns:inkscape="http://www.inkscape.org/namespaces/inkscape"
   xmlns:sodipodi="http://sodipodi.sourceforge.net/DTD/sodipodi-0.dtd"
   xmlns="http://www.w3.org/2000/svg"
   xmlns:svg="http://www.w3.org/2000/svg">
  <defs
     id="defs8" />
  <sodipodi:namedview
     id="namedview6"
     pagecolor="#505050"
     bordercolor="#ffffff"
     borderopacity="1"
     inkscape:pageshadow="0"
     inkscape:pageopacity="0"
     inkscape:pagecheckerboard="1"
     showgrid="false"
     inkscape:zoom="18.1875"
     inkscape:cx="26.061856"
     inkscape:cy="23.505155"
     inkscape:window-width="1107"
     inkscape:window-height="1082"
     inkscape:window-x="2729"
     inkscape:window-y="630"
     inkscape:window-maximized="0"
     inkscape:current-layer="svg4" />
  <path
     d="m 23.95,38.4 -6.1,-6.05 6.05,-6.05 2.55,2.5 -1.8,1.8 q 1.15,-0.1 2.225,-0.55 1.075,-0.45 1.925,-1.3 0.95,-0.95 1.45,-2.2 0.5,-1.25 0.5,-2.5 0,-0.8 -0.225,-1.7 Q 30.3,21.45 29.85,20.6 l 2.6,-2.55 q 0.95,1.45 1.425,2.95 0.475,1.5 0.475,3 0,2 -0.75,3.875 -0.75,1.875 -2.3,3.375 -1.35,1.4 -3.025,2.125 Q 26.6,34.1 24.8,34.2 l 1.65,1.7 z M 15.6,29.95 Q 14.7,28.5 14.225,27 13.75,25.5 13.75,24 q 0,-2 0.75,-3.875 0.75,-1.875 2.25,-3.425 1.4,-1.35 3.075,-2.075 Q 21.5,13.9 23.25,13.8 l -1.6,-1.7 2.5,-2.5 6.1,6.05 -6.05,6.05 -2.55,-2.5 1.8,-1.85 q -1.1,0.15 -2.2,0.6 -1.1,0.45 -1.95,1.3 -0.95,0.95 -1.45,2.2 -0.5,1.25 -0.5,2.5 0,0.8 0.225,1.7 0.225,0.9 0.675,1.7 z m 8.45,15.3 q 4.4,0 8.275,-1.65 Q 36.2,41.95 39.1,39.05 42,36.15 43.65,32.275 45.3,28.4 45.3,24 45.3,19.55 43.65,15.675 42,11.8 39.1,8.925 36.2,6.05 32.325,4.375 28.45,2.7 24.05,2.7 19.6,2.7 15.725,4.375 11.85,6.05 8.975,8.925 6.1,11.8 4.425,15.675 2.75,19.55 2.75,24 q 0,4.4 1.675,8.275 1.675,3.875 4.55,6.775 2.875,2.9 6.75,4.55 3.875,1.65 8.325,1.65 z"
     id="path2" />
</svg>
