<?xml version="1.0" encoding="UTF-8" standalone="no"?>
<svg
   height="48"
   width="48"
   version="1.1"
   id="svg4"
   sodipodi:docname="processing-alt.svg"
   inkscape:version="1.1.2 (0a00cf5339, 2022-02-04)"
   xmlns:inkscape="http://www.inkscape.org/namespaces/inkscape"
   xmlns:sodipodi="http://sodipodi.sourceforge.net/DTD/sodipodi-0.dtd"
   xmlns="http://www.w3.org/2000/svg"
   xmlns:svg="http://www.w3.org/2000/svg">
  <defs
     id="defs8" />
  <sodipodi:namedview
     id="namedview6"
     pagecolor="#505050"
     bordercolor="#ffffff"
     borderopacity="1"
     inkscape:pageshadow="0"
     inkscape:pageopacity="0"
     inkscape:pagecheckerboard="1"
     showgrid="false"
     inkscape:zoom="4.546875"
     inkscape:cx="135.3677"
     inkscape:cy="66.639175"
     inkscape:window-width="2560"
     inkscape:window-height="1403"
     inkscape:window-x="1440"
     inkscape:window-y="503"
     inkscape:window-maximized="1"
     inkscape:current-layer="svg4" />
  <path
     d="m 23.95,38.4 -6.1,-6.05 6.05,-6.05 2.55,2.5 -1.8,1.8 q 1.15,-0.1 2.225,-0.55 1.075,-0.45 1.925,-1.3 0.95,-0.95 1.45,-2.2 0.5,-1.25 0.5,-2.5 0,-0.8 -0.225,-1.7 Q 30.3,21.45 29.85,20.6 l 2.6,-2.55 q 0.95,1.45 1.425,2.95 0.475,1.5 0.475,3 0,2 -0.75,3.875 -0.75,1.875 -2.3,3.375 -1.35,1.4 -3.025,2.125 Q 26.6,34.1 24.8,34.2 l 1.65,1.7 z M 15.6,29.95 Q 14.7,28.5 14.225,27 13.75,25.5 13.75,24 q 0,-2 0.75,-3.875 0.75,-1.875 2.25,-3.425 1.4,-1.35 3.075,-2.075 Q 21.5,13.9 23.25,13.8 l -1.6,-1.7 2.5,-2.5 6.1,6.05 -6.05,6.05 -2.55,-2.5 1.8,-1.85 q -1.1,0.15 -2.2,0.6 -1.1,0.45 -1.95,1.3 -0.95,0.95 -1.45,2.2 -0.5,1.25 -0.5,2.5 0,0.8 0.225,1.7 0.225,0.9 0.675,1.7 z m 8.45,15.3 q 4.4,0 8.275,-1.65 Q 36.2,41.95 39.1,39.05 42,36.15 43.65,32.275 45.3,28.4 45.3,24 45.3,19.55 43.65,15.675 42,11.8 39.1,8.925 36.2,6.05 32.325,4.375 28.45,2.7 24.05,2.7 19.6,2.7 15.725,4.375 11.85,6.05 8.975,8.925 6.1,11.8 4.425,15.675 2.75,19.55 2.75,24 q 0,4.4 1.675,8.275 1.675,3.875 4.55,6.775 2.875,2.9 6.75,4.55 3.875,1.65 8.325,1.65 z"
     id="path2" />
  <path
     style="fill:#ffcc00;stroke-width:0.0549828;fill-opacity:1"
     d="m 22.735395,45.191541 c -0.105842,-0.0121 -0.501718,-0.04863 -0.879725,-0.08116 C 16.938048,44.687162 11.919379,42.218039 8.5627821,38.570447 5.3167398,35.042994 3.4123135,30.898029 2.8787977,26.199313 2.7684884,25.22781 2.7838671,22.569097 2.9055096,21.581305 3.342077,18.036178 4.4330201,15.074434 6.3790386,12.151203 7.8084178,10.004047 9.8083689,7.9714971 11.931271,6.5084706 14.418568,4.794317 17.239552,3.6115387 20.09622,3.0850819 21.498934,2.826575 22.365788,2.7541807 24.054983,2.7544704 c 1.681657,2.881e-4 2.475375,0.067519 3.90378,0.3306624 3.501464,0.6450467 6.982108,2.3030109 9.800673,4.6684353 4.009064,3.3645279 6.624952,8.1177919 7.322128,13.3048509 0.286198,2.129351 0.235773,4.6345 -0.135576,6.735395 -1.044606,5.909834 -4.701481,11.232504 -9.86695,14.36159 -2.615379,1.584318 -5.452843,2.556836 -8.549828,2.930382 -0.69723,0.0841 -3.339209,0.157744 -3.793815,0.105755 z m 2.498162,-8.047088 1.260151,-1.261046 -0.812305,-0.823681 -0.812306,-0.823681 0.321465,-0.03453 c 0.54694,-0.05876 1.674334,-0.292476 2.135898,-0.442792 1.800353,-0.586317 3.35629,-1.657568 4.686016,-3.226287 2.073242,-2.445871 2.847761,-5.83891 2.047063,-8.967855 -0.251432,-0.982543 -0.813636,-2.29595 -1.353732,-3.162561 l -0.250605,-0.402107 -1.052343,1.03042 c -0.578789,0.566731 -1.174188,1.148169 -1.32311,1.292085 l -0.270765,0.261664 0.226838,0.488223 c 0.927908,1.997135 0.893053,4.13535 -0.09871,6.055622 -0.608987,1.17913 -1.587781,2.154949 -2.748105,2.739753 -0.620067,0.312514 -1.870267,0.675279 -2.327216,0.675279 -0.08936,0 0.09408,-0.212623 0.75125,-0.870755 l 0.86948,-0.870756 -1.282496,-1.271594 -1.282495,-1.271595 -3.051547,3.053721 -3.051546,3.05372 3.051546,3.018476 c 1.678351,1.660162 3.06412,3.019118 3.079486,3.019901 0.01537,7.86e-4 0.595008,-0.566045 1.288092,-1.25962 z m -7.09819,-9.628075 0.155985,-0.146614 -0.172702,-0.34212 c -0.09498,-0.188166 -0.256832,-0.593786 -0.359659,-0.901377 -0.824785,-2.467215 -0.213867,-5.087124 1.601622,-6.868517 0.685236,-0.672368 1.36676,-1.093646 2.330109,-1.440336 0.401568,-0.144516 1.436115,-0.415138 1.587556,-0.415281 0.04154,-3.9e-5 -0.312379,0.39796 -0.78649,0.884442 -0.474112,0.486483 -0.854492,0.905542 -0.845289,0.931243 0.0092,0.0257 0.587782,0.603095 1.285732,1.283097 l 1.269001,1.236368 3.033404,-3.033774 c 1.668373,-1.668576 3.033405,-3.047541 3.033405,-3.064367 0,-0.01683 -1.375194,-1.387875 -3.055987,-3.046774 l -3.055986,-3.0161811 -1.270035,1.2700351 -1.270035,1.270035 0.781937,0.824225 0.781937,0.824225 -0.318458,0.03438 c -2.584419,0.279046 -5.06503,1.567965 -6.651057,3.455873 -0.862421,1.026572 -1.52611,2.200592 -1.934057,3.421211 -0.734262,2.19699 -0.725113,4.457212 0.02689,6.643862 0.206747,0.601171 0.780427,1.830297 1.099168,2.355 l 0.197758,0.325547 1.189631,-1.168796 c 0.654297,-0.642837 1.259824,-1.234772 1.345616,-1.31541 z"
     id="path80" />
</svg>
