<?xml version="1.0" encoding="utf-8"?>
<!-- Generator: Adobe Illustrator 27.0.0, SVG Export Plug-In . SVG Version: 6.00 Build 0)  -->
<svg version="1.1" id="Layer_1" xmlns="http://www.w3.org/2000/svg" xmlns:xlink="http://www.w3.org/1999/xlink" x="0px" y="0px"
	 viewBox="0 0 203.4 198.4" style="enable-background:new 0 0 203.4 198.4;" xml:space="preserve">
<style type="text/css">
	.st0{fill:#292E35;}
	.st1{fill:#DDAF8C;}
	.st2{fill:#F8F2EE;}
	.st3{fill:#F9C10D;}
	.st4{fill:#FAAC0D;}
	.st5{fill:#272D35;}
	.st6{fill:#F9C10D;stroke:#272D35;stroke-width:2;stroke-miterlimit:10;}
</style>
<g>
	<path class="st0" d="M162.7,57.5c0.3,4.3-0.5,8.9-1,13.6c-0.2,1.4-0.3,2.9-0.6,4.3c-0.1,0.7-0.3,1.5-0.7,2c-0.8,1-0.4,1.8,0,2.8
		c2.7,6.4,4.6,13,6.1,19.7c1.5,6.8,2.8,13.6,3.6,20.5c0.6,4.6,0,9.4-0.6,14c-0.6,4.4-2.4,8.2-4.5,12c-4.5,8.4-11.3,14.3-19.6,18.8
		c-5.9,3.2-12.1,5.3-18.4,7.4c-5.9,2-11.9,3-18.1,3.5c-4.5,0.4-9,0.7-13.5,0.9c-3,0.2-6,0.3-9,0.4c-1.9,0-3.8,0-5.6-0.1
		c-5.5-0.3-11.1-0.5-16.6-0.9c-8-0.6-15.9-1.9-23.5-4.6c-5.3-1.9-10.5-3.7-15.5-6.4c-8.5-4.6-15.6-10.6-20.1-19.3
		c-0.8-1.6-1.7-3.1-2.5-4.7c-1.5-2.9-1.8-6-2.2-9.2c-0.3-2.9-0.5-5.8-0.4-8.7c0.3-12.3,3.4-24.1,7-35.8c0.9-2.9,2.1-5.8,3.2-8.7
		c0.1-0.3,0.2-0.7,0.1-0.9c-1.1-1.5-1.3-3.2-1.5-5c-0.7-5.9-1.6-11.8-1.3-17.8c0.6-10.5,2.6-20.6,7.5-30c2.8-5.4,6-10.6,9.2-15.9
		c1.7-2.8,3.8-5.3,6.3-7.5c2.6-2.2,4.3-2.1,6.9-0.7c3.5,2,6.1,5,8.6,8c3.6,4.3,7.1,8.7,9.8,13.7c0.4,0.8,0.7,0.6,1.1,0
		c0.9-1.3,1.8-2.5,2.8-3.8c3.7-4.6,8.6-7.3,14.2-8.9c1.6-0.5,1.7-0.6,1.7-2.1c0-1.7,1.1-2.8,2.4-3.6c4.8-2.8,9.6-2.8,14.3,0
		c1.5,0.9,2.5,2.2,2.5,4c0,1,0.5,1.4,1.4,1.6c1.7,0.6,3.5,1.1,5.2,1.9c5.1,2.2,8.8,5.9,11.8,10.4c0.9,1.3,0.9,1.3,1.7,0
		c3.7-6.5,8.4-12.2,13.5-17.6c1.5-1.6,3.4-2.8,5.3-3.9c2.1-1.3,3.8-1.3,5.9,0.6c2.3,2.1,4.4,4.4,6.2,7c4.7,6.9,8.8,14.1,12.1,21.7
		c0.6,1.4,1.1,2.7,1.5,4.2C161,42.1,162.7,49.5,162.7,57.5z M95.1,15c-0.9-0.3-1.8-0.7-2.6-1c-1.4-1.2-2.3-2.6-2.2-4.6
		c0-0.3-0.4-0.9-0.8-1.1c-3-1.5-6-1.5-9,0c-0.4,0.2-0.8,0.7-0.8,1.1c0.2,2-0.7,3.4-2.2,4.6c-0.9,0.3-1.8,0.7-2.6,1
		c-4.7,1.2-8.8,3.6-12,7.3c-1.2,1.4-2.3,2.9-3.3,4.4c-2.8,3.9-4.3,8.4-5.7,13c-0.5,1.7-0.3,2.1,1.5,2.4c0.4,0.1,0.9,0.1,1.3,0.1
		c3.2-0.3,6.4-0.5,9.7-0.9c5.8-0.7,11.7-1.1,17.6-1c4.4,0,8.7,0,13.1,0.3s8.8,1,13.2,1.5c1.6,0.2,3.2,0.2,4.8,0
		c1.2-0.1,1.5-0.8,1.1-1.9c-0.2-0.7-0.5-1.4-0.7-2.1c-1.5-5.8-4.4-10.9-8.2-15.4C104,18.7,100,16.2,95.1,15z M98,52.8
		c-1-0.1-2-0.1-3-0.2c-2.4,0-4.9,0-7.3-0.1c-1.5,0-2.9-0.1-4.4-0.1c-2.9,0-5.8,0.1-8.7,0.2c-0.9,0-1.8,0.1-2.7,0.2
		c-4,0.1-8,0.3-12,0.2c-2.4,0-4.9-0.4-7.1-1.6c-2-1.1-3-2.7-2.9-5c0.1-1.8,0-3.6,0.3-5.3c0.5-2.8,0.9-5.6,1.9-8.3
		c0.9-2.4,0.5-4.1-0.8-6.1C46.4,18.6,40.7,11,33.9,4.3c-0.5-0.5-0.8-0.4-1.2,0.1C32,5.2,31.3,6,30.6,6.8c-4.1,5.1-7.1,10.8-10,16.6
		c-2.5,5.1-4.8,10.2-6,15.8c-1.2,5.7-2.4,11.5-2.5,17.4c-0.2,6.2,0.9,12.2,1.8,18.2c0.1,0.9,0.4,2,0.1,2.8c-0.6,1.3-0.7,2.6-1.1,3.9
		C10.2,91.2,8,101,6.5,111c-0.6,4.1-1.2,8.3-1.4,12.5c-0.1,2.7,0.4,5.5,0.7,8.2c0.4,3.2,1.1,6.3,2.8,9.1c0.5,0.9,1.1,1.8,1.5,2.7
		c2,3.9,4.7,7.2,8,10.1c1.7,1.5,3.6,2.7,5.5,4c1.6,0.9,3.2,1.9,4.9,2.8c11.3,6.2,23.5,9.3,36.2,10.4c5.8,0.5,11.7,0.7,17.6,1.1
		c1.3,0.1,2.6,0.2,3.9,0.1c2.6-0.1,5.3-0.3,7.9-0.4c7-0.2,14-0.9,20.9-2.1c10.9-1.8,21.1-5.8,30.6-11.4c0.2-0.1,0.4-0.3,0.6-0.5
		c0.2-0.1,0.4-0.1,0.5-0.2c4.4-2.9,8.3-6.4,11.1-10.9c2.6-4.1,5.3-8.2,5.9-13.2c0.5-3.8,1.3-7.6,0.8-11.5
		c-0.8-5.9-1.4-11.9-2.6-17.8c-1.5-7.5-3.4-14.9-5.2-22.4c-0.3-1.3-0.3-2.6-1.1-3.8c-0.2-0.4-0.2-1-0.1-1.5c0.2-1.5,0.5-3.1,0.7-4.6
		c0.4-3.2,1-6.4,1.3-9.6c0.6-8.9-0.9-17.5-3.3-26c-1.8-6.4-4.9-12.3-8-18.2c-2.5-4.8-5.4-9.3-9-13.2c-0.6-0.6-0.8-0.7-1.6-0.1
		c-4.7,4.4-8.5,9.5-12.3,14.7c-2.3,3.1-4.1,6.5-6.1,9.8c-0.4,0.7-0.4,1.3-0.1,2c0.5,1.3,0.9,2.6,1.2,3.9c0.5,2,0.9,4,1.2,6.1
		c0.2,1.6,0.3,3.2,0.3,4.8c0.1,3.1-1,4.9-3.9,6c-2.6,1-5.4,1.3-8.2,1.2C104.6,53,101.3,52.9,98,52.8z M78.9,48.7v0.1
		c1.4,0,2.8,0,4.2,0c2.9,0,5.9,0.3,8.8,0.1c5.2-0.4,10.4,0.4,15.6,0.5c2.7,0.1,5.3-0.1,7.9-1.2c0.9-0.3,1.5-0.9,1.6-1.9
		c0-0.5-0.1-0.6-0.7-0.5c-1.4,0.3-2.8,0.6-4.1,0.5c-3.3-0.1-6.5-0.4-9.8-0.7c-3.5-0.3-7-0.6-10.5-0.9c-3-0.2-6-0.4-8.9-0.4
		c-2.3,0-4.5,0.4-6.8,0.6c-4.6,0.4-9.2,0.8-13.8,1.1c-2.9,0.2-5.8,0.8-8.7-0.3c-0.1,0-0.5,0.3-0.5,0.5c0,1.1,0.7,1.7,1.6,2
		c2.3,0.9,4.8,1.2,7.3,1.1C67.6,49.2,73.2,48.9,78.9,48.7z"/>
	<path class="st1" d="M23.7,157.6c-1.8-1.3-3.8-2.5-5.5-4c-3.3-2.8-6-6.2-8-10.1c-0.5-0.9-1-1.8-1.5-2.7c-1.7-2.8-2.4-5.9-2.8-9.1
		c-0.3-2.7-0.8-5.5-0.7-8.2c0.2-4.2,0.8-8.3,1.4-12.5c1.5-10,3.8-19.8,6.4-29.5c0.4-1.3,0.5-2.6,1.1-3.9c0.3-0.8,0.1-1.9-0.1-2.8
		c-0.9-6-2-12-1.8-18.2c0.1-5.9,1.3-11.7,2.5-17.4c1.2-5.6,3.5-10.7,6-15.8c2.8-5.8,5.9-11.5,10-16.6c0.7-0.8,1.4-1.6,2.1-2.4
		c0.4-0.5,0.7-0.6,1.2-0.1c6.8,6.7,12.4,14.3,17.4,22.4c1.2,2,1.6,3.8,0.8,6.1c-1,2.6-1.4,5.5-1.9,8.3C50,42.8,50,44.6,50,46.4
		c-0.1,2.3,1,3.9,2.9,5c2.2,1.2,4.6,1.6,7.1,1.6c4,0,8-0.1,12-0.2c1.1,6,2.2,12.1,3.3,18.1c1.1,5.4,1.5,10.9,1.8,16.5
		c0.2,3.8-0.2,7.6-0.7,11.4c-0.6,4.2-1.1,8.4-2.4,12.4c-0.4,1.3-0.7,2.6-1,3.9l0,0c-0.1,0.2-0.2,0.3-0.3,0.5l0,0c0,0-0.1,0-0.1,0.1
		s0,0.1,0,0.2c-0.2,0.4-0.4,0.8-0.5,1.2c-0.1,0.2-0.2,0.5-0.4,0.7l0,0c-0.2,0.2-0.4,0.3-0.5,0.5c-0.8,1.3-1.5,2.5-2.3,3.8
		c-1.9,3-3.8,6-6.7,8.2c-0.6,0.5-1.1,1.1-1.6,1.7c-2.1-0.3-3.1,0.4-3.5,2.6c-0.2,0.1-0.5,0.1-0.7,0.3c-5.1,3.3-10.7,5.4-16.4,7.5
		c-4.6,1.7-8.9,4-12.2,7.7C25.9,152.1,24.1,154.5,23.7,157.6z M21.6,59.7c0.3,1.8,0.5,3.7,1,5.5c0.7,2.4,3.1,3.4,5.3,2.1
		c1.7-1,3.5-2.2,5-3.4c3.4-2.6,6.7-5.3,9.9-8.1c2.6-2.2,4.6-4.8,5.2-8.3c0.6-3.6,0.5-7.2-0.2-10.7c-1.2-6.5-4.3-12-9-16.7
		c-1.4-1.5-4.4-1.5-5.5,0.8s-2.5,4.5-3.6,6.8c-2.6,5.2-4.5,10.6-5.8,16.3C22.9,49.1,22,54.3,21.6,59.7z M58.9,102.6
		c0-0.5,0-1-0.1-1.4c-0.4-3.4-1.3-6.6-3.8-9.1c-2.5-2.4-6.1-2.5-8.7-0.2c-1,0.9-1.8,2-2.5,3.2c-1.3,2.2-1.7,4.6-1.9,7.1
		c-0.3,4,0.1,7.9,2.3,11.4c2.8,4.5,8.4,4.7,11.6,0.5C58.4,110.7,59,106.7,58.9,102.6z"/>
	<path class="st1" d="M98,52.8c3.3,0.1,6.5,0.2,9.8,0.3c2.8,0.1,5.6-0.2,8.2-1.2c2.9-1.1,4-2.9,3.9-6c-0.1-1.6-0.1-3.2-0.3-4.8
		c-0.3-2-0.8-4.1-1.2-6.1c-0.3-1.3-0.7-2.6-1.2-3.9c-0.3-0.7-0.3-1.4,0.1-2c2-3.3,3.8-6.7,6.1-9.8c3.8-5.2,7.5-10.3,12.3-14.7
		c0.7-0.7,1-0.5,1.6,0.1c3.7,4,6.5,8.5,9,13.2c3.1,5.9,6.2,11.8,8,18.2c2.4,8.5,3.8,17.2,3.3,26c-0.2,3.2-0.8,6.4-1.3,9.6
		c-0.2,1.5-0.5,3.1-0.7,4.6c-0.1,0.5-0.1,1.1,0.1,1.5c0.8,1.2,0.8,2.5,1.1,3.8c1.8,7.5,3.7,14.9,5.2,22.4c1.2,5.9,1.7,11.8,2.6,17.8
		c0.5,3.9-0.3,7.7-0.8,11.5c-0.6,5-3.3,9.1-5.9,13.2c-2.8,4.5-6.7,8-11.1,10.9c-0.2,0.1-0.4,0.2-0.5,0.2c-0.4-1.3-0.7-2.7-1.4-3.9
		c-1.4-2.6-3.5-4.7-5.8-6.5c-3-2.4-6.5-4-10.1-5.3c-5-1.9-10-3.8-14.6-6.6c-0.5-0.3-1.1-0.6-1.7-0.9c-0.5-2.2-1.5-3-3.5-2.6
		c-0.2-0.2-0.3-0.5-0.6-0.7c-0.8-0.7-1.7-1.4-2.5-2.2c-2.7-2.6-4.6-5.9-6.6-9c-0.6-1-1.2-1.9-1.8-2.9c-0.2-0.4-0.4-0.8-0.6-1.2
		c0-0.1,0.1-0.3,0.1-0.4c-1.8-4.4-2.8-9-3.4-13.7c-0.5-3.6-0.9-7.3-1-10.9c-0.1-3.3,0.1-6.6,0.4-9.9c0.4-3.8,1-7.7,1.6-11.5
		C95.9,63.8,97,58.3,98,52.8z M148.2,60.4c-0.4-5.1-0.9-9.5-1.7-13.9c-1.7-9.3-5.5-17.7-10.1-25.8c-0.9-1.6-3.6-2.2-5.1-0.8
		c-2.7,2.7-5.2,5.6-6.7,9.1c-2.4,5.3-3.5,11-3,16.9c0.4,4.2,2.2,7.4,5.4,10c2.5,2.1,5,4.2,7.6,6.2c2.3,1.8,4.6,3.5,7.1,5.1
		c2.4,1.6,5,0.6,5.7-2.1C147.9,63.3,148,61.5,148.2,60.4z M111,103.4c0.1,0.8,0.1,1.7,0.2,2.5c0.3,3.1,1.2,6,3.1,8.4
		c3.2,4,8.6,3.8,11.4-0.5c0.6-1,1.2-2.1,1.5-3.2c1.4-4.6,1.3-9.2-0.3-13.8c-0.6-1.8-1.6-3.4-3-4.7c-2.7-2.5-6.4-2.5-9,0.1
		c-0.8,0.8-1.5,1.9-2.1,2.9C111.5,97.7,111.1,100.5,111,103.4z"/>
	<path class="st2" d="M112.8,134.4c0.6,0.3,1.1,0.6,1.7,0.9c4.6,2.8,9.6,4.7,14.6,6.6c3.6,1.3,7.1,2.9,10.1,5.3
		c2.3,1.8,4.3,3.9,5.8,6.5c0.7,1.2,0.9,2.6,1.4,3.9c-0.2,0.2-0.4,0.4-0.6,0.5c-9.6,5.5-19.7,9.5-30.6,11.4
		c-6.9,1.2-13.9,1.9-20.9,2.1c-2.6,0.1-5.3,0.3-7.9,0.4c-1.3,0-2.6,0-3.9-0.1c-5.9-0.3-11.7-0.6-17.6-1.1
		c-12.7-1.1-24.9-4.3-36.2-10.4c-1.6-0.9-3.2-1.8-4.9-2.8c0.4-3.1,2.2-5.5,4.2-7.7c3.4-3.7,7.6-6,12.2-7.7
		c5.6-2.1,11.3-4.3,16.4-7.5c0.2-0.1,0.4-0.2,0.7-0.3c0.4,1.7,0.6,3.5,1.2,5.1c1.8,5.2,8.5,8.6,12.9,8c4.3-0.6,8.4-2,11.5-5.3
		c0.6-0.6,1.1-1.1,1.7-1.7c0.4-0.4,0.6-0.4,1,0c0.3,0.3,0.6,0.6,0.8,0.9c3.2,3.6,7.4,5.3,12,6.1c0.6,0.1,1.3,0.1,1.9,0
		C106.6,146.8,112.5,142.3,112.8,134.4z"/>
	<path class="st3" d="M77.6,14c1.4-1.2,2.3-2.6,2.2-4.6c0-0.3,0.4-0.9,0.8-1.1c3-1.5,6-1.5,9,0C90,8.5,90.4,9,90.4,9.4
		c-0.2,2,0.7,3.4,2.2,4.6c-0.9,0.3-1.4,0.9-1.7,1.8c-0.2,0.7-0.3,1.5-0.4,2.2c-0.4,2.5-0.9,5.1-1.2,7.6c-0.3,2.2-0.5,4.3-0.8,6.5
		c-0.2,1.2,0.4,2.5,1.4,2.7c1.1,0.3,2.2-0.3,2.5-1.6c0.4-1.5,0.7-3.1,1-4.6c0.4-2.3,0.6-4.5,1-6.8c0.3-2.3,0.7-4.5,1-6.8
		c4.9,1.2,9,3.7,12.2,7.6c3.8,4.6,6.7,9.6,8.2,15.4c0.2,0.7,0.4,1.4,0.7,2.1c0.4,1.2,0.1,1.8-1.1,1.9c-1.6,0.2-3.2,0.2-4.8,0
		c-4.4-0.4-8.8-1.1-13.2-1.5c-4.3-0.3-8.7-0.3-13.1-0.3c-5.9,0-11.7,0.3-17.6,1c-3.2,0.4-6.4,0.6-9.7,0.9c-0.4,0-0.9,0-1.3-0.1
		c-1.7-0.3-2-0.7-1.5-2.4c1.3-4.6,2.8-9.1,5.7-13c1.1-1.5,2.1-3,3.3-4.4c3.2-3.7,7.2-6.1,12-7.3c0.1,0.8,0.2,1.6,0.3,2.5
		c0.5,3.2,0.9,6.4,1.4,9.6c0.3,2.1,0.7,4.2,1.2,6.3c0.3,1.2,1.4,1.7,2.5,1.4c0.9-0.2,1.6-1.5,1.4-2.6c-0.2-1-0.3-2-0.4-2.9
		c-0.3-2.2-0.5-4.5-0.9-6.7c-0.3-2-0.7-3.9-1.1-5.8C79.2,15.6,78.9,14.4,77.6,14z"/>
	<path class="st2" d="M98,52.8c-1,5.5-2.1,11-3,16.6c-0.6,3.8-1.2,7.6-1.6,11.5c-0.3,3.3-0.5,6.6-0.4,9.9c0.1,3.7,0.6,7.3,1,10.9
		c0.6,4.7,1.6,9.3,3.4,13.7c0,0.1-0.1,0.3-0.1,0.4c-1.2-1.6-2.8-2.5-4.7-3c-3.8-0.9-7.7-0.9-11.5-0.6c-2.7,0.3-5.6,0.5-7.7,2.8
		c-0.1,0.1-0.2,0-0.3,0c0.3-1.3,0.6-2.6,1-3.9c1.3-4,1.8-8.2,2.4-12.4c0.5-3.8,0.8-7.6,0.7-11.4c-0.2-5.5-0.7-11-1.8-16.5
		c-1.2-6-2.2-12-3.3-18.1c0.9-0.1,1.8-0.2,2.7-0.2c2.9-0.1,5.8-0.2,8.7-0.2c1.5,0,2.9,0.1,4.4,0.1c2.4,0,4.9,0,7.3,0.1
		C96.1,52.6,97,52.7,98,52.8z"/>
	<path class="st3" d="M78.9,48.7c-5.6,0.2-11.2,0.5-16.9,0.7c-2.5,0.1-4.9-0.2-7.3-1.1c-0.9-0.4-1.6-1-1.6-2c0-0.2,0.4-0.5,0.5-0.5
		c2.9,1.1,5.8,0.5,8.7,0.3c4.6-0.4,9.2-0.7,13.8-1.1c2.3-0.2,4.5-0.6,6.8-0.6c3,0,6,0.2,8.9,0.4c3.5,0.2,7,0.6,10.5,0.9
		c3.3,0.3,6.5,0.6,9.8,0.7c1.4,0,2.8-0.3,4.1-0.5c0.6-0.1,0.7,0,0.7,0.5c-0.1,1-0.7,1.6-1.6,1.9c-2.5,1-5.2,1.2-7.9,1.2
		c-5.2-0.1-10.3-0.8-15.6-0.5c-2.9,0.2-5.9-0.1-8.8-0.1c-1.4,0-2.8,0-4.2,0C78.9,48.8,78.9,48.7,78.9,48.7z"/>
	<path class="st4" d="M77.6,14c1.4,0.4,1.7,1.6,1.9,2.8c0.4,1.9,0.8,3.9,1.1,5.8c0.3,2.2,0.6,4.5,0.9,6.7c0.1,1,0.2,2,0.4,2.9
		c0.2,1.1-0.5,2.4-1.4,2.6c-1.1,0.3-2.2-0.3-2.5-1.4c-0.5-2.1-0.9-4.2-1.2-6.3c-0.5-3.2-0.9-6.4-1.4-9.6c-0.1-0.8-0.2-1.6-0.3-2.5
		C75.8,14.6,76.7,14.3,77.6,14z"/>
	<path class="st4" d="M95.1,15c-0.3,2.3-0.7,4.5-1,6.8s-0.6,4.6-1,6.8c-0.3,1.6-0.6,3.1-1,4.6c-0.3,1.3-1.4,1.9-2.5,1.6
		c-1-0.3-1.6-1.5-1.4-2.7c0.3-2.2,0.5-4.3,0.8-6.5c0.4-2.5,0.8-5.1,1.2-7.6c0.1-0.7,0.3-1.5,0.4-2.2c0.2-0.9,0.7-1.6,1.7-1.8
		C93.3,14.3,94.2,14.6,95.1,15z"/>
	<path class="st2" d="M21.6,59.7C22,54.3,22.8,49.1,24,44c1.2-5.7,3.2-11.1,5.8-16.3c1.1-2.3,2.5-4.5,3.6-6.8s4.1-2.3,5.5-0.8
		c4.6,4.7,7.8,10.2,9,16.7c0.6,3.5,0.8,7.1,0.2,10.7c-0.6,3.6-2.6,6.1-5.2,8.3c-3.3,2.7-6.6,5.4-9.9,8.1c-1.6,1.2-3.3,2.4-5,3.4
		c-2.2,1.3-4.7,0.3-5.3-2.1C22.1,63.4,22,61.5,21.6,59.7z"/>
	<path class="st5" d="M73,115c0.1,0,0.3,0,0.3,0c2.1-2.3,4.9-2.6,7.7-2.8c3.8-0.4,7.7-0.3,11.5,0.6c1.9,0.5,3.5,1.4,4.7,3
		c0.2,0.4,0.4,0.8,0.6,1.2c0.4,2.1,0,4-1.2,5.8c-2.1,3.1-4.7,5.6-7.7,7.8c-0.3,0.2-0.8,0.7-0.8,1.1c0.1,1.4,0.4,2.9,1.4,4
		c0.8,0.8,1.7,1.7,2.6,2.5c1.9,1.7,4.3,2.6,6.7,2.9c3,0.5,6.4-1.8,7.4-4.7c0.6-1.7,1-3.6,2.9-4.5c2.1-0.3,3.1,0.4,3.5,2.6
		c-0.3,7.9-6.2,12.4-12.5,13.1c-0.6,0.1-1.3,0.1-1.9,0c-4.6-0.8-8.8-2.5-12-6.1c-0.3-0.3-0.6-0.6-0.8-0.9c-0.3-0.4-0.6-0.4-1,0
		c-0.5,0.6-1.1,1.1-1.7,1.7c-3.2,3.2-7.2,4.7-11.5,5.3c-4.4,0.6-11.1-2.8-12.9-8c-0.6-1.6-0.8-3.4-1.2-5.1c0.5-2.2,1.5-3,3.5-2.6
		c0.7,0.7,1.4,1.4,2,2.2c0.4,0.7,0.6,1.5,0.9,2.3c1.2,3.4,5.3,5.5,8.7,4.5c2.9-0.8,5.3-2.3,7.4-4.5c1.1-1.1,1.8-2.3,2.1-3.8
		c0.2-0.9,0-1.5-0.8-2.1c-2.9-2-5.4-4.5-7.4-7.4c-1.1-1.6-1.9-3.3-1.7-5.3l0,0c0.1-0.2,0.2-0.5,0.4-0.7c0.2-0.4,0.4-0.8,0.5-1.2
		c0-0.1,0.1-0.2,0.1-0.2l0,0C72.9,115.3,72.9,115.2,73,115L73,115z"/>
	<path class="st5" d="M58.9,102.6c0.1,4.2-0.5,8.1-3.1,11.6c-3.2,4.2-8.8,4-11.6-0.5c-2.2-3.5-2.6-7.4-2.3-11.4
		c0.2-2.5,0.7-4.9,1.9-7.1c0.7-1.2,1.5-2.3,2.5-3.2c2.6-2.4,6.1-2.2,8.7,0.2c2.6,2.5,3.5,5.7,3.8,9.1
		C58.9,101.6,58.9,102.1,58.9,102.6z"/>
	<path class="st2" d="M71.8,117.6c-0.2,2,0.6,3.7,1.7,5.3c2,2.9,4.5,5.4,7.4,7.4c0.8,0.6,1,1.2,0.8,2.1c-0.3,1.5-1,2.7-2.1,3.8
		c-2.1,2.2-4.5,3.6-7.4,4.5c-3.4,1-7.5-1.1-8.7-4.5c-0.3-0.8-0.5-1.6-0.9-2.3c-0.5-0.8-1.3-1.5-2-2.2c0.5-0.6,1-1.2,1.6-1.7
		c2.8-2.2,4.8-5.2,6.7-8.2c0.8-1.3,1.5-2.5,2.3-3.8C71.4,117.9,71.7,117.8,71.8,117.6z"/>
	<path class="st2" d="M72.2,116.9c-0.1,0.2-0.2,0.5-0.4,0.7C71.9,117.4,72,117.2,72.2,116.9z"/>
	<path class="st2" d="M72.8,115.5c0,0.1-0.1,0.2-0.1,0.2C72.7,115.6,72.7,115.6,72.8,115.5C72.7,115.5,72.8,115.5,72.8,115.5z"/>
	<path class="st2" d="M148.2,60.4c-0.2,1.1-0.3,2.9-0.8,4.6c-0.7,2.7-3.4,3.7-5.7,2.1c-2.4-1.6-4.8-3.3-7.1-5.1
		c-2.6-2-5.1-4.1-7.6-6.2c-3.1-2.6-5-5.8-5.4-10c-0.5-5.9,0.5-11.5,3-16.9c1.6-3.5,4.1-6.4,6.7-9.1c1.4-1.5,4.2-0.8,5.1,0.8
		c4.6,8.1,8.4,16.5,10.1,25.8C147.3,50.8,147.9,55.2,148.2,60.4z"/>
	<path class="st5" d="M111,103.4c0.1-2.9,0.5-5.7,1.8-8.2c0.6-1,1.2-2.1,2.1-2.9c2.6-2.6,6.3-2.6,9-0.1c1.4,1.3,2.4,2.9,3,4.7
		c1.6,4.5,1.7,9.2,0.3,13.8c-0.4,1.1-0.9,2.2-1.5,3.2c-2.8,4.3-8.3,4.5-11.4,0.5c-1.9-2.5-2.8-5.4-3.1-8.4
		C111.1,105,111,104.2,111,103.4z"/>
</g>
<circle class="st6" cx="160.3" cy="154.7" r="36.7"/>
<path class="st5" d="M172.2,168.4c-3.5,2.9-7.9,4.6-12.5,4.6c-10.7,0-19.3-8.7-19.3-19.3v-1.3h2.8c0.7,0,1.4-0.4,1.7-1
	c0.4-0.7,0.3-1.4-0.1-2l-5-7.8c-0.7-1.1-2.6-1.1-3.4,0l-5.1,7.8c-0.4,0.6-0.4,1.4-0.1,2c0.4,0.6,1,1,1.7,1h2.8v1.2
	c0,13.1,10.7,23.8,23.8,23.8c5.6,0,11.1-2,15.4-5.6c1-0.8,1.1-2.2,0.2-3.1C174.5,167.7,173.1,167.6,172.2,168.4L172.2,168.4z"/>
<path class="st5" d="M188.1,155.9c-0.4-0.7-1-1-1.7-1h-2.8v-1.2c0-13.1-10.7-23.8-23.8-23.8c-5.6,0-11.1,2-15.4,5.6
	c-1,0.8-1.1,2.2-0.2,3.1c0.8,1,2.2,1.1,3.1,0.2c3.5-2.9,7.9-4.6,12.5-4.6c10.7,0,19.3,8.7,19.3,19.3v1.2h-2.8c-0.7,0-1.4,0.4-1.7,1
	c-0.4,0.7-0.3,1.4,0.1,2l5,7.8c0.4,0.6,1,0.9,1.7,0.9s1.3-0.4,1.7-0.9l5-7.8C188.4,157.3,188.4,156.5,188.1,155.9L188.1,155.9z"/>
</svg>
