<?xml version="1.0" encoding="UTF-8" standalone="no"?>
<svg
   height="48"
   width="48"
   version="1.1"
   id="svg4"
   sodipodi:docname="queued-alt.svg"
   inkscape:version="1.1.2 (0a00cf5339, 2022-02-04)"
   xmlns:inkscape="http://www.inkscape.org/namespaces/inkscape"
   xmlns:sodipodi="http://sodipodi.sourceforge.net/DTD/sodipodi-0.dtd"
   xmlns="http://www.w3.org/2000/svg"
   xmlns:svg="http://www.w3.org/2000/svg">
  <defs
     id="defs8" />
  <sodipodi:namedview
     id="namedview6"
     pagecolor="#505050"
     bordercolor="#ffffff"
     borderopacity="1"
     inkscape:pageshadow="0"
     inkscape:pageopacity="0"
     inkscape:pagecheckerboard="1"
     showgrid="false"
     inkscape:zoom="7.4895835"
     inkscape:cx="-1.8025034"
     inkscape:cy="9.6133517"
     inkscape:window-width="2560"
     inkscape:window-height="1403"
     inkscape:window-x="1440"
     inkscape:window-y="503"
     inkscape:window-maximized="1"
     inkscape:current-layer="svg4" />
  <path
     d="M13.75 26.5q1.05 0 1.775-.725.725-.725.725-1.775 0-1.05-.725-1.775-.725-.725-1.775-.725-1.05 0-1.775.725-.725.725-.725 1.775 0 1.05.725 1.775.725.725 1.775.725Zm10.25 0q1.05 0 1.775-.725.725-.725.725-1.775 0-1.05-.725-1.775Q25.05 21.5 24 21.5q-1.05 0-1.775.725Q21.5 22.95 21.5 24q0 1.05.725 1.775.725.725 1.775.725Zm10.2 0q1.05 0 1.775-.725.725-.725.725-1.775 0-1.05-.725-1.775-.725-.725-1.775-.725-1.05 0-1.775.725Q31.7 22.95 31.7 24q0 1.05.725 1.775.725.725 1.775.725ZM24 45.25q-4.4 0-8.275-1.65T8.95 39.05q-2.9-2.9-4.55-6.75T2.75 24q0-4.45 1.65-8.325 1.65-3.875 4.55-6.75t6.75-4.55Q19.55 2.7 24 2.7q4.45 0 8.325 1.675 3.875 1.675 6.75 4.55t4.55 6.75Q45.3 19.55 45.3 24q0 4.45-1.675 8.3-1.675 3.85-4.55 6.725-2.875 2.875-6.75 4.55Q28.45 45.25 24 45.25Z"
     id="path2" />
  <path
     style="fill:#ffcc00;stroke-width:0.0667594;fill-opacity:1"
     d="M 22.164117,45.153581 C 19.358669,44.860489 17.160325,44.258449 14.861546,43.153696 11.400664,41.490457 8.6007815,39.102016 6.4950906,36.01669 4.4706521,33.050417 3.3315573,29.987268 2.8953437,26.336579 2.7856887,25.418872 2.7840504,22.569126 2.8926572,21.663421 3.374191,17.647764 4.6799551,14.358942 7.0672801,11.148818 7.8575223,10.086216 9.6475821,8.2497786 10.709361,7.4123766 14.836316,4.1575353 19.498707,2.6033273 24.667594,2.7593991 c 2.017161,0.060907 3.660047,0.3170906 5.405723,0.8429418 6.591613,1.9855967 11.838391,7.0281961 14.061208,13.5140161 0.778314,2.270996 1.107662,4.317751 1.107662,6.883643 0,3.423588 -0.637598,6.24033 -2.085891,9.214924 -3.094408,6.355488 -9.069328,10.738808 -16.070353,11.789533 -0.719464,0.107978 -1.317751,0.141757 -2.785526,0.157268 -1.028094,0.01087 -1.98943,0.0072 -2.1363,-0.0081 z M 14.863498,26.28441 c 0.44484,-0.21764 1.008228,-0.79048 1.212556,-1.232899 0.122698,-0.265669 0.146477,-0.436375 0.146477,-1.051511 0,-0.615136 -0.02378,-0.785842 -0.146477,-1.051511 -0.204453,-0.442691 -0.767614,-1.015075 -1.214781,-1.234678 -0.339777,-0.166863 -0.442549,-0.183908 -1.108839,-0.183908 -0.663859,0 -0.769815,0.01741 -1.103755,0.181421 -0.470247,0.230949 -0.953532,0.713389 -1.18159,1.179524 -0.230465,0.471052 -0.2883,1.33431 -0.126648,1.890373 0.199818,0.68735 0.83849,1.354901 1.533167,1.602493 0.534381,0.19046 1.495687,0.142487 1.98989,-0.0993 z m 10.287248,-0.03415 c 0.536339,-0.26428 0.989424,-0.748708 1.199285,-1.282247 0.202658,-0.515227 0.202658,-1.420795 0,-1.936022 C 26.153072,22.531253 25.702632,22.036777 25.190524,21.759127 24.778608,21.535799 24.747986,21.529903 24,21.529903 c -0.747986,0 -0.778608,0.0059 -1.190524,0.229224 -1.324798,0.718266 -1.743613,2.437162 -0.89441,3.670828 0.310178,0.450607 0.616279,0.698979 1.123135,0.911317 0.341697,0.143148 0.479257,0.162775 1.030371,0.147015 0.564294,-0.01614 0.686344,-0.04298 1.082174,-0.238029 z m 10.144709,0.04113 c 0.706877,-0.3305 1.218938,-0.999873 1.386925,-1.813007 0.227433,-1.100881 -0.369581,-2.293344 -1.386925,-2.770215 -0.340477,-0.159595 -0.457184,-0.17816 -1.114648,-0.177307 -0.635869,8.21e-4 -0.77715,0.02208 -1.053466,0.158503 -0.504341,0.249001 -0.951399,0.695218 -1.197623,1.19537 -0.20334,0.413042 -0.219009,0.492734 -0.219009,1.113868 0,0.581138 0.02281,0.717619 0.173649,1.039221 0.299656,0.638872 0.82753,1.128846 1.462316,1.357325 0.484161,0.174264 1.465946,0.121992 1.948781,-0.103758 z"
     id="path84" />
</svg>
