<?xml version="1.0" encoding="UTF-8" standalone="no"?>
<svg
   height="48"
   width="48"
   version="1.1"
   id="svg4"
   sodipodi:docname="repeat-alt.svg"
   inkscape:version="1.1.2 (0a00cf5339, 2022-02-04)"
   xmlns:inkscape="http://www.inkscape.org/namespaces/inkscape"
   xmlns:sodipodi="http://sodipodi.sourceforge.net/DTD/sodipodi-0.dtd"
   xmlns="http://www.w3.org/2000/svg"
   xmlns:svg="http://www.w3.org/2000/svg">
  <defs
     id="defs8" />
  <sodipodi:namedview
     id="namedview6"
     pagecolor="#505050"
     bordercolor="#ffffff"
     borderopacity="1"
     inkscape:pageshadow="0"
     inkscape:pageopacity="0"
     inkscape:pagecheckerboard="1"
     showgrid="false"
     inkscape:zoom="7.4895835"
     inkscape:cx="74.169678"
     inkscape:cy="47.532683"
     inkscape:window-width="2560"
     inkscape:window-height="1403"
     inkscape:window-x="1440"
     inkscape:window-y="503"
     inkscape:window-maximized="1"
     inkscape:current-layer="svg4" />
  <path
     d="M24 38q5.4 0 9.175-3.8 3.775-3.8 3.775-9.15 0-5.4-3.675-9.2-3.675-3.8-9.025-3.8l2.8-2.8-3.8-3.75L14 14.75l9.25 9.2 3.8-3.7-2.8-2.85q3.1.1 5.225 2.3 2.125 2.2 2.125 5.35 0 3.15-2.225 5.375T24 32.65q-3.25 0-5.425-2.35T16.4 24.65h-5.35q0 5.45 3.75 9.4T24 38Zm0 7.25q-4.4 0-8.275-1.65T8.95 39.05q-2.9-2.9-4.55-6.775Q2.75 28.4 2.75 24t1.65-8.275Q6.05 11.85 8.95 8.95q2.9-2.9 6.775-4.575Q19.6 2.7 24 2.7t8.275 1.675Q36.15 6.05 39.05 8.95q2.9 2.9 4.575 6.775Q45.3 19.6 45.3 24t-1.675 8.275Q41.95 36.15 39.05 39.05q-2.9 2.9-6.775 4.55Q28.4 45.25 24 45.25Z"
     id="path2" />
  <path
     style="fill:#37c837;stroke-width:0.0667594;fill-opacity:1"
     d="M 22.164117,45.153581 C 19.358669,44.860489 17.160325,44.258449 14.861546,43.153696 8.2390434,39.971037 3.8369551,33.852178 2.926782,26.564496 c -0.15337,-1.228021 -0.15337,-3.900971 0,-5.128992 0.4982839,-3.989719 2.0426322,-7.648853 4.5581298,-10.799901 0.701909,-0.8792492 2.2933691,-2.4656153 3.1965902,-3.1863592 3.125536,-2.4940859 6.663804,-4.0120177 10.614743,-4.5537695 1.20272,-0.1649167 4.174903,-0.1666633 5.396399,-0.00317 3.86468,0.5172711 7.268562,1.9576519 10.458021,4.4253978 0.937156,0.7250962 2.648488,2.4156216 3.4052,3.3638009 1.702091,2.132763 3.192109,4.990437 3.898603,7.477052 0.901998,3.174722 1.046559,6.769499 0.402701,10.013908 -1.014978,5.114485 -4.070583,9.872292 -8.339784,12.985671 -2.306883,1.68233 -5.310709,3.028649 -8.044506,3.605561 -1.389364,0.293196 -2.278507,0.378015 -4.172462,0.398031 -1.028094,0.01087 -1.98943,0.0072 -2.1363,-0.0081 z m 2.889294,-7.168682 c 3.082362,-0.235138 5.664416,-1.38736 7.910611,-3.530049 1.879654,-1.793038 3.236825,-4.183804 3.717925,-6.549426 0.24394,-1.199475 0.287435,-1.774007 0.250071,-3.303222 -0.03943,-1.61365 -0.170004,-2.444605 -0.590349,-3.756839 -1.212014,-3.78366 -4.318849,-6.962324 -8.002309,-8.187322 -0.944424,-0.314085 -1.845872,-0.49138 -2.989926,-0.588053 l -0.953764,-0.08059 1.353943,-1.355152 1.353943,-1.3551528 -1.918997,-1.918997 -1.918998,-1.9189971 -4.656424,4.6616989 -4.656425,4.6617 4.635426,4.601063 c 2.549484,2.530585 4.652405,4.600303 4.673157,4.599374 0.02075,-9.28e-4 0.893921,-0.839765 1.940374,-1.86408 l 1.902643,-1.862391 -1.401351,-1.40713 c -0.770744,-0.773921 -1.356557,-1.406202 -1.301809,-1.405068 0.261021,0.0054 1.134051,0.141667 1.528445,0.238558 2.316731,0.569157 4.402373,2.482032 5.201842,4.770941 0.466207,1.33477 0.544847,3.204178 0.191351,4.548772 -0.337069,1.282111 -0.969983,2.373549 -1.948659,3.360399 -0.726332,0.732397 -1.270864,1.127188 -2.106647,1.527337 -0.82964,0.397208 -1.614387,0.614691 -2.524686,0.699684 -2.768106,0.258455 -5.204383,-0.869898 -6.832487,-3.164443 -0.876325,-1.235034 -1.454122,-2.949496 -1.454122,-4.314725 v -0.458571 h -2.703755 -2.703755 v 0.585896 c 0,1.641671 0.497612,3.735039 1.263454,5.315143 0.645773,1.332373 1.433327,2.448486 2.53827,3.597214 2.464231,2.561877 5.244426,3.771385 8.982699,3.907873 0.183588,0.0067 0.732727,-0.01825 1.220309,-0.05544 z"
     id="path84" />
</svg>
