<?xml version="1.0" encoding="UTF-8" standalone="no"?>
<!-- Created with Inkscape (http://www.inkscape.org/) -->

<svg
   width="406.97375mm"
   height="497.15118mm"
   viewBox="0 0 406.97377 497.15119"
   version="1.1"
   id="svg38046"
   sodipodi:docname="docx.svg"
   inkscape:version="1.1.2 (0a00cf5339, 2022-02-04)"
   xmlns:inkscape="http://www.inkscape.org/namespaces/inkscape"
   xmlns:sodipodi="http://sodipodi.sourceforge.net/DTD/sodipodi-0.dtd"
   xmlns="http://www.w3.org/2000/svg"
   xmlns:svg="http://www.w3.org/2000/svg">
  <sodipodi:namedview
     id="namedview7"
     pagecolor="#505050"
     bordercolor="#ffffff"
     borderopacity="1"
     inkscape:pageshadow="0"
     inkscape:pageopacity="0"
     inkscape:pagecheckerboard="1"
     inkscape:document-units="mm"
     showgrid="false"
     fit-margin-top="0"
     fit-margin-left="0"
     fit-margin-right="0"
     fit-margin-bottom="0"
     inkscape:zoom="0.21192011"
     inkscape:cx="389.29766"
     inkscape:cy="967.34569"
     inkscape:window-width="1440"
     inkscape:window-height="2523"
     inkscape:window-x="4000"
     inkscape:window-y="0"
     inkscape:window-maximized="1"
     inkscape:current-layer="svg38046" />
  <defs
     id="defs38043" />
  <g
     id="layer1"
     transform="translate(-446.08249,77.423674)">
    <path
       id="path38669"
       style="fill:#0066ff;fill-opacity:1;stroke:none;stroke-width:1.33333"
       d="m 4309.5117,0.27734375 c -4.7441,0.16625953 -9.5502,0.70117187 -13.4062,0.70117187 h -58.666 -205.334 -628 -156 -45.334 c -6.2815,0 -15.2052,-1.59911842 -21.1055,0.80468748 -6.8049,2.7723024 -12.5988,11.0079729 -18.8945,15.1894529 -34.1182,22.659999 -56.7575,50.445881 -80.5274,83.238284 -4.3669,6.02467 -2.1386,17.67144 -2.1386,24.76758 v 61.33203 237.33398 907.99997 c 37.272,-0.308 104.0834,7.3873 126.1816,-30.666 12.5032,-21.528 7.1524,-53.4447 7.1524,-77.334 v -169.334 -631.99995 c 0,-0.18707 -0.017,-0.42579 -0.018,-0.61328 0.6129,-73.96587 1.5363,-129.38843 2.9316,-158.12696 6.3735,-36.42376 19.9658,-69.62368 49.086,-92.56836 13.704,-10.79866 30.3113,-19.15632 46.666,-25.09765 18.5957,-6.75515 36.2353,-9.83773 55.7636,-11.27735 23.046,-0.79004 55.7999,-1.39756 95.6797,-1.82422 30.9692,0.50225 61.957,1.50782 92.5567,1.50782 h 373.334 c 2.9502,0 6.1827,-0.20052 9.1718,-0.23828 65.2397,0.88113 123.6007,1.85258 153.8672,3.27734 29.0844,5.05502 56.7508,14.54865 80.961,32.64258 35.9866,26.89466 52.8147,81.16503 53.3281,124.31836 0.3012,25.30266 -8.7814,70.56778 13.3906,88.81445 23.104,19.012 68.5299,8.38948 95.9473,8.52148 45.3546,0.21869 96.361,26.6347 119.7343,65.33204 37.92,62.81198 26.9317,140.38335 26.9317,210.66601 v 418.66597 158.668 c 0,24.9254 -2.5987,51.3292 18.668,68.8945 28.36,23.4254 80.146,17.0582 114.666,17.7715 v -763.99997 -204 -54.66601 c 0,-6.13067 2.0003,-16.59709 -1.3731,-21.98243 -5.44,-8.71333 -15.7195,-16.18021 -22.1328,-24.68554 -47.08,-62.516 -107.8801,-115.39002 -163.1601,-170.666019 -27.86,-27.859864 -54.7001,-53.443482 -88,-74.738281 -6.4254,-4.108694 -12.0386,-12.3300781 -18.8946,-15.1230469 -3.6073,-1.4695634 -8.289,-1.67211888 -13.0332,-1.50585935 z M 3384.7168,250.69727 c -9.2047,-0.24338 -18.4103,0.33533 -27.2773,1.51367 -33.9801,4.51733 -65.2849,26.38826 -67.8809,63.43359 -1.4067,20.05334 5.3103,39.35668 9.6797,58.66602 7.656,33.83866 16.0084,67.83931 25.0683,101.33398 51.0534,188.73066 95.2135,379.65135 142.6348,569.33397 13.264,53.0586 23.4354,108.096 40.7207,160 7.4173,22.2747 15.6858,48.6629 33.8965,64.7149 35.2386,31.0626 111.125,22.9678 135.793,-16.7149 21.8853,-35.2053 31.5166,-79.6226 44.5312,-118.668 l 72,-215.99995 c 10.6454,-31.93334 19.8325,-65.04669 33.0899,-96 3.8093,-8.89202 11.1094,-26.61573 23.7988,-23.28907 2.318,0.60784 4.3251,1.83403 6.1875,3.3086 4.9505,5.91866 10.8651,17.8515 17.9922,35.00976 9.9533,27.17254 18.6744,54.86716 27.8203,82.30469 l 79.5566,238.66597 c 11.788,35.364 20.6799,83.6476 48.6719,110.2676 22.7774,21.6613 64.0388,21.1533 93.1055,15.7813 25.356,-4.6854 40.0534,-22.7775 50.9961,-44.7149 17.816,-35.72 24.1155,-76.3713 34.1836,-114.666 44.2586,-168.32927 84.437,-337.81463 126.6503,-506.66795 l 10.002,-40 c 12.5173,-50.71867 40.1886,-122.56804 -24.498,-150.83203 -14.3267,-6.26001 -28.6707,-6.5 -44,-6.5 -29.2161,0 -55.1718,4.41179 -77.3145,25.45312 -20.2387,19.232 -28.3509,47.54089 -36.9082,73.21289 -16.1173,48.35333 -29.0713,97.19668 -41.2793,146.66602 -6.8107,27.59731 -12.6573,55.73596 -21.8359,82.66797 -2.6174,7.68 -8.0341,24.08784 -18.6621,23.11718 -11.244,-1.02799 -17.3222,-18.42117 -20.8008,-27.11718 -11.6774,-29.19066 -20.8159,-59.51533 -30.7559,-89.33399 -14.3347,-43.00666 -29.8169,-85.82332 -42.5449,-129.33398 -19.8134,-67.74 -36.0878,-136.69402 -61.6465,-202.66602 -17.0587,-44.03066 -51.1639,-88.3229 -104.2519,-67.37891 -37.2814,14.70667 -51.2054,66.3249 -62.668,100.7129 -31.6347,94.90531 -56.7767,191.66335 -88.4434,286.66601 -10.828,32.48134 -20.7018,65.53531 -33.4219,97.33399 -3.4599,8.65198 -9.1754,27.03621 -20.8007,27.32421 -13.528,0.33449 -18.3766,-23.04217 -21.3672,-32.6582 -11.4334,-36.744 -21.716,-73.23535 -30.8067,-110.66601 -19.9106,-81.98667 -37.1421,-166.61598 -63.8261,-246.66797 -10.856,-32.56934 -18.8471,-70.7227 -41.7325,-97.33203 -18.435,-21.435 -46.042,-29.55113 -73.6562,-30.28125 z m 146.6855,1130.32613 c -11.0568,-0.1612 -21.7415,0.558 -31.2968,1.8614 -55.8654,7.6 -41.334,76.4271 -41.334,118.0937 v 90.666 c 0,15.4934 0.418,33.4659 12.1406,45.1993 19.3453,19.3332 64.5053,13.934 89.1934,10.414 9.5733,-1.36 18.984,-4.7742 28,-8.1875 56.4413,-21.3067 54.666,-81.0258 54.666,-131.4258 0,-33.3333 -0.4566,-66.0273 -22.2246,-93.334 -19.451,-24.39 -55.974,-32.8033 -89.1446,-33.2871 z m 448.2852,0.8692 c -3.9002,0.144 -7.7732,0.4749 -11.582,0.9765 -10.1854,1.3467 -19.822,2.2396 -29.334,6.5196 -52.1053,23.4666 -56,73.3079 -56,123.5879 0,25.1733 -2.3085,54.946 7.2715,78.666 20.0053,49.5333 78.1711,68.961 127.3965,53.041 32.5053,-10.5067 66.8844,-59.1609 40.623,-91.6543 -9.6653,-11.9466 -26.2311,-11.4 -37.9551,-3 -18.5253,13.2667 -36.5941,47.7334 -62.5488,24 -3.604,-3.3067 -6.6203,-7.4674 -8.9883,-11.7207 -13.5667,-24.3867 -12.9187,-62.6533 -2.5254,-88 5.216,-12.72 17.5026,-26.7596 32.7266,-24.9063 26.0946,3.1734 45.9289,57.6801 75.8769,32.3868 19.7547,-16.6934 10.9247,-52.4665 -2.2246,-70.1465 -16.8303,-22.6217 -45.4351,-30.7581 -72.7363,-29.75 z m -215.623,0.3379 c -2.6436,0.079 -5.2996,0.2895 -7.959,0.6386 -10.6734,1.4134 -20.6634,2.0129 -30.666,6.5196 -53.2027,23.96 -56,75.2139 -56,126.2539 0,22.7866 -1.593,48.7593 5.371,70.666 14.9654,47.0933 60.4876,67.0273 106.629,60.9473 29.8919,-3.9467 54.202,-26.214 66.25,-52.9473 9.3799,-20.8133 8.416,-46.9187 8.416,-69.332 0,-24.88 2.2336,-53.2274 -4.5703,-77.334 -10.7475,-38.075 -47.8181,-66.5986 -87.4707,-65.4121 z m 367.1015,8.0879 c -1.8034,0.036 -3.7077,0.2552 -5.7265,0.6836 -16.9507,3.6 -23.8324,19.3333 -22.543,35.3066 2.6107,32.3466 30.1778,56.1346 27.7578,90.668 -2.1306,30.4 -41.6026,68.6393 -24.5039,98.666 2.1453,3.76 5.0572,7.0799 8.6426,9.5332 26.7466,18.3067 42.9546,-14.7465 57.5586,-30.8399 4.84,-5.3466 12.0325,-11.1195 19.7539,-9.5195 26.04,5.4 29.7273,53.2806 62.666,44.2539 13.7987,-3.7867 22.6034,-18.0671 20.9433,-32.0937 -3.7339,-31.5522 -26.2543,-55.5315 -27.3281,-87.586 0.1556,-5.5392 0.7702,-11.1704 1.875,-17.0117 8.1462,-28.2303 38.1013,-62.9462 20.9063,-88.7363 -2.4667,-3.6933 -5.9312,-7.0137 -9.7285,-9.3203 -23.252,-14.1467 -39.8074,12.4396 -51.6661,27.9863 -5.1706,6.7867 -13.4992,15.4542 -23.0019,13.4941 -24.3063,-5.0374 -28.5539,-46.0272 -55.6055,-45.4843 z m -591.4687,57.0605 c 17.3315,0.3819 31.7579,15.553 38.2539,30.9297 13.3333,31.56 11.2843,94.8803 -31.1797,104.6269 -16.768,3.8534 -28.9614,-5.6789 -32.4414,-21.9589 -5.3707,-25.1334 -3.836,-55.9207 -1.1133,-81.334 1.3347,-12.4534 4.4087,-28.1471 18.8887,-31.4805 2.5798,-0.5917 5.1158,-0.8378 7.5918,-0.7832 z m 222.3808,1.6777 c 16.1619,-0.7381 26.8795,14.0075 32.127,27.92 10.52,27.8933 12.1397,98.1459 -27.4336,104.8925 -18.0134,3.0667 -29.8343,-12.7205 -35.4317,-27.5605 -10.5199,-27.8933 -12.1416,-98.1459 27.4317,-104.8926 1.1258,-0.1916 2.2292,-0.3102 3.3066,-0.3594 z m -681.9726,207.918 v 0 81.332 c 0,11.3867 -2.5364,26.2148 0.4238,37.2148 2.1049,7.8267 12.7687,15.7185 17.3203,22.7852 16.1654,25.08 34.9412,43.2266 58.2559,61.6133 6.0497,4.7733 12.2861,14.5879 19.0996,17.5879 7.5503,3.32 20.7266,0.7988 28.9004,0.7988 h 66.666 233.334 725.334 206.666 58.666 c 7.48,0 19.3069,2.2412 26.2402,-0.7988 6.4267,-2.84 12.1064,-12.0133 17.7598,-16.5332 21.5333,-17.1734 39.9872,-34.1067 56.8672,-56 5.0933,-6.6 17.8543,-15.2396 20.041,-22.9063 3.2933,-11.56 0.4258,-27.7484 0.4258,-39.7617 v -85.332 c -23.4534,1.0133 -47.1861,2.386 -70.666,2.666 -19.3334,0.2267 -39.2407,-1.7868 -57.334,6.5332 -16.4267,7.5467 -28.4927,22.5063 -42.666,33.293 -27.36,20.8132 -63.856,40.5739 -98.668,43.9472 -44.8214,4.3334 -90.9614,1.5606 -136,1.5606 h -238.666 c -199.796,0 -400.272,4.8795 -600,-0.016 -41.316,-1.0133 -81.09,-16.6005 -114.666,-40.5605 -16.656,-11.88 -30.5687,-29.5999 -49.334,-38.2266 -18.0979,-8.32 -38.0031,-6.3065 -57.334,-6.5332 -23.4806,-0.28 -47.1842,-2.466 -70.666,-2.666 z"
       transform="matrix(0.26458333,0,0,0.26458333,-368.59446,-77.484164)" />
  </g>
  <g
     id="layer4"
     transform="translate(-814.67695,-0.06048998)" />
</svg>
