<?xml version="1.0" encoding="UTF-8" standalone="no"?>
<!-- Created with Inkscape (http://www.inkscape.org/) -->

<svg
   width="406.97372mm"
   height="497.1517mm"
   viewBox="0 0 406.97373 497.15171"
   version="1.1"
   id="svg38046"
   sodipodi:docname="epub.svg"
   inkscape:version="1.1.2 (0a00cf5339, 2022-02-04)"
   xmlns:inkscape="http://www.inkscape.org/namespaces/inkscape"
   xmlns:sodipodi="http://sodipodi.sourceforge.net/DTD/sodipodi-0.dtd"
   xmlns="http://www.w3.org/2000/svg"
   xmlns:svg="http://www.w3.org/2000/svg">
  <sodipodi:namedview
     id="namedview7"
     pagecolor="#505050"
     bordercolor="#ffffff"
     borderopacity="1"
     inkscape:pageshadow="0"
     inkscape:pageopacity="0"
     inkscape:pagecheckerboard="1"
     inkscape:document-units="mm"
     showgrid="false"
     fit-margin-top="0"
     fit-margin-left="0"
     fit-margin-right="0"
     fit-margin-bottom="0"
     inkscape:zoom="0.21192011"
     inkscape:cx="950.83003"
     inkscape:cy="1156.0961"
     inkscape:window-width="1440"
     inkscape:window-height="2523"
     inkscape:window-x="4000"
     inkscape:window-y="0"
     inkscape:window-maximized="1"
     inkscape:current-layer="svg38046" />
  <defs
     id="defs38043" />
  <g
     id="layer1"
     transform="translate(-852.48248,77.423674)">
    <path
       id="path38707"
       style="fill:#37c837;fill-opacity:1;stroke:none;stroke-width:1.33333"
       d="m 5845.5117,0.27734375 c -4.7441,0.16625953 -9.5502,0.70117187 -13.4062,0.70117187 h -58.666 -205.334 -628 -156 -45.334 c -6.2815,0 -15.2052,-1.59911842 -21.1055,0.80468748 -6.8049,2.7723024 -12.5988,11.0079729 -18.8945,15.1894529 -34.1182,22.659999 -56.7575,50.445881 -80.5274,83.238284 -4.3669,6.02467 -2.1386,17.67144 -2.1386,24.76758 v 61.33203 237.33398 907.99997 c 37.272,-0.308 104.0834,7.3873 126.1816,-30.666 12.5032,-21.528 7.1524,-53.4447 7.1524,-77.334 v -169.334 -631.99995 c 0,-78.90667 -19.1755,-195.22727 52,-251.3086 13.704,-10.79866 30.3113,-19.15632 46.666,-25.09765 11.7095,-4.25362 23.1726,-6.77267 34.8164,-8.64453 31.2883,-1.6286 94.8722,-2.70238 165.9082,-3.6543 14.4345,0.28563 28.9683,0.70508 43.2754,0.70508 h 373.334 c 19.5003,0 39.9366,-0.92336 60.623,-1.57227 31.0596,0.41977 59.3237,0.90996 78.8828,1.58594 37.6801,3.55549 73.8352,12.75455 104.4942,35.66797 30.2068,22.57531 46.755,64.39838 51.6464,102.78515 0.7464,7.07483 1.1588,14.47808 1.6641,21.97071 0.2014,24.98357 -8.5417,69.37388 13.375,87.04297 20.7269,16.70799 60.5733,7.4896 85.3145,8.57226 49.7453,2.17867 103.6538,22.32057 130.4003,66.61524 15.9777,26.46587 23.0192,55.60879 26.1114,85.66601 0.9238,12.70527 1.7031,27.00118 2.2968,44.06445 0.066,27.22844 -1.4765,54.59404 -1.4765,80.93555 v 418.66597 158.668 c 0,24.9254 -2.5987,51.3292 18.668,68.8945 28.36,23.4254 80.146,17.0582 114.666,17.7715 v -763.99997 -204 -54.66601 c 0,-6.13067 2.0002,-16.59709 -1.3731,-21.98243 -5.4399,-8.71333 -15.7193,-16.18021 -22.1328,-24.68554 -47.0801,-62.516 -107.8804,-115.39002 -163.1601,-170.666019 -27.8601,-27.859864 -54.6998,-53.443482 -88,-74.738281 -6.4252,-4.108694 -12.0385,-12.3300781 -18.8946,-15.1230469 -3.6073,-1.4695634 -8.289,-1.67211888 -13.0332,-1.50585935 z M 5382.8105,210.14062 c -2.6343,0.0828 -5.3136,0.33011 -8.039,0.75586 -28.9973,4.52934 -49.4669,24.88272 -69.332,44.74805 l -68,68 -305.334,305.33399 -64,64 c -22.5254,22.5253 -46.7653,49.49336 -42.2813,84 5.552,42.71735 47.2259,72.94271 75.6153,101.33203 l 202.666,202.66795 189.334,189.332 c 26.5319,26.532 56.6954,62.4026 98.666,56.9493 29.5389,-3.8387 50.6119,-24.8933 70.6679,-44.9493 l 74.6661,-74.666 332,-331.99997 c 37.0718,-37.07199 94.2927,-81.3573 64.9726,-140 -4.8518,-9.70397 -11.286,-18.61135 -18.5351,-26.66601 -17.5095,-19.45467 -44.5615,-52.97562 -74.4375,-47.37696 -17.952,3.36267 -31.664,17.70697 -44,30.04297 l -61.334,61.33399 -245.334,245.33203 c -12.5849,12.58485 -25.0699,25.32305 -37.6934,37.91405 -21.4199,20.2968 -38.7017,36.2881 -49.9121,46.0723 -5.6465,3.8545 -11.8196,6.6426 -19.0605,6.6426 -19.9559,0 -37.6966,-21.6796 -50.666,-34.629 l -102.668,-102.66597 -121.332,-121.33398 c -14.584,-14.58403 -41.1319,-34.53334 -44.8946,-56 -2.7706,-15.80667 8.1137,-28.00465 18.1817,-38.66602 14.908,-15.78932 30.0095,-31.29668 45.3789,-46.66601 l 170.666,-170.66797 c 16.2667,-16.26667 32.266,-32.81056 49.334,-48.22657 2.7235,-2.45962 5.5674,-5.01291 8.3769,-7.55664 5.2312,-4.23116 9.5378,-7.36102 13.2071,-9.72656 2.0591,-1.07835 4.1412,-2.11757 6.416,-2.77148 11.3718,-3.268 21.7006,1.36043 30.666,8.14843 19.1013,14.46133 37.6389,33.31549 52.4414,52.13282 7.5813,9.63733 12.9826,20.98465 8.748,33.33398 -7.3999,21.58133 -32.1795,40.324 -47.8554,56 l -106.666,106.66602 c -21.8242,21.82401 -48.2308,45.61732 -50.5469,78.66797 -4.4584,63.60399 77.3589,127.53066 135.8789,95.58398 29.5653,-16.1413 52.4604,-45.37665 76.0019,-68.91797 l 129.3321,-129.33398 62.6679,-62.66602 c 13.7507,-13.75066 29.0715,-26.936 38.834,-44 26.9496,-47.10133 -4.4099,-81.57402 -37.5019,-114.66601 l -190.666,-190.66797 c -25.6376,-25.6375 -55.1139,-61.4112 -94.629,-60.16993 z m -94.2304,1169.92578 c -14.0112,0.058 -27.6531,1.2534 -39.1406,2.8184 -17.0238,2.3066 -31.3483,7.4797 -38.043,24.7597 -6.528,16.8534 -3.291,38.2534 -3.291,56 v 113.334 c 0,20.9467 -2.6473,61.5462 29.334,58.5195 27.6986,-2.6133 23.3092,-46.9858 42.6679,-61.8125 14.5932,-11.1733 33.6446,-8.7216 50.666,-11.9882 17.9891,-3.4534 34.583,-14.0121 45.4336,-28.7188 28.7214,-38.9333 20.6989,-115.3605 -22.7675,-140.1738 -17.131,-9.775 -41.5075,-12.8357 -64.8594,-12.7383 z m 417.7383,0.4004 c -10.7454,0.1887 -21.1279,1.1813 -30.2129,2.418 -59.6946,8.12 -44,88.093 -44,132.7597 0,28.0134 -1.5877,57.5874 2.1015,85.334 1.4748,11.0933 1.8009,22.8 9.086,32 7.892,9.96 18.0743,13.3054 30.1465,15.0254 25.4838,3.64 55.8788,2.8806 81.332,-0.7461 8.4506,-1.2 16.5199,-3.9207 24,-8.0273 54.0227,-29.6667 36.9283,-95.4387 23.2324,-142.252 -7.6853,-26.28 -2.739,-56.5873 -14.3281,-81.334 -13.61,-29.07 -49.1213,-35.744 -81.3574,-35.1777 z m -642.2735,1.2012 c -9.4406,-0.1667 -18.8608,-0.023 -27.9394,1.2168 -1.4038,0.1908 -2.5609,0.6176 -3.8789,0.8906 h -2.0293 l -1.3008,0.7656 c -49.8549,13.6451 -34.125,89.567 -34.125,131.1035 v 70.666 c 0,14.7734 -0.6894,30.8267 7.1387,44 7.0946,11.9334 18.5613,15.8401 31.5293,17.6934 20.384,2.92 42.0873,0.9746 62.666,0.9746 16.1639,0 33.7846,1.6936 49.334,-3.6797 19.8693,-6.8667 24.4561,-32.5999 5.3281,-43.6133 -15.8895,-9.1422 -35.4876,-6.028 -53.8906,-6.6953 -7.3853,-0.69 -13.5899,-1.6163 -18.7227,-2.8574 -10.5733,-3.3338 -22.6598,-11.9568 -21.4863,-24.4883 3.3066,-35.2933 70.0954,-15.2266 62.998,-56 -4.024,-23.1199 -29.8812,-19.866 -46.2265,-27.3593 -8.968,-4.1067 -18.5329,-13.8807 -16.5743,-24.6407 2.3721,-13.0133 15.3056,-19.8927 27.2403,-22.0527 21.9386,-3.9467 53.902,4.6526 71.8593,-11.7207 14.8387,-13.5334 5.3366,-35.0266 -11.8593,-40.3066 -16.5374,-5.0667 -34.9414,-3.254 -52,-3.254 -9.1587,0 -18.6199,-0.4759 -28.0606,-0.6425 z m 512.625,13.5293 c -18.8746,-0.8178 -26.7942,23.4489 -27.2109,40.4472 -0.4395,17.926 1.0891,37.3652 1.4922,56.6875 0.01,1.3031 0.01,2.4048 0.01,3.6328 0.2443,19.3046 -0.7848,38.4171 -6.416,55.6797 -4.9213,15.08 -15.2503,34.2275 -33.7715,33.1875 -17.1639,-0.96 -26.4215,-18.8275 -31.1054,-33.1875 -11.2615,-34.52 -4.723,-77.4273 -4.8965,-113.334 -0.087,-18.36 -7.232,-47.8123 -32,-41.9589 -12.8587,3.0399 -18.9189,15.2396 -20.9512,27.2929 -4.0172,23.8134 -1.7148,49.2273 -1.7148,73.334 0,48.8533 -6.6228,127.7862 52,147.5195 11.4746,3.8667 23.9799,4.4805 36,4.4805 12.3666,0 25.2206,0.3736 37.334,-2.5332 73.7907,-17.6666 60,-119.7081 60,-176.1348 0,-20.8933 4.3428,-63.5994 -20,-73.1328 -3.1537,-1.235 -6.0732,-1.8636 -8.7696,-1.9804 z m -282.5234,45.4336 c 8.561,-0.1091 15.5397,3.1787 20.7324,8.2129 0.3058,0.3067 0.6128,0.6105 0.9102,0.9277 15.1487,16.0239 12.8715,48.1788 -17.0176,54.5137 -37.5882,7.9733 -47.9399,-54.9738 -12,-62.7872 2.5663,-0.5583 5.0281,-0.8372 7.375,-0.8671 z m 419.293,6.4804 c 18.4674,0 19.4329,26.1207 3.0293,29.1563 -0.7288,0.089 -1.4898,0.1684 -2.3301,0.2304 -0.8052,0.059 -1.5283,0.033 -2.2871,0.041 -17.8982,-1.7641 -17.442,-29.4278 1.5879,-29.4278 z m 12.1035,99.4414 c 25.6762,1.5976 28.469,38.5719 -0.1035,42.1719 -32.5456,4.1067 -37.5394,-38.1467 -5.334,-42 1.9126,-0.2283 3.7257,-0.2784 5.4375,-0.1719 z m -1109.4375,110.4239 v 0 81.332 c 0,11.3867 -2.5364,26.2149 0.4238,37.2149 2.1049,7.8266 12.7687,15.7185 17.3203,22.7851 16.1654,25.08 34.9412,43.2267 58.2559,61.6133 6.0497,4.7734 12.2861,14.5879 19.0996,17.5879 7.5503,3.32 20.7266,0.7988 28.9004,0.7988 h 66.666 233.334 725.334 206.666 58.666 c 7.48,0 19.3067,2.2412 26.2402,-0.7988 6.4263,-2.84 12.1083,-12.0132 17.7617,-16.5332 21.5331,-17.1733 39.9855,-34.1067 56.8653,-56 5.0933,-6.6 17.8542,-15.2415 20.041,-22.9082 3.2931,-11.56 0.4258,-27.7464 0.4258,-39.7598 v -85.332 c -23.4535,1.0133 -47.1857,2.386 -70.666,2.666 -19.3331,0.2268 -39.2407,-1.7868 -57.334,6.5332 -16.4266,7.5467 -28.4928,22.5063 -42.666,33.293 -22.7642,17.3171 -51.8546,33.7617 -81.0352,40.7891 -19.2074,2.7434 -47.2921,4.4247 -84.0684,5.5488 -23.2616,-0.1302 -46.5555,-0.8301 -69.5644,-0.8301 h -238.666 c -82.7965,0 -165.7357,0.8826 -248.6641,1.5156 l -325.0098,-1.1679 c -8.7712,-0.1785 -17.5577,-0.1484 -26.3261,-0.3633 -41.316,-1.0133 -81.09,-16.6005 -114.666,-40.5606 -16.656,-11.88 -30.5687,-29.5998 -49.334,-38.2265 -18.0979,-8.32 -38.0031,-6.3065 -57.334,-6.5332 -23.4806,-0.2801 -47.1842,-2.466 -70.666,-2.666 z"
       transform="matrix(0.26458333,0,0,0.26458333,-368.59446,-77.484164)" />
  </g>
  <g
     id="layer4"
     transform="translate(-1221.0769,-0.06048998)" />
</svg>
