<?xml version="1.0" encoding="UTF-8" standalone="no"?>
<!-- Created with Inkscape (http://www.inkscape.org/) -->

<svg
   width="408.85062mm"
   height="497.15152mm"
   viewBox="0 0 408.85063 497.15152"
   version="1.1"
   id="svg38046"
   sodipodi:docname="pdf.svg"
   inkscape:version="1.1.2 (0a00cf5339, 2022-02-04)"
   xmlns:inkscape="http://www.inkscape.org/namespaces/inkscape"
   xmlns:sodipodi="http://sodipodi.sourceforge.net/DTD/sodipodi-0.dtd"
   xmlns="http://www.w3.org/2000/svg"
   xmlns:svg="http://www.w3.org/2000/svg">
  <sodipodi:namedview
     id="namedview7"
     pagecolor="#505050"
     bordercolor="#ffffff"
     borderopacity="1"
     inkscape:pageshadow="0"
     inkscape:pageopacity="0"
     inkscape:pagecheckerboard="1"
     inkscape:document-units="mm"
     showgrid="false"
     inkscape:zoom="0.21192011"
     inkscape:cx="455.36029"
     inkscape:cy="1165.5336"
     inkscape:window-width="1440"
     inkscape:window-height="2523"
     inkscape:window-x="4000"
     inkscape:window-y="0"
     inkscape:window-maximized="1"
     inkscape:current-layer="svg38046"
     fit-margin-top="0"
     fit-margin-left="0"
     fit-margin-right="0"
     fit-margin-bottom="0" />
  <defs
     id="defs38043" />
  <g
     id="layer1"
     transform="translate(368.59446,77.423512)">
    <path
       style="fill:#ef1a1a;fill-opacity:1;stroke:none;stroke-width:0.352778"
       d="m -366.44983,274.8468 c 9.86155,-0.0815 27.53886,1.95439 33.38569,-8.11388 3.30814,-5.69595 1.89209,-14.1404 1.89209,-20.46111 V 201.46903 34.25237 c 0,-20.877388 -5.07351,-51.654073 13.75833,-66.492258 3.62585,-2.857147 8.02005,-5.068358 12.34722,-6.640336 5.05672,-1.836914 9.8291,-2.670175 15.16945,-3.036006 16.29621,-1.116012 33.05033,-0.0314 49.38888,-0.0314 h 98.77778 c 21.2217,0 46.450601,-4.092821 64.558331,9.440333 9.521472,7.11588 13.97388,21.475347 14.109699,32.89299881 0.07832,6.59094699 -2.293761,18.44710219 3.534481,23.14574919 5.48393,4.420658 16.026341,1.981553 22.572485,2.268008 13.161786,0.576439 27.4249441,5.9055 34.5016662,17.62513 10.0329997,16.619007 7.1261109,37.143265 7.1261109,55.738886 V 209.9357 251.91625 c 0,6.59483 -0.6879167,13.58089 4.9388888,18.22838 7.5035831,6.19795 21.2054721,4.51344 30.3388881,4.70217 V 72.705146 18.730148 4.2662602 c 0,-1.6220722 0.529167,-4.39102481 -0.363361,-5.8158942 -1.439333,-2.3054027 -4.15925,-4.2809581 -5.856111,-6.5313275 C 21.274105,-24.621652 5.1874386,-38.611407 -9.4387277,-53.236515 -16.810019,-60.607771 -23.911436,-67.376906 -32.72206,-73.011155 c -1.700037,-1.087092 -3.184878,-3.262411 -4.998861,-4.001384 -1.908881,-0.777644 -4.955117,-0.212864 -6.995584,-0.212864 h -15.522221 -54.327774 -166.15833 -41.275 -11.99445 c -1.66197,0 -4.02343,-0.423143 -5.58454,0.212864 -1.80047,0.733505 -3.33304,2.912743 -4.99879,4.019093 -9.02709,5.995458 -15.01747,13.346994 -21.30658,22.023316 -1.15542,1.594027 -0.56564,4.67554 -0.56564,6.553059 V -28.189294 34.605148 274.8468 M -199.58595,-2.2869395 c -13.76291,1.82915268 -21.51873,16.7618825 -21.51944,29.8365325 -3.5e-4,5.038019 -0.31256,10.187869 0.56974,15.169443 3.25437,18.377958 14.02397,36.29554 22.8226,52.563887 3.95464,7.312727 10.81652,15.845367 9.66682,24.694447 -1.2132,9.3352 -5.40279,18.63125 -8.36472,27.51666 -1.87007,5.60987 -3.74191,11.78878 -8.46807,15.71096 -8.04228,6.67491 -19.67336,8.6547 -29.27915,12.17718 -13.6338,4.99992 -29.89015,15.16557 -37.44242,27.85075 -10.63942,17.87066 -7.92303,44.40484 13.80631,52.3187 3.49427,1.27247 7.23336,1.69898 10.93611,1.65489 12.45094,-0.14817 26.35144,-8.1026 33.24966,-18.34304 4.07635,-6.0519 6.1976,-13.10428 9.03076,-19.75555 2.10996,-4.95265 4.6609,-9.70774 6.40186,-14.81667 4.01919,-11.79618 6.62446,-26.664 20.10939,-30.976 6.24381,-1.99637 12.70212,-2.80035 19.05,-4.26191 5.85928,-1.34938 11.59404,-3.48862 17.63889,-1.83162 4.05024,1.11019 7.31449,3.92571 10.58333,6.41879 4.85105,3.69958 9.77688,7.4489 14.81667,10.88496 6.50063,4.4323 13.44118,7.87611 20.461107,11.38625 13.763624,6.88164 26.267127,11.93271 41.980554,10.43623 4.228747,-0.40252 7.858831,-1.66229 11.641667,-3.55495 3.329516,-1.66581 6.568722,-3.52213 9.140472,-6.26427 16.380177,-17.46567 -4.999567,-39.14881 -22.898805,-43.30735 -7.265459,-1.68769 -14.530211,-2.62114 -21.872222,-3.76026 -4.276372,-0.66357 -8.356247,-1.99072 -12.7,-2.28847 -6.988527,-0.47837 -14.160853,-0.0314 -21.166663,-0.0314 -10.05981,0 -19.34316,4.64291 -28.22222,-2.29905 -5.80355,-4.53743 -9.46927,-10.52301 -14.15839,-16.04539 -5.0934,-5.99863 -11.81735,-11.66389 -13.47611,-19.75555 -1.52788,-7.45243 1.15464,-14.615587 2.13254,-21.872226 0.83609,-6.201833 0.23495,-12.474927 0.86713,-18.697221 0.3295,-3.242028 1.52153,-6.306255 1.9551,-9.525 1.03081,-7.647163 1.24213,-16.730485 -0.11501,-24.341665 -3.13514,-17.583502 -16.98166,-39.5760207 -37.17749,-36.8920875 m 8.81945,36.2927175 c 5.2705,-0.776463 8.5852,3.15595 10.29617,7.654925 3.00778,7.909277 2.19534,18.864791 1.40547,27.163888 -0.32279,3.389136 -0.26741,11.306527 -4.99922,11.898488 -4.70782,0.589139 -7.1321,-7.154686 -8.39858,-10.487377 -2.93687,-7.728303 -6.77333,-16.695913 -6.77051,-25.047221 0.002,-5.313539 2.76402,-10.342739 8.46667,-11.182703 m 17.28646,99.870322 c 2.04929,-0.44767 3.84528,0.68122 5.29096,2.00943 3.37573,3.10127 11.72034,10.23337 9.92964,15.48765 -1.55681,4.56812 -10.11802,5.17913 -14.16262,5.99722 -1.17439,0.23777 -2.32762,0.3743 -3.52777,0.3489 -8.5531,-0.18274 -4.33811,-10.37379 -2.97075,-15.16416 0.85161,-2.98414 1.86479,-7.89799 5.44054,-8.67904 m 70.5552,28.19788 c 6.84742,-1.20332 13.687781,1.57692 20.108336,3.5105 5.286728,1.59243 10.575925,2.7245 15.522222,5.2839 5.159375,2.67018 8.799689,10.13072 1.058334,12.33064 -3.994503,1.13559 -8.559448,-0.23565 -12.347222,-1.4859 -7.948789,-2.62325 -15.72895,-6.10552 -22.93056,-10.39001 -3.6957,-2.19851 -8.89352,-7.93432 -1.41111,-9.24913 m -115.00555,25.74255 c 8.71185,-1.25554 6.21171,7.65881 3.96205,12.59417 -4.50427,9.87989 -9.90036,22.94819 -22.30649,24.28028 -10.68458,1.14758 -14.99906,-8.76476 -10.27924,-17.22473 3.84069,-6.88446 10.20727,-9.99984 16.62924,-13.99963 3.63079,-2.26166 7.66515,-5.02603 11.99444,-5.65009 m -9.17222,100.58752 c -4.54519,0.61736 -8.39752,2.25425 -10.03723,6.90386 -1.67817,4.75545 -0.89888,10.56217 -0.89888,15.52223 v 29.28055 c 0,5.207 -0.26917,16.01611 7.76111,15.10242 7.38575,-0.83961 6.08612,-12.34017 11.28924,-16.32656 3.86115,-2.95628 8.90164,-2.30717 13.4052,-3.17147 4.75968,-0.91369 9.15035,-3.70769 12.02126,-7.59883 7.59918,-10.30111 5.47652,-30.52234 -6.02404,-37.08753 -7.23018,-4.1275 -19.43946,-3.72533 -27.51666,-2.62467 m 56.44444,0 c -14.95566,2.03553 -11.28889,20.11186 -11.28889,31.24553 0,7.89164 0.35278,15.73742 0.35278,23.63611 0,4.20511 0.018,9.11578 3.21204,12.31194 5.11846,5.11528 17.06704,3.68653 23.59907,2.7552 2.53295,-0.35983 5.02285,-1.26295 7.40833,-2.16606 15.1123,-5.70441 14.46389,-21.29366 14.46389,-34.7733 0,-8.59367 0.11783,-17.25436 -5.4744,-24.34167 -6.97865,-8.84414 -21.89974,-10.08239 -32.27282,-8.66775 m 56.44444,0 c -10.39424,1.41464 -11.28888,9.58145 -11.28888,18.54553 v 32.45555 c 3.5e-4,5.37634 -0.078,16.74284 8.11388,15.80798 8.76159,-1.00189 4.9964,-14.38275 8.45468,-19.68853 3.31082,-5.08 8.73795,-3.82411 13.416136,-6.36764 2.414763,-1.31233 3.893255,-3.92642 3.412772,-6.68514 -1.096081,-6.29708 -8.242648,-5.1823 -12.583588,-7.40833 -2.65818,-1.3582 -4.94347,-4.35328 -3.70981,-7.40833 3.88303,-9.6132 19.055648,-1.96145 25.566514,-7.8352 4.094339,-3.69358 1.58997,-9.29569 -3.159478,-10.78441 -4.010024,-1.25589 -8.558388,-0.78317 -12.699999,-0.78317 -5.074707,0 -10.492317,-0.53622 -15.522227,0.15169 m -103.0111,15.50811 c 10.86414,-2.36361 14.54326,14.20284 3.175,16.61231 -9.94516,2.10961 -12.68413,-14.54503 -3.175,-16.61231 m 55.03333,1.76389 c 5.46065,-1.25236 10.16564,3.3267 12.12991,7.97631 3.52778,8.35025 2.98626,25.10366 -8.24936,27.68247 -4.43653,1.01953 -7.66268,-1.50283 -8.58343,-5.81025 -1.42099,-6.64986 -1.01494,-14.7955 -0.29457,-21.51944 0.35313,-3.29495 1.16628,-7.44714 4.99745,-8.32909 m -204.14618,86.614 c 0.55692,2.0708 3.3783,4.15925 4.58258,6.02897 4.27708,6.63575 9.24493,11.43706 15.4136,16.30186 1.60066,1.26295 3.25074,3.85939 5.05347,4.65314 1.99768,0.87842 5.4839,0.21167 7.64653,0.21167 h 17.63889 61.73611 191.911107 54.6805542 15.5222218 c 1.9790833,0 5.108222,0.59266 6.942667,-0.21167 1.700388,-0.75142 3.203222,-3.17853 4.698999,-4.37444 5.697361,-4.54378 10.579806,-9.02406 15.045972,-14.81667 1.347611,-1.74625 4.723695,-4.03225 5.30225,-6.06072 0.871361,-3.05859 0.112889,-7.34131 0.112889,-10.51983 v -22.57778 c -6.205361,0.26811 -12.484805,0.63147 -18.697222,0.70555 -5.115277,0.06 -10.38225,-0.47272 -15.1694438,1.72861 -4.3462221,1.99673 -7.538861,5.95489 -11.2888886,8.80887 -7.2389996,5.50686 -16.8948806,10.73502 -26.1055546,11.62755 -11.858978,1.14653 -24.066853,0.41275 -35.983333,0.41275 H -130.4415 c -52.86269,0 -105.9053,1.29117 -158.75,-0.004 -10.93152,-0.26811 -21.45524,-4.39208 -30.33889,-10.7315 -4.4069,-3.14325 -8.08778,-7.83166 -13.05277,-10.11414 -31.84001,-8.1234 -40.79822,-3.03513 -33.75452,28.93178 z"
       id="path38593" />
  </g>
  <g
     id="layer4"
     transform="translate(-1.8229372e-8,-0.06065227)" />
</svg>
