<?xml version="1.0" encoding="UTF-8" standalone="no"?>
<!-- Created with Inkscape (http://www.inkscape.org/) -->

<svg
   width="407.1051mm"
   height="497.56558mm"
   viewBox="0 0 407.10511 497.56559"
   version="1.1"
   id="svg38046"
   sodipodi:docname="web.svg"
   inkscape:version="1.1.2 (0a00cf5339, 2022-02-04)"
   xmlns:inkscape="http://www.inkscape.org/namespaces/inkscape"
   xmlns:sodipodi="http://sodipodi.sourceforge.net/DTD/sodipodi-0.dtd"
   xmlns="http://www.w3.org/2000/svg"
   xmlns:svg="http://www.w3.org/2000/svg">
  <sodipodi:namedview
     id="namedview14"
     pagecolor="#505050"
     bordercolor="#ffffff"
     borderopacity="1"
     inkscape:pageshadow="0"
     inkscape:pageopacity="0"
     inkscape:pagecheckerboard="1"
     inkscape:document-units="mm"
     showgrid="false"
     fit-margin-top="0"
     fit-margin-left="0"
     fit-margin-right="0"
     fit-margin-bottom="0"
     inkscape:zoom="0.21192011"
     inkscape:cx="408.17269"
     inkscape:cy="1057.0021"
     inkscape:window-width="1440"
     inkscape:window-height="2523"
     inkscape:window-x="4000"
     inkscape:window-y="0"
     inkscape:window-maximized="1"
     inkscape:current-layer="svg38046" />
  <defs
     id="defs38043" />
  <g
     id="layer1"
     transform="translate(-39.70646,77.484344)">
    <path
       id="path38631"
       style="fill:#ffd42a;fill-opacity:1;stroke:none;stroke-width:1.33333"
       d="m 1661.3203,0.078125 c -5.737,-0.23262614 -11.3956,-0.02995175 -15.6543,1.7050781 -7.1862,2.9277279 -13.5112,11.6734799 -20.2265,16.0683589 -29.1311,19.064799 -47.5064,40.08312 -67.1309,68.458985 -3.6906,5.336266 -9.6925,9.506426 -12.832,15.048833 -3.8709,6.83345 -1.3711,19.94593 -1.3711,27.61914 v 65.33203 241.33398 883.99997 c 2.7494,0.3706 5.57,0.8958 8.3672,1.3711 v 0.2364 h 1.4472 c 0.3057,0.053 0.606,0.094 0.9121,0.1484 v 1.1504 l 4.5821,-0.3672 c 33.0837,6.1822 68.4903,15.5192 98.0254,-7.2441 24.4973,-18.884 20,-50.4823 20,-77.961 v -190.668 -512.95698 c 0.3281,-29.34189 0.7007,-68.66487 1.0449,-92.50586 1.2483,-61.20654 2.5413,-118.06974 3.957,-154.4336 1.0621,-20.8965 2.3941,-35.77043 3.9531,-46.77929 9.0327,-31.30708 25.7763,-58.83036 56.377,-77.57618 14.6347,-8.96507 30.213,-15.04752 46.2812,-19.48437 14.8844,-1.95391 33.7835,-3.36871 59.3047,-4.35742 2.47,-0.0877 5.8371,-0.15296 8.4453,-0.23633 17.5424,-0.60204 37.4657,-1.07457 61.2344,-1.42578 4.5669,-0.078 13.5839,-0.12144 18.4199,-0.19531 56.4385,-0.70126 126.8028,-1.0227 225.1641,-1.53516 172.0068,-0.89616 285.2012,-0.27955 350.6699,1.62695 27.0642,1.38262 49.7759,3.20976 66.0449,5.94922 20.215,5.39038 39.659,13.68151 57.7696,26.63086 27.6063,19.73874 44.1548,55.58724 50.9922,90.60156 0.046,0.2563 0.1067,0.48885 0.1523,0.7461 2.2242,11.6216 3.3893,23.14097 3.5176,33.93164 0.2891,24.344 -8.1135,66.27069 10.8105,85.19336 10.448,10.448 26.0267,10.80664 39.8614,10.80664 22.736,0 45.3466,-0.10822 68,1.45312 68.3199,4.71067 120.7864,58.96087 134.0664,123.88086 0.2228,1.09062 0.361,2.20191 0.5586,3.29883 0.375,4.80835 0.7145,10.32516 1.0332,15.99609 l 1.6738,142.97461 v 45.73047 406.66597 118.668 c 0,18.4067 -2.2798,40.5227 9.8535,56 20.0666,25.5974 55.3344,25.238 84.8145,23.9473 8.3866,-0.3681 31.9463,-1.4539 37.2929,-8.6992 2.8934,-3.9041 1.3731,-11.9994 1.3731,-16.5821 v -42.666 -161.334 -593.33395 -158.66602 -42.66601 c 0,-5.21734 1.5069,-13.36776 -1.3731,-17.98243 -5.44,-8.71333 -15.7195,-16.18021 -22.1328,-24.68554 -47.08,-62.516 -107.8802,-115.39002 -163.1601,-170.666019 -25.2836,-25.283448 -49.7804,-48.6557 -78.9747,-68.685547 l -13.2304,-13.2304684 -4.1758,-0.017578 c -3.3565,-3.2289442 -6.7474,-6.3934658 -10.5137,-7.9277344 -5.9,-2.4038059 -14.8241,-0.80468748 -21.1054,-0.80468748 h -46.668 -161.332 -557.334 -250.666 -72 c -4.567,0 -10.3822,-0.66776448 -16.1192,-0.90039072 z m 629.3985,271.240235 c -11.9589,-0.026 -23.945,0.62961 -35.9473,2.22461 -93.2974,12.4 -177.2774,43.69846 -253.332,99.45312 -42.012,30.79867 -82.5686,75.63778 -111.5606,118.64844 -98.6653,146.37466 -113.825,345.57199 -32.0957,504 45.8413,88.85997 126.7183,168.09587 214.3223,215.58787 42.5426,23.064 91.362,36.2141 138.666,44.5235 48.192,8.4653 97.5106,14.1349 146.668,7.5136 81.3746,-10.9626 155.9706,-39.0777 224,-84.5136 26.088,-17.4227 47.22,-38.3333 69.332,-60.4454 36.7933,-36.7933 70.2655,-76.0313 94.3242,-122.66597 70.6373,-136.92533 69.4393,-310.06935 2.666,-448 -37.4066,-77.26666 -103.4342,-144.35632 -172.9902,-192.95898 -52.5413,-36.71334 -113.8574,-61.75747 -177.332,-71.60547 -35.1991,-5.462 -70.8442,-11.68378 -106.7207,-11.76172 z m -60.0098,88.34766 c 16.7494,0.41156 27.3021,11.48055 31.1855,25.65039 0.031,0.1099 0.064,0.2179 0.094,0.32812 3.3128,12.46204 1.497,27.26278 -5.791,39.32813 -11.7787,19.50133 -46.9252,25.65334 -68.0918,27.77734 -3.395,0.34102 -7.5813,0.89735 -12.0723,1.34766 -5.0527,0.35431 -9.7112,0.55593 -13.8809,0.625 -8.5836,-0.22138 -16.7077,-1.9414 -21.4687,-7.37891 -8.884,-10.14533 1.8008,-26.75655 7.4941,-35.69922 17.0654,-26.808 43.5984,-47.40323 75.9278,-51.61523 2.2983,-0.29942 4.4994,-0.41499 6.6035,-0.36328 z m 143.7246,0.13867 c 2.6491,0 4.6398,0.0999 6.75,0.18164 27.5772,3.51228 53.9441,23.8609 69.0195,44.99219 8.9201,12.504 27.5517,41.85595 1.9024,47.61328 -22.9507,5.15067 -47.13,-1.56519 -69.334,-7.11719 -11.8013,-2.94933 -24.0799,-5.73986 -32.4238,-15.39453 -15.8788,-18.36711 -16.2214,-64.88249 13.1875,-69.89258 2.8982,-0.23762 6.2632,-0.38281 10.8984,-0.38281 z m -144.9941,165.67383 c 36.8933,-1.81467 34.666,43.56936 34.666,68.83203 0,29.18533 1.6579,58.964 -1.1075,88 -1.4413,15.13069 -1.8344,29.11647 -14.8984,39.48047 -11.0657,8.77846 -26.4367,8.80018 -39.9629,9.65234 -23.202,1.0167 -55.5102,1.54911 -80.9219,1.27539 -8.3247,-0.4402 -16.521,-1.09063 -24.4433,-2.02539 -12.1733,-1.43735 -24.5334,-0.20799 -34.6094,-8.83594 -18.0333,-15.44266 -6.7866,-43.42154 -6.7226,-63.54687 0.096,-29.9 7.6387,-79.84727 30.7187,-101.08594 11.9267,-10.97467 28.6873,-15.24737 43.9473,-19.08203 30.5746,-7.68 61.826,-11.11473 93.334,-12.66406 z m 141.332,0 c 11.384,-0.62267 23.3066,2.60219 34.668,3.38086 34.464,2.35998 93.7254,4.93449 113.496,38.78515 19.3214,33.07867 20.9726,73.60601 23.9512,110.66602 1.9867,24.72 1.6154,48.43221 -29.4472,51.76953 -12.4547,1.33854 -25.5541,2.30837 -38.8516,2.92578 -18.6282,0.36754 -39.6117,0.35241 -58.2305,-0.082 -9.176,-0.49788 -18.2132,-1.20355 -26.9179,-2.23047 -16.1227,-1.90269 -31.2338,-1.60951 -41.8165,-16.38281 -4.0307,-5.6269 -6.1711,-12.6445 -7.371,-20.02149 -0.6739,-5.79124 -1.134,-12.84268 -1.4415,-20.88672 -0.019,-2.86834 -0.039,-5.7881 -0.039,-8.42382 -6e-4,-8.41005 -0.2633,-17.042 -0.5527,-25.74414 -0.021,-4.80217 -0.074,-8.96811 -0.074,-14.33008 0,-0.37114 0,-0.51546 0,-0.88282 10e-4,-18.00127 0.048,-31.70574 0.2207,-42.79882 0.025,-1.77677 0.083,-2.8669 0.1153,-4.44727 0.09,-4.29675 0.3302,-6.71736 0.4824,-10.09766 0.4703,-4.16433 1.0274,-8.29844 1.7598,-12.36718 2.8853,-16.03467 13.1236,-27.9067 30.0449,-28.83203 z m 261.332,79.4746 c 9.4109,-0.37345 19.339,6.09817 26.668,10.76368 25.228,16.06 41.6698,37.70976 49.6738,66.59375 5.0067,18.072 3.1168,39.65066 -17.6738,45.66797 -5.7257,1.65703 -10.9715,2.45804 -15.875,2.67187 -1.456,0.0529 -2.8235,-0.0137 -4.2481,-0.0332 -34.8799,-1.34534 -48.2805,-38.67366 -52.8242,-73.63867 -1.6853,-12.97467 -7.2129,-46.65388 10.2871,-51.42188 1.3142,-0.358 2.6478,-0.55016 3.9922,-0.60352 z m -661.625,0.17188 c 17.3505,0.25804 17.2767,25.18578 15.5254,38.51953 -4.3466,33.11332 -6.6351,79.7407 -47.2324,86.08203 -34.328,5.36134 -53.7985,-17.19802 -43.5371,-50.08203 9.8227,-31.47467 36.2637,-68.52842 71.5371,-74.23242 1.3162,-0.21283 2.5503,-0.30431 3.707,-0.28711 z m 176.4531,199.17383 c 22.9822,-0.25718 46.5249,1.08913 67.8399,3.11914 16.1827,1.54133 31.5337,2.29923 41.375,17.56055 8.9267,13.84403 7.959,34.78202 7.959,50.66601 0,15.42831 0.59,31.25544 0.8711,47.0918 -0.01,10.45762 -0.013,20.57537 -0.076,27.73828 -0.3215,10.74035 -1.0235,21.3989 -2.5274,31.83594 -2.1002,14.57769 -10.4739,25.66565 -24.6621,28.93745 -1.8048,0.3639 -3.5397,0.7574 -5.5605,1.0274 -10.8407,0.8053 -22.7172,-2.0567 -33.3789,-3.0703 -34.0427,-3.24 -89.9039,-3.7999 -112.2813,-34.89455 -22.3253,-31.01998 -23.9219,-76.78536 -26.4179,-113.33203 -0.964,-14.11465 -5.454,-29.12924 4.5527,-41.28125 10.5733,-12.83864 27.3452,-11.25856 42.1465,-13.00391 12.783,-1.5085 26.3708,-2.24022 40.1601,-2.39453 z m 305.1543,0.25 c 5.5313,0 9.7773,0.0561 14.6758,0.0781 11.5253,0.53196 22.8154,1.3945 33.3438,2.63672 13.2999,1.56934 26.9848,0.31117 37.0488,11.17383 3.1358,3.38472 4.974,7.22085 6.1543,11.26758 0.2025,0.85248 0.4471,1.60842 0.6269,2.50976 2.8795,13.76998 -2.1478,30.00909 -2.4765,43.42969 -0.7707,31.46132 -5.9859,80.38628 -29.4766,103.87695 -17.72,17.71866 -54.3229,25.35784 -78.5429,27.89654 -21.9507,2.3013 -66.8327,13.6912 -83.75,-3.9141 -10.4054,-10.82933 -8.9179,-26.15138 -10.5352,-39.85939 -3.9147,-33.17333 -3.339,-73.53267 0.5703,-106.66601 1.4573,-12.34001 0.6471,-24.25813 8.9004,-34.66211 11.5373,-14.54268 28.1958,-13.66306 44.8145,-15.62305 6.0537,-0.71439 12.3988,-1.23002 18.8437,-1.65234 11.4973,-0.27512 23.3953,-0.49219 39.8027,-0.49219 z m -520.8105,3.04883 c 0.8207,0.0642 1.6497,0.11582 2.4707,0.17968 2.6756,0.232 5.2258,0.64945 7.6914,1.19141 30.7079,7.43044 42.3644,43.65586 43.9492,76.00977 0.1151,2.34779 0.4616,5.76942 0.7637,9.09179 0.038,1.54256 0.199,2.86992 0.2129,4.45508 0.07,7.95675 0.016,13.06245 -0.1504,17.1582 -1.1709,8.47277 -4.4532,15.56271 -12.7754,16.98438 -10.8067,1.84668 -22.1167,-5.71653 -30.666,-11.2832 -8.3911,-5.46492 -15.6488,-11.56652 -21.9883,-18.29493 -1.7722,-1.90528 -3.4207,-3.85784 -5.0703,-5.83398 -9.3666,-11.5043 -16.292,-24.76532 -20.8926,-40.27734 -1.6203,-5.46373 -2.4109,-10.77443 -2.4961,-15.8125 0,-1.16514 0.054,-2.29787 0.1153,-3.42579 0.8163,-13.66566 8.1343,-24.44514 23.4003,-28.40625 4.833,-0.9749 10.1027,-1.60344 15.4356,-1.73632 z m 732.3262,0.9414 c 3.2759,-0.0438 6.5504,-0.0632 10.8144,0.25586 8.0605,0.60324 15.6664,2.35139 21.7383,4.7207 12.8645,8.29299 17.8086,24.53938 11.4883,44.79493 -9.6814,31.02398 -37.1858,70.58403 -72.8711,74.41601 -11.4861,1.23318 -16.0682,-6.88299 -17.6992,-16.65234 -0.2819,-4.87656 -0.3419,-10.65227 -0.2774,-16.75586 0.034,-2.48592 0.2704,-4.91228 0.3867,-7.38477 3.8248,-32.68065 7.8101,-76.89515 46.42,-83.39453 z m -224.9727,274.92774 c 3.1598,-0.01 6.4939,0.2178 9.707,0.748 0.3738,0.058 0.7419,0.1192 1.1036,0.1836 4.0198,0.7715 7.6635,2.2082 10.5234,4.3828 2.5899,2.8175 3.8,6.855 4.5195,13.0547 0.2006,1.7281 -0.1155,3.6683 -0.2929,5.5528 -2.3836,8.4594 -8.0389,16.9432 -12.1231,22.9218 -16.9907,24.8734 -43.7336,44.6828 -74.6269,47.7735 -22.3191,2.2331 -34.9856,-13.4323 -37.5274,-31.8965 -0.2426,-2.1016 -0.3706,-4.2361 -0.4316,-6.3828 -0.083,-10.7825 2.9493,-21.9247 9.8613,-30.707 16.2187,-20.6041 56.163,-22.2483 80.0977,-25.0723 2.589,-0.3057 5.7823,-0.5489 9.1894,-0.5586 z m -259.3984,1.6406 c 3.6637,0.068 7.1894,0.2529 10.6445,0.4961 10.7195,1.8883 21.3441,4.6507 31.5645,7.2051 6.7059,1.6769 13.429,3.5563 19.5371,6.5781 4.7413,2.8067 8.8211,5.9901 12.2226,9.5293 15.2327,19.0769 15.1103,64.5935 -14.4277,68.9942 -33.3387,4.9666 -67.9184,-19.4543 -86.0957,-44.9317 -5.0414,-7.0665 -9.9829,-15.3128 -12.4219,-23.0351 -0.2657,-2.8144 -0.4304,-5.6389 -0.1,-8.4786 0.6218,-5.3381 1.3916,-8.8916 3.2676,-11.3867 1.3791,-1.2764 2.9517,-2.4671 5.0722,-3.4004 5.3427,-1.7689 14.3714,-1.8746 30.7364,-1.5703 z m 391.0859,295.3594 c -10.7453,0.1887 -21.1279,1.1813 -30.2129,2.418 -11.548,1.56 -23.2416,3.6796 -31.2949,12.9863 -10.636,12.3067 -10.0371,28.5735 -10.0371,43.7734 v 77.334 73.332 c 0,15.2267 -0.8266,31.0942 9.0508,43.8809 7.3026,9.4533 18.4099,12.2125 29.6152,13.8125 25.484,3.64 55.8806,2.8806 81.334,-0.7461 8.4506,-1.2 16.52,-3.9207 24,-8.0273 54.0226,-29.6667 36.9264,-95.4387 23.2305,-142.252 -7.6854,-26.28 -2.7388,-56.5873 -14.3282,-81.334 -13.61,-29.07 -49.1213,-35.744 -81.3574,-35.1777 z m -215.6055,1.2012 c -9.4406,-0.1667 -18.8608,-0.023 -27.9394,1.2168 -61.6027,8.3733 -41.8726,90.4924 -41.3379,135.4257 0.2748,23.1067 0,46.2274 0,69.334 0,13.5067 -0.8884,29.134 6.0449,41.334 6.1507,10.8133 16.6224,16.6656 28.6211,18.4922 22.2227,3.36 45.556,1.5078 68,1.5078 15.7574,0 32.8414,1.5603 48,-3.6797 19.8947,-6.88 24.4907,-32.6666 5.332,-43.6133 -18.5843,-10.6136 -42.0861,-4.647 -62.9277,-7.4179 -0.2871,-0.036 -0.5361,-0.079 -0.8164,-0.1153 -2.8065,-0.4059 -5.567,-0.9614 -8.2539,-1.7617 -7.8801,-2.3441 -16.689,-7.7646 -20.3652,-15.5273 -0.5418,-1.8321 -0.893,-3.8215 -1.0762,-5.9903 -0.2266,-2.6829 -0.1295,-5.1505 0.2734,-7.4433 0.1384,-0.4921 0.1725,-1.0743 0.3399,-1.541 0.023,-0.09 0.045,-0.1802 0.068,-0.2696 10.0678,-26.9844 68.3024,-11.7636 61.6524,-49.9746 -4.024,-23.1199 -29.8812,-19.866 -46.2266,-27.3593 -8.653,-3.9625 -17.6271,-13.2334 -16.5039,-23.543 0.093,-0.7279 0.2227,-1.4539 0.377,-2.1777 2.9269,-12.236 15.2334,-18.8803 26.7949,-20.9727 21.9386,-3.9467 53.902,4.6526 71.8594,-11.7207 14.8386,-13.5334 5.3366,-35.0266 -11.8594,-40.3066 -16.5373,-5.0667 -34.9413,-3.254 -52,-3.254 -9.1587,0 -18.6199,-0.4759 -28.0606,-0.6425 z m -317.6289,12.2793 c -4.6906,-0.1671 -9.8785,1.6568 -15.625,6.2168 -14.672,11.6533 -13.4092,33.6398 -10.0879,50.1464 8.1921,40.72 19.8385,81.0407 29.8985,121.334 4.052,16.2267 8.1844,39.5742 22.8418,49.8008 23.2893,16.24 37.9623,-11.8547 49.041,-27.1348 4.2106,-5.8133 10.8958,-13.9326 18.9531,-12.9726 24.8653,2.9733 23.1113,47.0142 53.334,44.2676 19.912,-1.8134 26.6809,-24.3737 31.4355,-40.627 7.0774,-24.2 11.7916,-49.0406 18.4649,-73.334 6.3587,-23.1466 15.4804,-48.0933 17.8711,-72 1.896,-18.96 -4.4548,-46.8669 -29.1055,-44.6269 -21.996,2 -28.6758,28.7743 -35.0918,45.9609 -3.064,8.2 -7.3255,19.7331 -16.9082,22.0664 -11.24,2.7334 -21.6533,-11.8261 -32,-14.7461 -9.764,-2.7466 -19.424,-1.067 -28,4.293 -7.7893,4.8666 -16.8718,14.9324 -26.6465,8.7324 -2.0315,-1.2937 -3.5587,-3.1208 -5.0175,-4.9941 -0.8813,-1.1975 -1.7884,-2.5759 -2.7149,-4.0567 -0.8694,-1.5415 -1.8177,-3.0504 -2.5371,-4.6289 -6.7773,-14.8633 -17.7793,-52.9733 -38.1055,-53.6972 z m 540.3555,53.164 c 8.8393,0 13.7007,6.0394 14.5762,12.668 9e-4,0.064 0.01,0.1229 0.01,0.1875 0,0.025 0,0.051 0,0.076 0.01,1.7728 -0.1714,3.6568 -0.5527,5.6367 -0.1409,0.7314 -0.3404,1.4384 -0.5723,2.1308 -0.045,0.1159 -0.073,0.2369 -0.1211,0.3516 -0.2094,0.5825 -0.4582,1.1459 -0.7265,1.6973 -1.5948,2.7694 -4.0613,5.0531 -7.5137,6.1679 -1.1952,0.2011 -2.5187,0.3616 -4.1211,0.4786 -1.41,0.1029 -2.4709,0.094 -3.5722,0.096 -16.9947,-2.5746 -16.1195,-29.4903 2.5937,-29.4903 z m 12.1035,99.4414 c 25.6764,1.5976 28.469,38.5719 -0.1035,42.1719 -32.5454,4.1067 -37.5393,-38.1467 -5.334,-42 1.9127,-0.2283 3.7258,-0.2784 5.4375,-0.1719 z m -965.7656,111.7715 c -26.7679,0 -53.66,7.1525 -79.6699,10.6543 v 1.6055 l -0.627,0.1308 0.627,23.2383 v 47.0254 c 0,10.5867 -2.3308,24.3069 0.4238,34.5469 2.1049,7.8266 12.7687,15.7185 17.3203,22.7851 16.1653,25.08 34.9412,43.2267 58.2559,61.6133 6.0497,4.7734 12.2861,14.5879 19.0996,17.5879 8.483,3.7334 23.6933,0.7988 32.9004,0.7988 h 76 265.334 392.2695 c 245.2564,0.4156 453.7061,0.6583 493.6543,0.4395 27.6217,1.1106 57.2382,3.765 83.289,-0.6387 9.16,-1.5466 22.8672,-19.28 30.7872,-25.3066 20.04,-15.24 34.7203,-33.7735 50.4003,-53.1602 4.2667,-5.2666 13.9999,-11.1056 15.8399,-17.5722 0.1853,-0.651 0.2729,-1.3788 0.4316,-2.0508 l 0.3106,-0.3145 -0.064,-0.8535 c 3.4985,-16.576 -0.2519,-38.7662 -0.2519,-55.209 v -41.334 c 0,-4.64 1.5062,-12.5057 -3.0938,-15.4257 -14.0666,-8.9334 -38.3469,-7.2403 -54.2402,-7.2403 -19.68,0 -41.12,-2.134 -60,4.586 -24.0134,8.5466 -40.892,26.8411 -61.332,41.1211 -21.6134,15.1066 -45.6427,25.8531 -70.668,33.8398 -5.9659,1.9027 -12.179,3.1705 -18.4805,4.1895 -10.3809,0.9248 -31.4315,1.5309 -72.8476,1.8984 -4.6836,-0.1189 -9.4664,-0.3008 -14.0039,-0.3008 h -193.334 -160.7344 l -65.1348,-0.1562 -470.125,-1.127 c -17.9411,-1.2876 -32.4672,-2.9891 -44.5215,-5.1211 -24.8897,-7.0944 -49.4497,-19.4005 -70.1503,-34.1699 -20.1854,-14.4 -37.1927,-32.6787 -61.334,-40.6387 -12.0219,-3.9666 -24.1629,-5.4425 -36.3301,-5.4414 z"
       transform="matrix(0.26458333,0,0,0.26458333,-368.59446,-77.484164)" />
    <path
       style="fill:#ffcc00;fill-opacity:1;stroke-width:6.67333"
       d="m 1571.5701,1322.1099 -23.3567,-4.1265 -1.704,-603.52649 -1.7041,-603.52646 17.8552,-25.765053 c 9.8204,-14.170784 32.1418,-37.726439 49.6031,-52.345906 l 31.7479,-26.580849 572.3864,0.3237368 c 517.6395,0.2927725 573.9752,1.3647855 588.9979,11.2080402 24.3021,15.923334 189.6872,178.322951 235.278,231.030681 l 39.1524,45.26442 -1.7097,511.95893 -1.7097,511.95895 -24.0195,5.9363 c -30.2344,7.4723 -69.8141,0.3304 -85.5888,-15.4446 -11.3423,-11.3423 -12.2847,-36.7401 -15.039,-405.30312 -2.9233,-391.15127 -3.0169,-393.36438 -17.9472,-424.20639 -18.7281,-38.68688 -58.7296,-75.47224 -92.1682,-84.7576 -14.0235,-3.89412 -48.4029,-7.09696 -76.3986,-7.11742 -64.9133,-0.0474 -68.1508,-3.73164 -72.7544,-82.79257 -5.9035,-101.38629 -38.7807,-147.47764 -117.1338,-164.21319 -22.778,-4.86519 -157.5575,-6.59351 -410.41,-5.26284 -368.0038,1.93669 -377.1874,2.30208 -407.2477,16.20333 -35.0829,16.22388 -61.1533,47.09381 -72.5264,85.87804 -5.5526,18.93568 -8.7515,174.08885 -11.007,533.86669 -1.7487,278.94537 -4.6341,514.12797 -6.412,522.62817 -2.0324,9.7172 -11.7358,19.0076 -26.1373,25.025 -23.9955,10.0259 -31.8315,10.4383 -70.0468,3.6867 z"
       id="path76232"
       transform="matrix(0.26458333,0,0,0.26458333,-368.59446,-77.484164)" />
    <path
       style="fill:#ffcc00;fill-opacity:1;stroke-width:6.67333"
       d="m 1560.8268,1316.2129 c -5.2912,-3.5025 -8.4112,-175.976 -10.9241,-603.87444 l -3.5176,-598.97154 18.2476,-25.190001 c 10.0361,-13.854501 32.97,-38.228628 50.9641,-54.164729 l 32.7166,-28.9747293 567.2334,3.0946563 c 496.5968,2.709284 569.7263,4.38975 587.2533,13.49465 11.011,5.719998 77.5063,68.767968 147.7673,140.106603 l 127.7473,129.70661 -3.1356,506.59836 c -1.7245,278.62906 -4.3118,510.35216 -5.7495,514.94006 -1.7117,5.4624 -16.5068,8.3417 -42.8634,8.3417 -53.9771,0 -66.7066,-12.2576 -67.5705,-65.065 -0.345,-21.1045 -2.7357,-199.0322 -5.312,-395.39506 -4.5398,-346.00945 -5.12,-357.84682 -18.8075,-383.71669 -12.7756,-24.14639 -39.0824,-52.66968 -70.2114,-76.12705 -6.3481,-4.78363 -41.9827,-11.08959 -79.188,-14.01324 -41.8372,-3.28763 -70.901,-8.7477 -76.1774,-14.31105 -4.6922,-4.94743 -11.9474,-38.85834 -16.1225,-75.35759 -11.1021,-97.053 -39.1108,-138.37547 -106.4751,-157.08743 -31.6274,-8.78521 -737.6616,-8.97486 -791.1704,-0.21252 -48.4416,7.93257 -80.8999,31.68836 -102.7141,75.17509 l -15.5561,31.01118 -5.4758,525.61195 -5.4757,525.61201 -14.7425,11.9377 c -15.1507,12.2683 -75.6462,16.8221 -90.7404,6.8305 z"
       id="path76308"
       transform="matrix(0.26458333,0,0,0.26458333,-368.59446,-77.484164)" />
    <path
       style="fill:#ffcc00;fill-opacity:1;stroke-width:6.67333"
       d="m 2191.3432,1248.1768 c -173.608,-36.6219 -321.6732,-178.7054 -366.7618,-351.94488 -17.1384,-65.84914 -18.362,-166.01391 -2.8778,-235.57189 6.1278,-27.5275 25.0157,-78.5785 41.973,-113.44667 26.1157,-53.69964 40.0732,-72.63829 91.2509,-123.81595 51.0059,-51.00594 70.2965,-65.24847 123.8159,-91.4153 108.931,-53.25873 188.8287,-66.41201 296.4342,-48.8009 115.0179,18.82425 189.4908,57.07589 273.6891,140.57548 61.2074,60.69942 96.3147,116.38755 122.0043,193.52667 15.8689,47.64987 17.8226,63.78462 18.1809,150.15001 0.3704,89.24131 -1.0957,101.3314 -18.8592,155.52699 -25,76.27352 -59.0395,128.21484 -130.0122,198.38714 -45.2395,44.7295 -69.773,62.9585 -114.3237,84.9454 -110.1859,54.3795 -213.7852,67.351 -334.5136,41.8839 z m 70.4152,-88.6851 c 15.3113,-43.803 -17.2718,-73.171 -82.5281,-74.385 -35.0187,-0.6513 -37.2011,0.2622 -39.076,16.3581 -6.398,54.927 104.2346,107.7185 121.6041,58.0269 z m 146.1726,12.5857 c 30.2933,-12.6573 59.0835,-48.4173 56.5508,-70.2409 -1.7185,-14.8076 -5.7079,-17.7264 -26.6039,-19.4646 -30.2668,-2.5176 -74.7355,8.8892 -88.5642,22.7178 -13.3675,13.3676 -13.2632,52.164 0.1764,65.6037 12.8868,12.8867 29.9443,13.2907 58.4409,1.384 z M 2255.1101,1003.86 c 8.3941,-8.39409 10.4867,-26.83037 10.4867,-92.39234 0,-103.74761 -0.6205,-104.51364 -88.2993,-109.02065 -69.8089,-3.58842 -116.3869,5.54388 -119.9114,23.51034 -4.473,22.80213 7.8603,115.35466 17.9795,134.92308 14.0324,27.13571 36.6231,40.58977 78.3805,46.68047 59.637,8.6986 90.0759,7.5873 101.364,-3.7009 z m 207.2556,0.8826 c 26.538,-6.24185 44.8056,-15.04545 54.4248,-26.22835 26.8293,-31.19103 40.1445,-146.88246 18.9312,-164.48793 -14.1322,-11.72867 -126.369,-16.64548 -161.6161,-7.07999 -35.2307,9.561 -38.4793,19.28908 -38.3223,114.75685 0.082,49.65445 2.822,74.11288 9.1588,81.74832 11.4197,13.7599 62.0455,14.3166 117.4236,1.2911 z m -474.1911,-81.64448 c 10.6453,-27.74131 -11.845,-103.28979 -33.1868,-111.4794 -17.6158,-6.7598 -46.4919,-4.73513 -55.0897,3.86265 -10.9175,10.91748 -10.0726,42.049 1.7623,64.93517 21.8974,42.34481 76.3371,69.20257 86.5142,42.68158 z m 691.4004,-14.18614 c 27.1022,-27.10214 40.4569,-68.25753 28.3975,-87.51297 -3.8305,-6.1163 -18.0045,-11.44011 -33.5566,-12.60401 -22.3696,-1.67413 -29.2372,0.92447 -40.5915,15.35915 -13.9634,17.75158 -25.9639,81.43648 -18.8425,99.99453 7.2056,18.77748 37.7945,11.56194 64.5931,-15.2367 z M 1961.6535,719.0517 c 30.9884,-27.17673 37.4775,-118.51616 8.4135,-118.42673 -15.7955,0.0487 -51.7891,26.84736 -64.8663,48.29573 -16.8102,27.571 -17.6695,68.59733 -1.6323,77.93814 18.9434,11.03352 39.798,8.23047 58.0851,-7.80714 z m 290.5966,1.66833 c 11.8499,-11.84988 13.3467,-22.24444 13.3467,-92.68737 0,-67.42919 -1.865,-81.64381 -12.4221,-94.68132 l -12.4221,-15.3406 -64.3506,10.5164 c -35.3929,5.78402 -71.7662,15.37523 -80.8296,21.3138 -20.276,13.28534 -35.9655,63.95402 -38.151,123.20724 -2.1498,58.286 2.4483,61.01852 102.6775,61.01852 69.9068,0 80.3115,-1.50697 92.1512,-13.34667 z m 283.14,2.86 c 18.9768,-18.97685 8.8087,-123.5533 -15.2019,-156.34667 -17.5578,-23.98027 -39.4723,-32.70721 -101.7378,-40.51464 -51.7707,-6.4915 -55.8391,-6.07802 -68.9015,7.0025 -12.5273,12.54466 -13.8802,21.75583 -13.8626,94.38222 0.026,106.11398 -0.1311,105.96326 110.3531,105.96326 62.7968,0 81.0006,-2.13648 89.3507,-10.48667 z m 164.4121,3.57854 c 15.6478,-8.37446 17.1512,-38.93574 3.2388,-65.83932 -11.2177,-21.6928 -53.6202,-60.71922 -65.9718,-60.71922 -23.2449,0 -30.9543,34.16399 -17.9451,79.52431 12.8473,44.79598 47.3145,64.88988 80.6781,47.03423 z M 2230.613,446.01697 c 35.8488,-10.95904 47.3661,-53.25458 21.5355,-79.08526 -14.4336,-14.43354 -33.0295,-13.2193 -68.1087,4.44725 -18.911,9.52395 -51.9097,52.42602 -51.9097,67.48855 0,20.30608 44.8054,23.55877 98.4829,7.14946 z m 220.1688,10.23694 c 46.1453,-12.36646 -20.509,-98.56323 -76.2171,-98.56323 -27.0626,0 -35.318,10.14153 -35.4591,43.56055 -0.125,29.61063 9.9544,38.67743 55.1818,49.6384 43.5278,10.54905 38.8167,10.10172 56.4944,5.36428 z"
       id="path76347"
       transform="matrix(0.26458333,0,0,0.26458333,-368.59446,-77.484164)" />
    <path
       style="fill:#ffcc00;fill-opacity:1;stroke-width:3.33667"
       d="m 2531.2724,1644.97 c -6.1972,-1.4632 -15.2062,-6.5969 -20.02,-11.4082 l -8.7523,-8.748 -0.9685,-104.9394 c -1.0795,-116.959 -0.3683,-121.4443 20.648,-130.2255 29.1223,-12.168 86.898,-8.9324 109.2301,6.1172 17.0291,11.4759 22.7054,24.7201 27.6646,64.5487 2.4777,19.8991 7.2172,45.1893 10.5322,56.2003 8.5373,28.3567 8.5357,75.778 0,92.9802 -8.235,16.5903 -27.8631,30.7114 -48.9848,35.2412 -18.9895,4.0725 -72.494,4.2123 -89.3462,0.2335 z m 73.6113,-62.2784 c 13.767,-12.459 2.4696,-37.8149 -16.8486,-37.8149 -13.6341,0 -27.1433,11.6246 -27.1433,23.3567 0,20.3238 27.5173,29.3675 43.9919,14.4582 z m -15.8686,-109.7915 c 7.0914,-7.0915 6.5978,-15.8533 -1.2955,-22.9967 -14.1903,-12.842 -32.9064,3.9741 -23.6575,21.2559 4.4551,8.3243 17.4621,9.2317 24.953,1.7408 z"
       id="path76386"
       transform="matrix(0.26458333,0,0,0.26458333,-368.59446,-77.484164)" />
    <path
       style="fill:#ffcc00;fill-opacity:1;stroke-width:3.33667"
       d="m 2318.1698,1645.0608 c -5.9529,-1.4132 -13.1841,-4.5285 -16.0691,-6.9229 -13.0616,-10.8401 -14.0907,-18.9068 -15.303,-119.9545 -1.3163,-109.7169 -0.7177,-113.2536 21.5036,-127.0448 9.7767,-6.0677 15.6733,-6.5502 69.5671,-5.6916 52.4401,0.8354 59.6526,1.6337 65.8991,7.2944 4.4446,4.0277 7.0143,10.4169 7.0143,17.4406 0,16.9272 -10.8627,22.221 -50.5024,24.612 -39.0662,2.3564 -50.6364,8.3711 -52.262,27.1681 -1.2713,14.7009 6.2072,21.7527 29.6191,27.9286 20.4825,5.4032 30.6028,14.0971 30.6028,26.2897 0,12.8113 -6.3491,18.3362 -27.9837,24.3512 -25.5308,7.0982 -33.5833,14.672 -32.2598,30.342 1.4853,17.5853 13.6604,23.531 53.0022,25.8836 36.2601,2.1682 47.4967,7.6685 49.1382,24.0529 1.2226,12.2029 -8.1525,22.4228 -23.3593,25.4641 -14.1396,2.8279 -95.4083,1.92 -108.6071,-1.2134 z"
       id="path76425"
       transform="matrix(0.26458333,0,0,0.26458333,-368.59446,-77.484164)" />
    <path
       style="fill:#ffcc00;fill-opacity:1;stroke-width:3.33667"
       d="m 2064.869,1620.0414 c -3.8596,-2.7034 -9.4428,-10.9766 -12.407,-18.3849 -7.1362,-17.8352 -38.6843,-143.3771 -41.0505,-163.3554 -2.1908,-18.4984 4.8815,-35.1948 17.3057,-40.8557 12.9678,-5.9085 23.383,3.803 39.2893,36.6343 15.7163,32.4393 21.8907,36.2968 38.812,24.2478 16.358,-11.6479 28.5226,-12.2881 43.6223,-2.2956 22.7841,15.0778 30.0164,11.3724 43.3055,-22.1875 10.8891,-27.4992 18.2519,-35.781 31.8105,-35.781 15.8715,0 25.025,12.4374 25.025,34.003 0,19.0694 -34.337,155.0961 -43.8816,173.838 -13.0703,25.6646 -32.2977,24.2415 -49.4666,-3.6614 -11.2806,-18.3335 -23.6129,-25.925 -33.51,-20.6282 -3.4962,1.8711 -10.9441,10.0694 -16.5508,18.2185 -16.6564,24.2092 -28.5084,29.8708 -42.3038,20.2081 z"
       id="path76464"
       transform="matrix(0.26458333,0,0,0.26458333,-368.59446,-77.484164)" />
    <path
       style="fill:#ffcc00;fill-opacity:1;stroke-width:3.33667"
       d="m 1615.5827,1853.8632 c -14.344,-12.6565 -35.7455,-35.0377 -47.5588,-49.736 l -21.4788,-26.7241 v -53.9976 -53.9976 l 28.7211,-4.273 c 38.5704,-5.7383 70.5278,-5.0964 87.6658,1.7609 7.7131,3.0861 25.5972,14.5187 39.7426,25.4058 34.2363,26.3501 73.326,45.5421 100.8034,49.4917 12.6147,1.8132 229.1462,3.1832 517.8855,3.2765 494.5693,0.1598 496.2749,0.1374 516.8888,-6.8069 30.0005,-10.1065 48.7413,-20.3396 78.9835,-43.1278 41.2438,-31.0781 47.9279,-33.3155 99.7882,-33.4017 26.4846,-0.044 47.4432,1.471 52.5525,3.7989 8.3559,3.8073 8.5117,4.5496 9.2757,44.2109 1.4668,76.1448 3.6635,67.9637 -27.3794,101.9672 -15.0452,16.48 -36.4995,37.8839 -47.6762,47.5642 l -20.3213,17.6005 h -670.9062 -670.9063 z"
       id="path76503"
       transform="matrix(0.26458333,0,0,0.26458333,-368.59446,-77.484164)" />
  </g>
  <g
     id="layer4"
     transform="translate(-408.30092,1.8035378e-4)" />
</svg>
